<?xml version="1.0" encoding="UTF-8"?><svg id="Layer_2" xmlns="http://www.w3.org/2000/svg" viewBox="0 0 262.63 247.44"><defs><style>.cls-1{fill:#006a4d;}</style></defs><g id="Layer_1-2"><path d="m61.46,241.49l-5.02-3.51c-2.13-25.3-10.04-40.63-14.23-48.53,4.47-2.95,11.89-9.76,11.89-19.52s-7.97-14.92-7.97-27.01c0-6.67,2.27-12.23,5.98-16.56-2.4-3.44-5.22-5.3-9.41-5.3-4.68,0-8.87,3.85-8.87,9.76,0,3.44,1.51,7.21,4.74,8.87-2.33,3.23-8.32,3.57-11.61-1.31h-.07c0,11.54,12.23,19.58,12.23,31.89,0,7.97-6.32,15.67-15.47,15.67-6.8,0-13.2-3.16-16.5-9.49,7.42,1.92,12.78-1.03,12.78-7.63,0-11.96-19.93-23.72-19.93-44.06,0-16.01,12.31-24.88,26.33-24.88,12.78,0,24.19,5.92,32.79,20.76,4.4-3.31,9.76-5.15,15.19-6.26,14.64-2.89,32.58-.28,46.33-6.12,6.12-2.61,11.2-7.22,11.2-12.51,0-2.54-1.44-4.05-3.51-4.05-1.03,0-2.61.48-3.51,2.75-2.68-2.33-3.51-4.81-3.51-7.29,0-4.12,1.3-6.05,2.75-8.04-1.37-3.57-5.64-4.4-8.53-.9-3.57-6.59-1.37-15.67,7.91-18.42v-.07c-10.86-1.79-13.74-8.52-12.51-16.01,1.03.9,2.2,1.44,3.37,1.44,1.79,0,2.89-1.44,2.89-3.51,0-2.2-1.09-5.64-6.73-9.41,4.95-7.42,13.48-8.53,17.8-5.77l.07-.07c-2.2-3.03-3.31-8.32.21-13.55.83,1.17,2.82,2.89,5.92,2.89,9.07,0,9.41-9.96,16.35-10.92-.41,3.1.41,7.42,4.26,7.42,5.02,0,7.35-7.56,8.59-12.23,2.2,1.24,3.78,3.37,3.44,7.35h.07l3.03-6.12c2.54,2.13,3.02,5.71,2.2,8.93-.21.83-.48,1.44-.48,1.92,0,2.41,7.21,4.19,7.21,9.55,0,.9-.28,1.86-.69,2.95l16.5,20.82c1.03,1.3,1.37,2.69,1.37,3.85,0,4.33-3.78,8.93-9.21,8.93s-7.29-2.95-7.56-4.32l-14.36-7.01c-.83,1.37-1.78,3.64-1.78,6.18,0,15.81,22.34,16.22,27.77,36.91l22.13-7.35c15.81,15.39,32.51,30.31,42.82,36.42l6.52,8.32h-19.79v-5.77l-5.43-1.51c-8.32-13.06-19.59-20.2-25.64-21.99-7.35,4.47-12.85,9.14-19.32,16.36,10.52-.83,22.27.21,32.1,2.06l-5.15,44.2-4.19,11.34-11.13,9.49v-19.52h5.98l-1.65-6.19c4.88-12.93,5.5-21.58,5.5-26.26,0-1.44-.07-2.82-.55-3.3-.41-.41-2.13,0-3.64.41-3.98,1.11-10.52,4.19-18.91,11-7.56,6.19-11.69,9-21.93,7.84-11.54,11.95-36.01,17.74-57.47,17.46-1.65,17.39-20.9,27.42-20.9,35.67,0,2.95,2.82,7.76,9,17.04,6.87,10.31,13.4,20.21,21.52,23.38l6.88,8.38h-19.86l-.14-5.98-5.64-3.1c-6.47-11.96-16.56-25.16-30.45-37.53,3.37-6.73,5.15-13.61,5.22-20.14-6.26,9.41-15.39,9.49-17.04,16.63-.62,2.68-.28,7.91,1.17,14.64,2.13,10.17,4.06,22.27,13.48,26.95l6.52,8.53h-19.73v-5.98.03Z"/><path class="cls-1" d="m183.88,51.45c0-1.17.69-3.16.69-4.88,0-.9-.21-1.99-1.3-3.71-1.58-2.4-4.6-6.6-7.5-9.69-3.85-4.06-7.22-5.22-12.44-4.88,4.26-2.33,5.22-4.53,5.22-7.01,0-2.13-1.17-4.4-3.1-6.52,2.75.49,10.11,3.51,10.11,7.5,0,.83-.41,1.58-1.24,2.4l17.67,22.14c-.62.96-1.99.55-3.16.55-.76,0-1.24.49-1.24,1.31,0,1.51,1.17,3.37,1.86,4.4-.55.34-1.58.75-2.69.75-1.37,0-2.89-.48-2.89-2.33h0Zm-103.38,67.77c13.34-1.65,31.48-.13,46.33-7.5,6.94-3.44,13.95-9.21,13.95-17.04,0-9.41-11.61-18.7-11.61-38.7,0-13.06,5.77-28.11,21.03-36.29-9.69,8.38-14.3,18.01-14.3,29.69s4.6,24.13,20.14,30.24c11,4.33,21.24,4.47,25.63,13.61-3.91-3.1-8.87-4.12-12.37-4.12-22.34,0-30.8,41.8-56.98,53.68,5.57-14.5-11.2-19.17-26.67-18.83-12.65.28-31.97,3.72-32.17,23.71-3.57-13.4,4.12-25.63,27.01-28.45h.01Zm-53.27-13.75c4.12,0,9.96.96,14.02,4.74-9.62-4.4-23.92-1.51-24.95,10.11-1.65-1.79-2.2-3.98-2.33-5.92-3.57,1.65-6.26,6.6-6.94,11.89-2.82-12.65,7.42-20.82,20.2-20.82Z"/></g></svg>