<?xml version="1.0" encoding="UTF-8"?><svg id="Layer_2" xmlns="http://www.w3.org/2000/svg" viewBox="0 0 548.99 109.69"><g id="Layer_1-2"><path d="m477.16,102.33l-.33-21.41c13.57,8.76,22.67,12.77,33.24,12.77,12.04,0,19.73-4.74,19.73-13.31,0-5.68-3.27-10.1-14.05-14.45l-17.19-6.89c-15.85-6.35-22.94-15.12-22.94-28.83C475.62,11.7,490.07,0,512.34,0c11.64,0,22.61,3.67,28.96,6.69v20.6c-12.04-7.96-20.87-11.24-29.9-11.24-11.24,0-16.79,4.42-16.79,11.17s3.54,10.17,11.97,13.65l21.6,8.76c12.58,5.08,20.8,14.25,20.8,28.22,0,18.33-14.32,31.83-39.8,31.83-13.38,0-24.95-4.21-32.04-7.36h0Z"/><path d="m443.79,54.77c0-23.21-13.17-35.98-37.45-35.98h-12.64v72.1h12.64c24.28,0,37.45-12.77,37.45-36.11h0Zm-69.76,38.33V16.59c0-4.28-1.01-9.16-2.47-15.25h36.11c34.31,0,55.98,21.94,55.98,53.51s-21.67,53.51-55.98,53.51h-36.11c1.47-6.08,2.47-10.97,2.47-15.25Z"/><path d="m300.48,68.76c-16.38-16.72-30.63-39.46-37.85-67.42h22.61c.34,4.82,1.2,9.23,3.01,14.38,5.15,14.72,12.98,27.02,21.94,37.45,9.23-9.96,17.72-22.74,22.88-37.45,1.8-5.15,2.68-9.56,3.01-14.38h21.94c-7.15,27.95-21.47,50.7-37.85,67.42v39.59h-19.67v-39.59h-.01Z"/><path d="m241.43,54.85c0-22.08-13.11-37.32-34.77-37.32s-34.77,15.25-34.77,37.32,13.11,37.32,34.77,37.32,34.77-15.25,34.77-37.32Zm-89.42,0c0-30.57,22.4-54.85,54.64-54.85s54.64,24.28,54.64,54.85-22.4,54.85-54.64,54.85-54.64-24.28-54.64-54.85Z"/><path d="m81.99,93.1V16.59c0-4.28-1.01-9.16-2.47-15.25h24.62c-1.47,6.08-2.47,10.97-2.47,15.25v74.3h26.95c9.03,0,14.72-.4,20.74-2.07l-6.08,19.54h-63.73c1.47-6.08,2.47-10.97,2.47-15.25h-.02Z"/><path d="m2.47,93.1V16.59C2.47,12.31,1.47,7.42,0,1.34h24.62c-1.47,6.08-2.47,10.97-2.47,15.25v74.3h26.95c9.03,0,14.72-.4,20.74-2.07l-6.08,19.54H0c1.47-6.08,2.47-10.97,2.47-15.25h0Z"/></g></svg>