<?xml version="1.0" encoding="UTF-8"?>
<svg id="Layer_2" data-name="Layer 2" xmlns="http://www.w3.org/2000/svg" viewBox="0 0 271.85 135.75">
  <defs>
    <style>
      .cls-1 {
        fill: #fff;
      }

      .cls-2 {
        fill: #317b47;
      }

      .cls-3 {
        fill: #6d6e70;
      }

      .cls-4 {
        fill: #272525;
      }
    </style>
  </defs>
  <rect class="cls-1" x="0" y="0" width="271.84" height="135.75"/>
  <g>
    <rect class="cls-2" x="4.36" y="4.36" width="263.09" height="127"/>
    <path class="cls-1" d="m18.39,77.8v9.91h3.46c1.94,0,3.52-.86,3.52-2.88,0-1.02-.53-1.86-1.47-2.41.58-.3,1.11-1.05,1.11-1.97,0-1.74-1.36-2.66-3.05-2.66h-3.57Zm79.47,0v9.91h1.66v-3.9h1.36l2.16,3.9h1.88l-2.38-4.15c1.16-.44,1.88-1.5,1.88-2.74,0-1.97-1.36-3.02-3.32-3.02h-3.24Zm-53.33,0v6.9l-5.4-6.9h-1.52v9.91h1.66v-7.23l5.62,7.23h1.27v-9.91h-1.63Zm84.12,0v9.91h1.61v-3.54h1.44c1.97,0,3.46-1.22,3.46-3.21s-1.41-3.16-3.35-3.16h-3.16Zm-73.82,0l-4.13,4.65v-4.65h-1.66v9.91h1.66v-4.73l4.21,4.73h2.24l-4.57-5.07,4.35-4.85h-2.1Zm69.55,0v6.29c0,1.3-.75,2.19-2.13,2.19s-2.16-.89-2.16-2.19v-6.29h-1.66v6.34c0,2.27,1.52,3.71,3.82,3.71s3.82-1.44,3.82-3.71v-6.34h-1.69Zm-61.63-32.27c6.29,0,11.29,5,11.29,11.3s-4.94,11.36-11.29,11.36-11.29-5-11.29-11.36,5-11.3,11.29-11.3h0Zm36.1.25v22.11h6.97c6.29,0,11.35-4.69,11.35-11.05s-5.12-11.06-11.35-11.06h-6.97Zm-36.1,18.9c4.32,0,7.47-3.52,7.47-7.84s-3.15-7.78-7.47-7.78-7.53,3.52-7.47,7.78c0,4.32,3.15,7.84,7.47,7.84h0Zm60.48-17.6c-1.54,1.11-2.35,2.72-2.35,4.63,0,3.71,2.9,5.37,5.86,6.3,2.65.86,4.81,1.54,4.81,3.71s-2.04,3.03-3.95,3.03c-2.47,0-4.81-.99-6.23-1.91l-.12-.06v3.77h.06c1.3.74,3.7,1.61,6.36,1.61,3.89,0,7.53-2.53,7.53-6.55,0-3.71-2.53-5.5-6.05-6.61-3.64-1.11-4.75-1.91-4.75-3.34,0-2.04,2.1-2.66,4.01-2.66,1.48,0,3.46.37,5.24,1.24h.06v-3.52c-1.67-.74-3.46-1.11-5.55-1.11-1.85,0-3.64.56-4.94,1.48h0Zm-17.4,2.29c4.38,0,7.47,3.21,7.47,7.47s-3.09,7.53-7.47,7.53h-3.27v-15.01h3.27Zm-14.19-3.58l-5.92,10.19-6.36-10.19h-4.38l8.58,13.46-5.24,8.65h4.2l13.33-22.11h-4.2Zm-55.41,0v22.11h13.95v-3.64h-10.18v-18.47h-3.77Zm-17.89,0v22.11h13.95v-3.64h-10.18v-18.47h-3.76Zm40.25,32.02v9.91h1.69v-9.91h-1.69Zm-36.5,5.59c.94,0,1.58.55,1.58,1.38,0,.89-.67,1.41-1.88,1.41h-1.72v-2.8h2.02Zm109.65-4.01c1.08,0,1.74.64,1.74,1.61s-.69,1.55-1.86,1.55h-1.36v-3.16h1.47Zm-30.71-.03c1,0,1.72.44,1.72,1.47,0,.97-.66,1.47-1.63,1.47h-1.58v-2.94h1.5Zm-79.19-.03c.8,0,1.52.42,1.52,1.25s-.61,1.33-1.44,1.33h-1.86v-2.58h1.77Zm48.24-1.52v6.9l-5.4-6.9h-1.52v9.91h1.63v-7.23l5.65,7.23h1.27v-9.91h-1.63Zm-35.78,9.91h1.8l-4.07-9.94h-1.66l-4.01,9.94h1.77l1.05-2.71h4.04l1.08,2.71Zm-3.07-7.95l1.41,3.71h-2.88l1.47-3.71Zm80.02-2.07c2.85,0,5.07,2.24,5.07,5.07s-2.22,5.1-5.07,5.1-5.07-2.24-5.07-5.1,2.22-5.07,5.07-5.07h0Zm0,8.58c1.94,0,3.35-1.58,3.35-3.52s-1.41-3.49-3.35-3.49-3.38,1.58-3.35,3.49c0,1.94,1.41,3.52,3.35,3.52h0Zm-16.25-8.2c-.5-.17-1.33-.36-2.22-.36-3.07,0-5.37,2.05-5.37,5.04s2.05,5.1,5.29,5.1c.83,0,1.91-.19,2.52-.36h.03v-5.01h-1.63v3.74c-.22.03-.61.08-.97.08-2.1,0-3.52-1.61-3.52-3.54-.03-1.91,1.47-3.43,3.66-3.43.72,0,1.55.19,2.22.42v-1.66Zm-13.56,0c-.5-.17-1.33-.36-2.22-.36-3.07,0-5.37,2.05-5.37,5.04s2.05,5.1,5.29,5.1c.83,0,1.91-.19,2.52-.36h.03v-5.01h-1.63v3.74c-.22.03-.61.08-.97.08-2.1,0-3.52-1.61-3.52-3.54-.03-1.91,1.47-3.43,3.66-3.43.72,0,1.55.19,2.22.42v-1.66Z"/>
    <g>
      <rect class="cls-1" x="149.2" y="13.13" width="109.45" height="109.45"/>
      <g>
        <path class="cls-4" d="m244.76,69.62c1.68,1.23,3.41,2.13,3.41,4.08,0,.57-.73,1.13-2.35,1.13-1.23,0-2.57-.34-3.19-1.24-.5-.67.22-1.57-.22-2.24-.34-.56-1.12-.28-1.62-.56-.61-.34-.67-.62-1.06-1.45-.45-1.01-1.96-2.69-3.75-4.48-1.51-1.51-3.13-2.29-3.86-2.24-.51.06-.68.06-1.18.06-1.29,0-2.41,1.23-4.25,2.01-1.28.56-2.01.9-2.85,1.01l-.28.34,1.68-.06c1.57,0,3.64-.22,5.2-.22s2.41,1.45,3.03,2.96c1.23,3.08,3.08,7.5,5.26,11.19,1.06,1.73,1.96,2.85,1.96,4.99,0,.67-.06,1.57-.95,1.57-1.23,0-4.36-1.29-4.36-2.69,0-1.07.84-1.51.84-2.58,0-.67-1.01-.56-1.23-1.17-.78-3.3-1.73-6.55-3.59-8.51-.95-1.01-1.06-1.45-2.01-1.45-.5,0-1.01.11-1.46.28-2.57.95-5.98,3.81-10.24,5.1-1.62.5-1.9-.45-3.58-.11h.11c-1.35.28-2.41,1.06-4.26,1.57-2.57.73-6.99,1.06-10.52.62-2.52-.34-5.77-.84-7.17-.78-1.06,3.08-3.36,7.11-6.71,8.68-1.79.78-2.35,1.9-1.79,3.91.67,2.52,2.91,4.37,4.08,6.49,1.06,1.84,2.8,4.76,4.64,5.71,1.85.95,2.97,2.35,2.97,3.52,0,.56-.23.9-.79.9h-3.69c-.56,0-.84-.34-.95-.56-.5-.95-.17-1.84-.84-2.68-.51-.61-.9-.45-1.51-.95-1.12-1.06-.28-1.68-1.12-3.03-2.35-3.69-3.36-4.58-5.31-7.22-1.12-1.4-2.46-2.07-2.46-3.91,0-2.23,2.24-2.63,2.18-4.87-1.45,1.07-3.13,1.91-5.71,2.25-.34.06-1.23.73-1.62,1.17-.89.89-1.23,1.79-1.34,3.13-.28,3.02-.89,6.1-.5,9.11.5,1.96.84,2.64,2.46,3.7,1.01.67,2.18,1.62,2.29,3.02,0,.39-.11.84-.67.84h-3.97c-.39,0-.73-.28-.84-.5-.45-.78-.17-1.34-.33-2.24-.39-1.84-2.46-1.73-2.46-3.63,0-.57.33-1.29.39-2.47.11-2.57.9-6.71.11-11.74-.33-2.92,2.69-3.03,4.25-5.6.95-1.46.67-.84,1.23-1.9.56-1.12.45-1.9.39-2.57,0-.84-.84-2.64-.28-6.27.22-1.62,1.01-3.24,2.07-4.64,0-.06,0-.28-.34-.28-1.57.11-1.57-.28-2.63-.28-1.01,0-1.79.84-1.96,1.28-.5-.22-.73-.78-.73-1.12,0-.56.11-1.06.67-1.62.22-.22,0-.33-.28-.33-1.23,0-2.41,1.51-2.69,2.57-.73-.11-.78-1.06-1.12-1.06s-.56.51-.56,1.01c0,3.58,5.82,4.36,5.82,9.06,0,5.43-6.55,4.31-6.55,6.27,0,.39.28.73.79.95-.22.5-.79.73-1.4.73-1.45,0-2.52-1.06-2.52-2.52,0-2.97,3.97-3.02,3.97-5.27,0-1.06-.67-1.4-1.29-1.9-3.8-2.69-5.93-5.37-5.93-9.79,0-4.76,3.3-8.4,7.61-8.4,6.26,0,6.43,7.22,12.15,7.84,2.12-1.45,4.64-2.29,7.1-2.29,3.69,0,5.31.95,9.24.95,1.57,0,4.2-.45,7.33-2.57,1.18-.78,1.68-.95,2.74-1.91,2.46-2.13,4.76-6.27,4.76-9.23v.17c0-.95-.22-1.51-.67-1.51-1.34,0-2.52,1.23-3.86,2.52-.84.89.45,1.28-1.45,2.35-.67.34-1.45-.28-2.18-.28-1.51,0-2.18-1.79-2.18-3.36,0-.78.62-1.01.95-1.73.79-1.51.73-2.07,1.46-3.58.45-1.01,1.23-1.68,1.18-2.41,0-.28-.22-.45-.22-.73,0-1.52,2.01-2.52,2.01-4.03,0-.84-.95-1.23-1.18-1.9-.22-.67-.06-.84-.06-.84.06-.11.17-.17.28-.17.78,0,1.12.84,1.85,1.29.06-1.01-.28-1.23-.28-1.96,0-.39-.06-1.01.34-1.01.5,0,.45.67.9,1.01.56.45,1.06.39,1.68.78.78.5,1.23,1.34,1.51,1.4.78.11,1.01-.84.62-1.4.89-.06,1.79.67,2.97.67,1.85,0,2.46.5,2.8.78,1.18,1.01,1.4,1.79,2.68,1.79.67,0,1.01-.56,1.18-.78.9.67.95,2.35,0,3.75.39,1.18,2.07,1.29,2.85,1.85.78.56.67.84,1.23,1.18.45.28.84.22,1.18,0,.39,1.56-.95,2.96-2.57,3.19.06,2.02,2.18,3.25,3.13,3.75-.56,1.23-1.57,1.62-2.46,1.85.28,1.23,1.62,3.02.95,4.64-.61-.28-1.51,0-1.51.89,0,1.01,1.29,1.52-.06,2.25-.62.34-.73,1.23.39,2.07,1.46-.39,2.85-.34,4.47-.34,1.01,0,2.35-.28,3.25-.28,1.69,0,2.69.67,3.92,2.01,3.08,3.35,5.87,6.88,9.06,9.29Z"/>
        <path class="cls-3" d="m161.72,60.67c.67,0,1.9-3.69,4.42-3.69.73,0,.9.28.9.56,0,.5-.84.95-.84,1.62,0,.11.06.28.28.28.62,0,1.06-1.34,3.58-1.34.67,0,1.23.06,1.85.22.28.06.84.34.62-.45-.62-1.73-2.52-3.36-5.2-3.36s-5.48,2.42-5.82,5.32c-.06.5-.06.84.22.84h0Z"/>
        <path class="cls-3" d="m208.16,37.61c-.73-.29-.84-.68-.61-1.57.17-.95.22-1.34-.22-1.46-.39-.11-.9.11-1.4.67-.45.61-1.18,1.34-1.4,1.96-.22.79.73.68.06,1.96-1.18,2.13-1.46,2.57-2.02,4.08-.5,1.57-.89,1.79-1.17,2.29-.34.45.45.5,1.34.23.95-.34,1.01.78.67,1.56-.28.56-.06.78.73.17.73-.56-.39-1.01-.11-2.8.28-1.62.61-2.52,1.62-4.14.84-1.4,1.57-2.41,3.02-1.9.56.28.28-.73-.5-1.06h0Z"/>
        <path class="cls-3" d="m239.28,85.13c.28,0,.34-.39.34-.73,0-.78-.45-1.96-1.06-2.46-.17,1.18-.73,1.96-.73,2.46,0,.4,1.06.73,1.45.73h0Z"/>
        <path class="cls-3" d="m246.22,73.87c.45,0,1.12-.17,1.12-.51,0-.67-1.01-1.85-1.9-2.12.62,1.17,0,2.63.78,2.63h0Z"/>
        <path class="cls-3" d="m215.5,58.6c6.32,2.91,5.93,8.22,6.49,6.88.22-.56,1.06-3.19-1.18-5.7-1.73-2.01-2.4-1.51-1.73-3.19,2.74-6.66,4.48-16.74-3.75-20.27-.95-.39-1.74-.39-1.74-.22s.9.45,1.96,1.17c5.48,3.64,3.8,13.54-1.23,18.36-1.68,1.63-.9,2.02,1.17,2.97h0Z"/>
        <path class="cls-3" d="m193.89,104.98c.45,0,.22-.67.06-.95-.39-.67-1.12-1.12-1.73-1.4.17.67.22,2.35.9,2.35h.78Z"/>
        <path class="cls-3" d="m174.81,104.98c.45,0,.11-.67-.06-.95-.39-.67-1.18-1.06-1.79-1.34.17.67.28,2.29.95,2.29h.9Z"/>
        <path class="cls-3" d="m197.93,67.1c3.47-.39,4.03-1.17,4.64-3.8.28-1.23,1.18-2.52,1.96-3.36.5-.56,1.01-1.01,1.51-1.85.17-.34.28-.61,0-.5-.39.28-1.57,1.06-2.07,1.45-2.46,1.73-6.21,2.57-7.72,2.57-3.2,0-5.94-.95-8.85-.95-8.73,0-11.98,6.83-11.53,10.8.06.62.17.67.39.67.62,0,1.13-2.35,3.31-4.42,3.19-3.02,6.66-4.76,11.58-4.76,3.58,0,5.04,1.18,5.04,1.62,0,.89-1.52.95-1.4,1.85,0,.28.84.95,3.14.67h0Z"/>
      </g>
    </g>
  </g>
</svg>