<?xml version="1.0" encoding="UTF-8"?>
<svg id="Layer_1" data-name="Layer 1" xmlns="http://www.w3.org/2000/svg" xmlns:xlink="http://www.w3.org/1999/xlink" viewBox="0 0 300.1 250.4">
  <defs>
    <style>
      .cls-1 {
        fill: #0a2f46;
      }

      .cls-2 {
        fill: url(#linear-gradient);
      }
    </style>
    <linearGradient id="linear-gradient" x1="2.99" y1="1.91" x2="299.89" y2="250.81" gradientUnits="userSpaceOnUse">
      <stop offset="0" stop-color="#ffdfc8"/>
      <stop offset="1" stop-color="#dbdbf8"/>
    </linearGradient>
  </defs>
  <path class="cls-2" d="M0,0v250.4h300.1V0H0ZM158.8,223.2l8.2-19.5h5.7l-8.2,19.5h-5.7ZM175.4,208.1l3.1,7.3h-6.1l3-7.3ZM175.6,223.2l-1.9-4.5h6.1l1.9,4.5h-6.1Z"/>
  <path class="cls-1" d="M198,213.6v9.6h-4.2v-8.3c0-2-.9-3-2.6-3s-2.6,1-2.6,3v8.3h-4.2v-14.9h3.3l.9,2.1c1-1.2,2.2-2.4,4.4-2.4,3.2,0,5,2.1,5,5.5v.1ZM212.6,209.8c1.1,1.1,1.6,2.7,1.6,4.7v8.6h-3.4l-.7-1.6c-1,1.1-2.4,1.9-4.5,1.9s-5.1-1.6-5.1-4.5h0c0-3.3,2.5-4.8,6-4.8s2.6.2,3.6.6v-.2c0-1.7-1.1-2.7-3.2-2.7s-2.6.3-3.8.7l-1.3-3.1c1.6-.7,3.2-1.2,5.8-1.2s4,.6,5,1.7v-.1ZM210.2,217.2c-.7-.3-1.7-.6-2.7-.6-1.8,0-2.9.7-2.9,2.1h0c0,1.2.9,1.9,2.3,1.9,2,0,3.3-1.1,3.3-2.6v-.8ZM233,215.7h0c0,5-3.2,7.7-6.8,7.7s-3.6-1-4.6-2.2v6.6h-4.2v-19.5h3.3l.9,2.1c1-1.4,2.4-2.4,4.6-2.4,3.5,0,6.8,2.7,6.8,7.7h0ZM228.8,215.7c0-2.5-1.7-4.1-3.6-4.1s-3.6,1.6-3.6,4.1h0c0,2.5,1.6,4.2,3.6,4.2s3.6-1.6,3.6-4.1h0v-.1ZM267.8,208.1c-2.1,0-3.4,1.1-4.4,2.4l-.9-2.1h-3.3v14.9h4.2v-8.3c0-2,1-3,2.6-3s2.6,1,2.6,3v8.3h4.2v-9.6c0-3.4-1.9-5.5-5-5.5v-.1ZM254.4,209.8c1.1,1.1,1.6,2.7,1.6,4.7v8.6h-3.4l-.7-1.6c-1,1.1-2.4,1.9-4.5,1.9s-5.1-1.6-5.1-4.5h0c0-3.3,2.5-4.8,6-4.8s2.6.2,3.6.6v-.2c0-1.7-1.1-2.7-3.2-2.7s-2.6.3-3.8.7l-1.3-3.1c1.6-.7,3.2-1.2,5.8-1.2s4,.6,5,1.7v-.1ZM252,217.2c-.7-.3-1.7-.6-2.7-.6-1.8,0-2.9.7-2.9,2.1h0c0,1.2.9,1.9,2.3,1.9,2,0,3.3-1.1,3.3-2.6v-.8ZM235.6,223.2h4.2v-19.5h-4.2v19.5Z"/>
</svg>