<?xml version="1.0" encoding="UTF-8"?>
<svg id="Layer_1" xmlns="http://www.w3.org/2000/svg" version="1.1" viewBox="0 0 100 36">
  <!-- Generator: Adobe Illustrator 29.5.1, SVG Export Plug-In . SVG Version: 2.1.0 Build 141)  -->
  <defs>
    <style>
      .st0 {
        fill: #ff4e05;
      }

      .st1 {
        fill: #eafee8;
      }
    </style>
  </defs>
  <rect class="st0" y="0" width="100" height="36" rx="18" ry="18"/>
  <g>
    <path class="st1" d="M19.4,13.1h3.6c2.1,0,3.3.8,3.3,2.4s-.4,1.8-1.5,2.2h0c1.3.3,2,1.2,2,2.5s-1.1,2.7-3.3,2.7h-4.1v-9.9ZM22.8,17.2c.9,0,1.4-.4,1.4-1.2s-.4-1.2-1.5-1.2h-1.4v2.3h1.5ZM23.2,21.3c.9,0,1.5-.4,1.5-1.3s-.6-1.3-1.7-1.3h-1.7v2.5h1.8Z"/>
    <path class="st1" d="M27.9,19.7c0-2,1.5-3.5,3.6-3.5s3.6,1.4,3.6,3.5-1.5,3.5-3.6,3.5-3.6-1.5-3.6-3.5ZM33.3,19.7c0-1.1-.8-1.9-1.8-1.9s-1.8.8-1.8,1.9.7,1.9,1.8,1.9,1.8-.8,1.8-1.9Z"/>
    <path class="st1" d="M36.2,19.7c0-2,1.5-3.5,3.6-3.5s3.6,1.4,3.6,3.5-1.5,3.5-3.6,3.5-3.6-1.5-3.6-3.5ZM41.6,19.7c0-1.1-.8-1.9-1.8-1.9s-1.8.8-1.8,1.9.7,1.9,1.8,1.9,1.8-.8,1.8-1.9Z"/>
    <path class="st1" d="M44.9,12.8h1.8v6.3h0l2.4-2.9h2.2l-2.4,2.7,2.5,4.1h-2.1l-1.7-2.9-.9,1v1.9h-1.8v-10.3Z"/>
    <path class="st1" d="M56,16.2h1.8v.9h0c.5-.6,1.3-1,2.2-1,1.5,0,2.5.8,2.5,2.9v4.1h-1.8v-3.6c0-1.3-.5-1.7-1.3-1.7s-1.5.6-1.5,1.9v3.4h-1.8v-6.8Z"/>
    <path class="st1" d="M63.9,19.7c0-2,1.5-3.5,3.6-3.5s3.6,1.4,3.6,3.5-1.5,3.5-3.6,3.5-3.6-1.5-3.6-3.5ZM69.3,19.7c0-1.1-.8-1.9-1.8-1.9s-1.8.8-1.8,1.9.7,1.9,1.8,1.9,1.8-.8,1.8-1.9Z"/>
    <path class="st1" d="M71.7,16.2h1.8l1.3,4.2h0l1.2-4.2h1.5l1.2,4.2h0l1.3-4.2h1.8l-2.3,6.8h-1.6l-1.2-4.2h0l-1.2,4.2h-1.6l-2.3-6.8Z"/>
  </g>
</svg>