<?xml version="1.0" encoding="UTF-8"?>
<svg xmlns="http://www.w3.org/2000/svg" version="1.1" viewBox="0 0 274.8 162.5">
  <defs>
    <style>
      .cls-1 {
        fill: #131e29;
      }

      .cls-2 {
        fill: #ff4713;
      }
    </style>
  </defs>
  <!-- Generator: Adobe Illustrator 28.7.7, SVG Export Plug-In . SVG Version: 1.2.0 Build 194)  -->
  <g>
    <g id="Positive">
      <g id="Primary">
        <path class="cls-2" d="M214.1,21.8l46.8,125.4-78.6-40,31.8-85.4M214.1,0l-41.3,110.8,102,51.9L214.1,0h0Z"/>
        <g>
          <path class="cls-1" d="M11.8,109.8h-3.9l-7.9,21.2h4.4l1.4-4.2h8.1l1.4,4.2h4.4l-7.9-21.2ZM9.9,123.1h-2.8l2.8-8.3h0l2.8,8.3h-2.8Z"/>
          <path class="cls-1" d="M55,109.8h-3.9l-7.9,21.2h4.4l1.4-4.2h8.1l1.4,4.2h4.4l-7.9-21.2ZM53.1,123.1h-2.8l2.8-8.3h0l2.8,8.3h-2.8Z"/>
          <path class="cls-1" d="M86.9,109.8v21.2h-4.3l-9.3-14h0v14h-4.2v-21.2h4.2l9.4,14.3h0v-14.3h4.2Z"/>
          <path class="cls-1" d="M99.4,113.5h-5.8v-3.8h15.9v3.8h-5.9v17.4h-4.2v-17.4Z"/>
          <path class="cls-1" d="M116.6,109.8h4.2v21.2h-4.2v-21.2Z"/>
          <path class="cls-1" d="M29.6,131h3.7l7.9-21.2h-4.5l-5.2,15.2h0l-5.2-15.2h-4.5l7.9,21.2h3.7"/>
        </g>
        <g>
          <g>
            <g>
              <path class="cls-1" d="M176.1,159.6l.7-1.8c1.4,1.8,3.6,3.4,6.7,3.4s5-1.5,5-3.8-2.4-3.7-5.3-4.8c-3-1.1-6.3-2.3-6.3-5.8s2.7-5.3,6.3-5.3,4.5.8,6.4,2.4l-.6,1.7c-1.6-1.5-3.8-2.4-5.8-2.4s-4.4,1.2-4.4,3.6c0,2.5,2.3,3.2,5,4.3,3.5,1.4,6.5,2.3,6.5,6.2s-3,5.7-6.8,5.7-5.3-1-7.4-3.2Z"/>
              <path class="cls-1" d="M202.3,143.4h-6.6v-1.6h15v1.6h-6.7v19.1s-1.7,0-1.7,0v-19.1Z"/>
            </g>
            <path class="cls-1" d="M167.3,157.1h-9.9l-2,5.4h-1.8l7.7-20.7h2.1l7.7,20.7h-1.8l-2-5.4ZM166.7,155.5l-4.3-11.6h0l-4.3,11.6h8.7Z"/>
            <path class="cls-1" d="M128.6,152.1c0-6,4.2-10.7,10.5-10.7s10.5,4.3,10.5,10.7-4.6,10.7-10.5,10.7-10.5-4.7-10.5-10.7ZM147.7,152.1c0-5.4-3.9-9-8.7-9s-8.7,4.1-8.7,9,3.5,9.1,8.7,9.1,8.7-3.7,8.7-9.1Z"/>
            <path class="cls-1" d="M115.5,162.9c-5.7,0-10.4-3.7-10.4-10.6s3.7-10.8,10.4-10.8,5.9,1.2,8.1,4l-1.3,1.1c-1.8-2.3-4.3-3.4-6.8-3.4-5.5,0-8.6,3.9-8.6,9.2s3.8,8.9,8.6,8.9,5.3-1.4,6.8-3.4l1.3,1.1c-1.8,2.3-4.4,4-8.1,4h0Z"/>
          </g>
          <g>
            <path class="cls-1" d="M54.5,159.6l.7-1.8c1.4,1.8,3.6,3.4,6.7,3.4s5-1.5,5-3.8-2.4-3.7-5.3-4.8c-3-1.1-6.3-2.3-6.3-5.8s2.7-5.3,6.3-5.3,4.5.8,6.4,2.4l-.6,1.7c-1.6-1.5-3.8-2.4-5.8-2.4s-4.4,1.2-4.4,3.6c0,2.5,2.3,3.2,5,4.3,3.5,1.4,6.5,2.3,6.5,6.2s-3,5.7-6.8,5.7-5.3-1-7.4-3.2Z"/>
            <path class="cls-1" d="M80.7,143.4h-6.6v-1.6h15v1.6h-6.7v19.1s-1.7,0-1.7,0v-19.1Z"/>
            <path class="cls-1" d="M35.5,141.8h13.3s0,1.6,0,1.6h-11.6s0,7.9,0,7.9h9.7s0,1.6,0,1.6h-9.7s0,8,0,8h11.6v1.6h-13.3v-20.7Z"/>
            <path class="cls-1" d="M29.8,141.8l-7.2,20.7h-1.9l-5.8-18.2h0l-5.7,18.2h-1.9l-7.3-20.7h1.9l6.3,17.9h0l5.6-17.9h2l5.7,18h0l6.2-18h1.9Z"/>
          </g>
        </g>
      </g>
    </g>
  </g>
</svg>