<?xml version="1.0" encoding="utf-8"?>
<!-- Generator: Adobe Illustrator 27.3.0, SVG Export Plug-In . SVG Version: 6.00 Build 0)  -->
<svg version="1.1" id="Layer_1" xmlns="http://www.w3.org/2000/svg" xmlns:xlink="http://www.w3.org/1999/xlink" x="0px" y="0px"
	 viewBox="0 0 518 212.4" style="enable-background:new 0 0 518 212.4;" xml:space="preserve">
<style type="text/css">
	.st0{enable-background:new    ;}
	.st1{fill:#FF4A4B;}
</style>
<g id="End_Lockup" transform="translate(1.909)">
	<g class="st0">
		<path class="st1" d="M81.7,143.2H43L37.8,162H-0.9L41.2,38.9h42.3L125.6,162H86.9L81.7,143.2z M74.4,117.6l-12-43.4l-12.1,43.4
			H74.4z"/>
		<path class="st1" d="M197.1,76.5l-2.4,31.3c-3.4-0.6-7.6-1.5-12.3-1.5c-10.9,0-17.3,6.3-17.3,19.6V162h-35.6V77.8h31.1l4.4,16
			c5.5-12.5,14.4-18.5,24.5-18.5C192.4,75.3,194.6,75.7,197.1,76.5z"/>
		<path class="st1" d="M198,119.9c0-24.5,15.2-44.5,49.6-44.5c34.2,0,49.6,20.1,49.6,44.5c0,24.5-15.4,44.6-49.6,44.6
			C213.3,164.4,198,144.3,198,119.9z M261.7,119.9c0-10.5-5.8-17.3-14.1-17.3c-8.4,0-14.3,6.8-14.3,17.3c0,10.7,5.8,17.5,14.3,17.5
			C255.9,137.4,261.7,130.6,261.7,119.9z"/>
		<path class="st1" d="M399.2,111.3V162h-35.6v-44.1c0-12.2-2.9-16.5-10-16.5c-8.7,0-11.2,7.5-11.2,16.8V162h-35.6V77.8h31.8l3.7,12
			c6-9.1,15.6-14.4,27.9-14.4C390.6,75.3,399.2,90.2,399.2,111.3z"/>
		<path class="st1" d="M507.8,77.8V162h-33.2l-2.4-13.4c-4.4,7.8-12.3,15.9-26.7,15.9c-19.6,0-37.3-14.7-37.3-44.4
			c0-27.4,15.4-44.7,36.1-44.7c14.1,0,23.3,8.4,27.9,17.2V77.8H507.8z M472.9,119.9c0-10.4-5.7-17.3-14.3-17.3
			c-8.6,0-14.3,7-14.3,17.3c0,10.5,5.7,17.5,14.3,17.5C467.3,137.4,472.9,130.2,472.9,119.9z"/>
	</g>
	<g class="st0">
		<path class="st1" d="M433.3,57.5l3.9-3.9c0.9,1.1,2.9,2.4,5.3,2.4c1.6,0,2.7-0.5,2.7-1.6c0-1-0.9-1.3-2-1.7l-2.5-0.8
			c-3.9-1.2-7.2-2.8-7.2-7.1c0-4.4,3.8-6.8,9-6.8c5.3,0,8.2,2.5,8.8,3.1l-3.6,4.1c-1.1-1.1-2.6-2.3-4.9-2.3c-1.7,0-2.4,0.7-2.4,1.4
			c0,1,1.4,1.5,2.3,1.8l2.6,0.8c2.6,0.8,6.7,2.2,6.7,6.9c0,4.5-3.8,7.1-9.3,7.1C438.9,60.9,435.4,59.6,433.3,57.5z"/>
		<path class="st1" d="M468.6,55.1v5.3h-14v-22h13.9v5.3h-7.3v2.9h6.6v4.8h-6.6v3.7H468.6z"/>
		<path class="st1" d="M484.5,57.1h-6.9l-0.9,3.4h-6.9l7.5-22h7.6l7.5,22h-6.9L484.5,57.1z M483.2,52.5l-2.1-7.8l-2.2,7.8H483.2z"/>
		<path class="st1" d="M508.1,43.8h-5.4v16.7h-6.6V43.8h-5.4v-5.3h17.5V43.8z"/>
	</g>
	<g class="st0">
		<path class="st1" d="M21.2,181.1v24.3H14L7,191.7v13.7h-7.2v-24.3H7l6.9,13.7v-13.7H21.2z"/>
		<path class="st1" d="M24,197.1c0-4.8,3-8.8,9.8-8.8c6.8,0,9.8,4,9.8,8.8s-3,8.8-9.8,8.8C27.1,205.9,24,201.9,24,197.1z
			 M36.6,197.1c0-2.1-1.2-3.4-2.8-3.4c-1.7,0-2.8,1.3-2.8,3.4c0,2.1,1.2,3.5,2.8,3.5C35.5,200.5,36.6,199.2,36.6,197.1z"/>
		<path class="st1" d="M52.5,193.2c0-7,5-12.6,12.7-12.6c7.6,0,12.7,5.6,12.7,12.6s-5,12.6-12.7,12.6
			C57.5,205.9,52.5,200.2,52.5,193.2z M70.3,193.2c0-3.6-2.3-5.9-5.1-5.9c-2.8,0-5.2,2.3-5.2,5.9s2.3,5.9,5.2,5.9
			C68.1,199.1,70.3,196.8,70.3,193.2z"/>
		<path class="st1" d="M93.8,188.5l-0.5,6.2c-0.7-0.1-1.5-0.3-2.4-0.3c-2.1,0-3.4,1.2-3.4,3.9v7.1h-7v-16.6h6.1l0.9,3.2
			c1.1-2.5,2.8-3.6,4.8-3.6C92.9,188.3,93.4,188.3,93.8,188.5z"/>
		<path class="st1" d="M114.5,181.1v24.3h-6.6l-0.5-2.7c-0.9,1.5-2.4,3.1-5.3,3.1c-3.8,0-7.4-2.9-7.4-8.8c0-5.4,3-8.8,7.1-8.8
			c2.8,0,4.6,1.7,5.5,3.4v-10.6H114.5z M107.6,197.1c0-2-1.1-3.4-2.8-3.4s-2.8,1.4-2.8,3.4c0,2.1,1.2,3.5,2.8,3.5
			C106.5,200.5,107.6,199.1,107.6,197.1z"/>
		<path class="st1" d="M117.6,183c0-2,1.7-3.7,3.7-3.7s3.7,1.6,3.7,3.7s-1.6,3.7-3.7,3.7S117.6,185,117.6,183z M117.8,188.7h7v16.6
			h-7V188.7z"/>
		<path class="st1" d="M146.3,195.4v10h-7v-8.7c0-2.4-0.6-3.3-2-3.3c-1.7,0-2.2,1.5-2.2,3.3v8.6h-7v-16.6h6.3l0.7,2.4
			c1.2-1.8,3.1-2.8,5.5-2.8C144.6,188.3,146.3,191.2,146.3,195.4z"/>
		<path class="st1" d="M168.5,188.7v16.6H162l-0.5-2.7c-0.9,1.5-2.4,3.1-5.3,3.1c-3.9,0-7.4-2.9-7.4-8.8c0-5.4,3-8.8,7.1-8.8
			c2.8,0,4.6,1.7,5.5,3.4v-2.9H168.5z M161.6,197.1c0-2-1.1-3.4-2.8-3.4s-2.8,1.4-2.8,3.4c0,2.1,1.1,3.5,2.8,3.5
			S161.6,199.1,161.6,197.1z"/>
		<path class="st1" d="M185,188.5l-0.5,6.2c-0.7-0.1-1.5-0.3-2.4-0.3c-2.1,0-3.4,1.2-3.4,3.9v7.1h-7v-16.6h6.1l0.9,3.2
			c1.1-2.5,2.8-3.6,4.8-3.6C184,188.3,184.5,188.3,185,188.5z"/>
		<path class="st1" d="M205.6,188.7l-9.4,23.2h-6.1l2.2-5.3l-7.3-17.9h7.5l2.8,10.5l2.9-10.5H205.6z"/>
		<path class="st1" d="M236.4,193.2c0,6.7-4.9,12.2-13.4,12.2h-9.2v-24.3h9.2C231.5,181.1,236.4,186.5,236.4,193.2z M228.8,193.2
			c0-4.4-2.5-6.2-6.5-6.2H221v12.5h1.3C226.2,199.5,228.8,197.7,228.8,193.2z"/>
		<path class="st1" d="M252.3,188.5l-0.5,6.2c-0.7-0.1-1.5-0.3-2.4-0.3c-2.1,0-3.4,1.2-3.4,3.9v7.1h-7v-16.6h6.1l0.9,3.2
			c1.1-2.5,2.8-3.6,4.8-3.6C251.4,188.3,251.8,188.3,252.3,188.5z"/>
		<path class="st1" d="M254.1,183c0-2,1.7-3.7,3.7-3.7c2,0,3.7,1.6,3.7,3.7s-1.6,3.7-3.7,3.7C255.8,186.7,254.1,185,254.1,183z
			 M254.3,188.7h7v16.6h-7V188.7z"/>
		<path class="st1" d="M283.3,188.7l-6.7,16.6h-7.2l-6.8-16.6h7.5l2.9,10.8l2.8-10.8H283.3z"/>
		<path class="st1" d="M302.2,198.6h-12c0.2,1.8,1.5,2.7,3.6,2.7c2.2,0,3.8-1.1,4.4-1.7l3.6,3.2c-2.3,2-5.2,3-8.5,3
			c-6.7,0-10.1-3.8-10.1-8.8c0-4.9,3.3-8.8,9.7-8.8c5.9,0,9.4,3.3,9.4,8.9C302.3,197.7,302.3,198.2,302.2,198.6z M290.2,195.5h5.4
			c-0.2-1.7-1.1-2.7-2.6-2.7C291.5,192.8,290.4,193.8,290.2,195.5z"/>
	</g>
</g>
</svg>
