<svg xmlns="http://www.w3.org/2000/svg" width="72.984" height="73.974" viewBox="0 0 72.984 73.974">
  <g id="Group_8" data-name="Group 8" transform="translate(-857.592 -150.404)">
    <g id="Group_7" data-name="Group 7" transform="translate(857.592 150.404)">
      <path id="Path_212" data-name="Path 212" d="M122.539,168l14.73,14.181h25.352L149.2,168Z" transform="translate(-122.539 -154.763)" fill="#fff"/>
      <path id="Path_213" data-name="Path 213" d="M137.388,317.389l-14.7,14.148h26.655l13.394-14.148Z" transform="translate(-122.658 -271.235)" fill="#fff"/>
      <path id="Path_214" data-name="Path 214" d="M131.51,244.393V249.9h-4.573v-5.506h-3.118v13.432h3.118v-5.092h4.573v5.092h3.137V244.393Z" transform="translate(-123.537 -214.323)" fill="#fff"/>
      <path id="Path_215" data-name="Path 215" d="M242.122,244.393h-3.137v13.432h8v-2.833h-4.867Z" transform="translate(-213.327 -214.324)" fill="#fff"/>
      <rect id="Rectangle_33" data-name="Rectangle 33" width="3.175" height="13.432" transform="translate(35.118 30.07)" fill="#fff"/>
      <path id="Path_216" data-name="Path 216" d="M307.583,247.226h5.91v-2.834h-9.047v13.433h3.137v-5.093h4.9V249.9h-4.9Z" transform="translate(-264.364 -214.323)" fill="#fff"/>
      <path id="Path_217" data-name="Path 217" d="M182.116,244.394l-4.542,13.432H180.8l.769-2.441h4.53l.768,2.441h3.225l-4.537-13.432Zm.286,8.339,1.43-4.542,1.43,4.542Z" transform="translate(-165.447 -214.324)" fill="#fff"/>
      <path id="Path_218" data-name="Path 218" d="M365.344,244.394h-3.559l-2.528,4.058-2.529-4.058H353.17l4.381,6.716-4.054,6.214-4.367-12.93h-3.437l-4.541,13.432h3.224l.769-2.441h4.53l.768,2.441h6.286l2.529-4.058,2.528,4.058h3.559l-4.38-6.716Zm-19.365,8.339,1.43-4.542,1.43,4.542Z" transform="translate(-292.982 -214.324)" fill="#fff"/>
      <path id="Path_219" data-name="Path 219" d="M303.36,168l-8.315,8.632,5.253,5.549h14.99L330.018,168Z" transform="translate(-257.034 -154.763)" fill="#fff"/>
      <path id="Path_220" data-name="Path 220" d="M300.3,317.389l-5.253,5.549,8.284,8.6h26.656l-14.7-14.148Z" transform="translate(-257.035 -271.235)" fill="#fff"/>
      <path id="Path_239" data-name="Path 239" d="M131.51,244.393V249.9h-4.573v-5.506h-3.118v13.432h3.118v-5.092h4.573v5.092h3.137V244.393Z" transform="translate(-100.042 -244.393)" fill="#fff" opacity="0"/>
      <path id="Path_242" data-name="Path 242" d="M131.51,244.393V249.9h-4.573v-5.506h-3.118v13.432h3.118v-5.092h4.573v5.092h3.137V244.393Z" transform="translate(-123.537 -183.851)" fill="#fff" opacity="0"/>
    </g>
  </g>
</svg>
