<?xml version="1.0" encoding="UTF-8"?><svg id="Layer_1" xmlns="http://www.w3.org/2000/svg" viewBox="0 0 878.66 164.1"><defs><style>.cls-1{fill:#fff;}.cls-2{fill:#e11f26;stroke:#000;stroke-miterlimit:10;stroke-width:1.88px;}</style></defs><path class="cls-2" d="m293.05,96.7c-5.49,14.95-23.26,22.18-39.71,16.15-16.44-6.03-25.33-23.04-19.84-38,5.48-14.95,23.26-22.18,39.71-16.15,16.44,6.03,25.33,23.05,19.84,38"/><path d="m240.53,78.55c-4.96,7.1-.04,17.9,4.26,21.99,3.77,3.58,12.15,8.13,19.75,6.63-9.65-4.6-23-12.62-23.73-28.51"/><path class="cls-1" d="m281.51,90.19c-1.12,1.89-3.99,2.26-6.4.82-2.42-1.43-3.46-4.13-2.34-6.01,1.12-1.89,3.99-2.26,6.4-.82,2.41,1.43,3.46,4.13,2.34,6.02"/><path d="m289.07,23.51c-.13-.25-.25-.47-.33-.65-.1-.21-.3-.33-.52-.32-.24.01-.41.16-.61.33-.21.18-.46.4-.71.41-.14,0-.29-.06-.46-.19-.09-.2-.29-.3-.47-.29-.25.01-.49.02-1.39,1.99-1.69,2.17-3.53,4.24-5.13,6.42-.04.05-.08.1-.11.15-1.61,2.19-3.13,4.44-4.56,6.77-1.44,2.35-2.78,4.76-3.99,7.23-1.21,2.46-2.29,4.97-3.22,7.53-.49,1.35-.85,2.74-1.14,4.14-.28,1.37-.45,2.77-.73,4.14-.12.62-.22,1.24-.31,1.87-.07.51-.13,1.03-.18,1.54-.11,1.05-.22,2.14-.1,3.19.1.88.12,1.57.13,2.11-2.07-1.19-2.45-2.48-2.77-3.76-.26-1.04-.61-2.53-1.65-2.27-1.04.26-1.67,1.32-1.41,2.36.66,2.6,2.96,4.75,6.31,5.89.46.16.94.29,1.44.41,2.91.66,6.35.52,8.54-1.21.84-.67.98-1.88.32-2.73-.67-.84-2.7,1.67-5.21,2.13-.35.06-.75.13-1.19.18-.4-2.67-.26-5.42.12-8.08.41-2.84,1.14-5.61,2.07-8.32.88-2.57,1.9-5.09,3.06-7.55.42-.88.87-1.74,1.3-2.62,1.94-3.7,4.22-7.35,6.87-10.6,1.22-1.5,3.51-3.67,5.03-4.86l.16-.12c.32-.25.78-.61,1.83-1.48l.12-.09.03-.15c.2-.83-.41-2.08-1.16-3.51h.02Z"/><path class="cls-1" d="m339.6,40.26h-10.8c0,13.55-7.13,20.89-19.66,20.89v8.56h9.88v30.46c0,10.9,8.66,13.96,18.24,13.96,6.93,0,9.98-.41,15.28-1.73v-11.31c-3.36.82-5.61,1.02-7.95,1.02-3.87,0-4.99-.92-4.99-4.69v-27.71h13.14v-9.07h-13.14v-20.38h0Z"/><path class="cls-1" d="m410.44,98.75v-24.25c0-13.55-14.47-16-24.86-16-8.56,0-25.68,1.02-25.68,13.25,0,5.71,5.09,8.76,10.39,8.76,4.48,0,9.68-2.14,9.68-7.23,0-3.06-1.43-4.48-3.97-5.71.82-.82,2.65-2.24,6.93-2.24,3.06,0,6.52,1.12,6.83,5.81v8.45c-5.3.61-10.09,1.73-14.77,3.16-8.97,2.75-18.03,6.52-18.03,17.12,0,9.98,8.45,14.47,17.32,14.47,6.73,0,13.55-2.55,17.22-9.17,1.33,8.25,6.62,9.17,11.52,9.17,10.6,0,12.94-1.94,15.38-3.06v-10.39c-1.53.71-3.26,1.32-4.69,1.32-2.34,0-3.26-1.02-3.26-3.46h0Zm-20.68-3.46c0,3.57-3.36,6.93-7.03,6.93-2.85,0-4.38-2.34-4.38-4.99,0-6.42,6.11-8.97,11.41-9.78v7.84h0Z"/><path class="cls-1" d="m464.35,80.61l-22.01-5.09c-1.73-.41-2.75-1.22-2.75-2.96,0-3.97,4.89-4.79,7.95-4.79,6.93,0,13.14,2.75,15.49,9.48h9.07v-19.05h-7.54l-2.34,3.97c-5.71-2.65-11-3.97-17.42-3.97-11.72,0-23.84,5.19-23.84,18.64,0,8.25,4.18,12.84,12.23,14.47l19.87,4.38c2.34.31,3.57,1.43,3.57,3.77,0,4.18-5.4,4.69-8.35,4.69-6.93,0-14.78-3.16-17.22-10.49h-9.07v19.36h8.25l1.83-4.08c5.3,3.77,11.92,5.09,18.54,5.09,10.9,0,24.66-5.71,24.66-18.85,0-6.72-3.97-13.04-10.9-14.57h-.01Z"/><path class="cls-1" d="m614.72,39.8h-10.9c0,11.28-4.91,18.29-13.72,20.4-.88.21-1.78.28-2.69.28h-24.42v8.95h4.49c2.27,0,2.47.62,2.47,1.75,0,1.03-1.34,4.42-9.26,22.43l-1.03,4.73-.93-4.84c-6.69-15.54-9.05-21.09-9.05-22.33,0-1.64.82-1.75,4.73-1.75h2.88v-8.95h-20.45l-30.27-.1v-20.58h-10.9c0,13.68-7.2,21.09-19.86,21.09v8.64h9.98v30.76c0,11.01,8.74,14.09,18.42,14.09,6.99,0,10.08-.41,15.43-1.75v-11.42c-3.39.82-5.66,1.03-8.03,1.03-3.91,0-5.04-.93-5.04-4.73v-27.98h18.51c1.63-.08,2.66.97,3.4,2.47,20.48,47.63,20.58,47.73,20.58,47.84-2.37,7.62-5.97,11.52-11.11,11.52-1.34,0-2.16-.41-2.57-.82,2.78-1.44,4.22-3.19,4.22-6.38,0-5.14-3.81-7.92-8.74-7.92-6.48,0-10.9,3.6-10.9,10.49,0,9.15,8.54,13.07,16.67,13.07,8.54,0,16.36-3.91,19.85-11.93,21.85-50.22,23.44-57.49,26.59-58.33h10.88v30.76c0,11.01,8.74,14.09,18.42,14.09,6.99,0,10.08-.41,15.43-1.75v-11.42c-3.39.82-5.66,1.03-8.03,1.03-3.91,0-5.04-.93-5.04-4.73v-27.98h13.27v-9.15h-13.27v-20.58h.02Z"/><path class="cls-1" d="m675.72,58.53c-4.73,0-11.01,1.13-15.84,9.88l.93-9.05-28.29.92v9.15h3.19c2.57,0,4.32,0,4.32,3.91v29.01c0,1.44-.93,1.75-1.75,1.75h-5.76v9.15h41.46v-9.15h-10.9c-1.03,0-1.96-.62-1.96-2.16v-19.96c0-7.3,5.35-13.58,9.88-13.58-1.03,1.34-1.75,2.57-1.75,4.73,0,5.3,4.62,8.6,9.83,8.54,6.62-.08,11.24-6.18,10.44-12.75-.86-7.07-6.75-10.4-13.78-10.4h0Z"/><path class="cls-1" d="m743.44,98.86v-24.49c0-13.68-14.61-16.15-25.1-16.15-8.64,0-25.93,1.03-25.93,13.38,0,5.76,5.14,8.85,10.49,8.85,4.53,0,9.77-2.16,9.77-7.3,0-3.09-1.44-4.53-4.01-5.76.82-.82,2.68-2.26,6.99-2.26,3.09,0,6.58,1.13,6.89,5.87v8.54c-5.35.62-10.18,1.75-14.92,3.19-9.05,2.78-18.21,6.58-18.21,17.28,0,10.08,8.54,14.61,17.49,14.61,6.79,0,13.68-2.57,17.39-9.26,1.34,8.33,6.69,9.26,11.63,9.26,10.7,0,13.07-1.96,15.54-3.09v-10.49c-1.54.72-3.29,1.34-4.73,1.34-2.37,0-3.29-1.03-3.29-3.49h0Zm-20.89-3.49c0,3.6-3.39,6.99-7.1,6.99-2.88,0-4.42-2.37-4.42-5.04,0-6.48,6.17-9.05,11.52-9.88v7.92h0Z"/><path class="cls-1" d="m811.15,101.95V35.07l-29.53,1.64v9.05h6.17c1.42,0,2.57,1.15,2.57,2.57v13.79l1.03,3.81c-4.73-6.99-11.11-7.62-15.13-7.62-16.46,0-24.59,12.45-24.59,27.78s6.17,28.91,22.94,28.91c5.97,0,12.45-1.75,15.95-7.1v5.35h28.19v-9.15h-5.56c-1.03,0-2.06-1.03-2.06-2.16h0Zm-29.12,3.19c-6.38,0-7.92-4.32-7.92-17.9s1.75-19.03,8.33-19.03c8.23,0,8.23,12.55,8.23,18.83,0,7.72-.72,18.11-8.64,18.11h0Z"/><path class="cls-1" d="m854.07,104.31c-10.08,0-13.48-5.56-13.48-15.23h38.07c0-19.34-10.08-30.76-29.94-30.76-17.7,0-30.55,10.08-30.55,28.29,0,19.65,12.86,28.19,30.97,28.19,12.65,0,27.98-5.14,28.91-20.06h-10.7c-1.96,7.2-5.76,9.57-13.27,9.57h-.01Zm-5.36-36.32c6.48,0,7.51,6.99,7.51,11.93h-15.43c0-4.94,2.06-11.93,7.92-11.93Z"/><path class="cls-1" d="m21.35,25.84v110.74H0V25.84h21.35Zm68.8-2.75h-.56c-14.85.13-28.98,5.96-39.79,16.41-10.81,10.45-17.11,24.37-17.73,39.21-.67,15.98,5.06,31.15,16.12,42.7,11.09,11.56,25.98,17.93,41.94,17.93s33.24-6.65,44.08-17.38v-49.2h-46.16v20.5h25.38v18.03l-.27.18c-6.39,4.21-14.71,6.93-23.03,6.93-10.29,0-19.87-4.12-26.97-11.61-7.1-7.48-10.7-17.26-10.16-27.57.97-18.65,16.37-34.09,35.05-35.14,10.38-.6,20.28,3.66,28.17,11.22.28.27.6.61.96,1.02l14.81-14.81c-.33-.36-.66-.7-.96-1.02-10.53-10.99-24.9-17.42-40.88-17.42h0Z"/><rect class="cls-1" x="181.56" width="3.25" height="164.1"/></svg>