<svg width="88" height="19" viewBox="0 0 88 19" fill="none" xmlns="http://www.w3.org/2000/svg">
<path d="M26.3919 10.1974C26.1574 10.2777 25.858 10.3608 25.4846 10.4324C25.1112 10.5098 24.4323 10.6216 23.4417 10.7677C22.7596 10.868 22.2875 10.9999 22.019 11.1776C21.7628 11.3552 21.6085 11.5673 21.5653 11.8224C21.5129 12.0975 21.6085 12.3182 21.8647 12.4873C22.1239 12.6564 22.5621 12.7423 23.1793 12.7423C23.6422 12.7423 24.0959 12.6736 24.5341 12.5417C24.9785 12.407 25.3519 12.2236 25.642 11.9943C25.8549 11.8252 26.0062 11.6074 26.1173 11.3495C26.1821 11.1804 26.2777 10.7964 26.3857 10.1917L26.3919 10.1974ZM32.0641 6.92169C32.0394 7.41176 31.9499 7.83878 31.8079 8.58678L30.8482 13.5906C30.7648 14.0349 30.9438 14.3845 31.3882 14.6224L31.3574 14.8172L25.8611 14.8115L25.8117 13.5391C25.0125 13.9861 24.0465 14.3644 23.1732 14.588C22.3029 14.7943 21.5962 14.8889 20.5408 14.8889C18.7663 14.8889 17.7479 14.7169 17.0474 14.1466C16.3345 13.5563 15.9888 13.1665 16.0228 12.3554C16.0506 11.8883 16.3098 11.2893 16.6863 10.8709C17.0659 10.4439 17.5843 10.1688 18.1491 9.92229C18.7169 9.67009 19.3835 9.48954 20.3556 9.34624C21.3277 9.20008 22.6825 9.05392 24.494 8.91349C25.4476 8.83898 26.0278 8.6355 26.2993 8.53519C26.6789 8.39763 26.827 8.2486 26.8826 7.96201C26.9844 7.44615 26.8054 7.15383 26.071 7.01913C24.0897 6.65802 20.3803 7.25413 18.4669 7.69835L19.5069 5.09324C22.0282 4.7522 24.3952 4.53152 26.8826 4.53152C30.8389 4.53152 32.1042 5.58045 32.0641 6.92456V6.92169Z" fill="#013D5B"/>
<path d="M47.9973 14.8172L49.9045 4.82094H55.1662L53.259 14.8172H47.9973ZM50.1977 2.50529C50.3551 1.68277 51.753 1.01788 53.3115 1.01788C54.8699 1.01788 56.0149 1.68564 55.8637 2.50529C55.7001 3.3278 54.3052 3.99269 52.7406 3.99269C51.1759 3.99269 50.0372 3.3278 50.1977 2.50529Z" fill="#013D5B"/>
<path d="M73.8522 10.2203C73.6177 10.2948 73.3091 10.3751 72.9387 10.4553C72.5715 10.5384 71.8895 10.6387 70.8958 10.7878C70.2199 10.8881 69.7385 11.0199 69.4793 11.2005C69.2262 11.3724 69.0781 11.5845 69.0225 11.8424C68.967 12.1204 69.075 12.3411 69.3219 12.5073C69.5873 12.6764 70.0286 12.7595 70.6458 12.7595C71.1056 12.7595 71.5531 12.6965 71.9944 12.5675C72.4419 12.4271 72.8153 12.2494 73.1054 12.0201C73.306 11.851 73.4634 11.6303 73.5745 11.3696C73.6423 11.2033 73.7349 10.8164 73.8491 10.2175L73.8522 10.2203ZM79.5244 6.93887C79.5028 7.42894 79.4102 7.86169 79.2651 8.60396L78.3115 13.6136C78.2282 14.0549 78.4041 14.4017 78.8485 14.6481L78.8146 14.823L73.3214 14.8316L73.2782 13.5562C72.4758 14.0091 71.5037 14.3845 70.6365 14.6023C69.7601 14.8144 69.0565 14.9032 67.9918 14.9032C66.2173 14.9032 65.2082 14.737 64.5046 14.1638C63.7886 13.5734 63.443 13.1837 63.48 12.3755C63.4985 11.9055 63.7639 11.3036 64.1435 10.8909C64.5231 10.4611 65.0415 10.1859 65.6094 9.93947C66.1772 9.693 66.8469 9.50958 67.8066 9.36056C68.7849 9.22013 70.1428 9.06823 71.9543 8.9278C72.8986 8.85329 73.4788 8.65554 73.7504 8.5581C74.133 8.42054 74.2842 8.26578 74.3429 7.97919C74.4416 7.47479 74.2657 7.17387 73.5374 7.03631C71.5469 6.67234 67.8467 7.27131 65.9334 7.71266L66.9672 5.11042C69.5009 4.76651 71.8524 4.54871 74.3429 4.54871C78.2961 4.54871 79.5583 5.60049 79.5244 6.9446V6.93887Z" fill="#013D5B"/>
<path d="M15.3036 11.2234C13.5909 11.5387 12.628 11.659 10.9338 11.659C8.41865 11.659 6.42197 10.5012 6.52998 8.3747C6.60714 6.95894 8.41248 3.97267 12.9983 3.97267C14.4426 3.97267 15.569 4.21054 17.0874 5.01299L17.7539 1.53952C15.6894 0.814444 14.3223 0.705539 12.5509 0.7256C6.54233 0.785784 0.765242 3.32497 0.0492786 8.4836C-0.679029 13.7282 6.21829 15.0465 9.27966 15.0351C11.048 15.0293 12.8872 14.9634 14.6031 14.7972L15.3005 11.2177L15.3036 11.2234Z" fill="#013D5B"/>
<path d="M58.0641 4.76364L58.4437 2.72885L63.9461 1.61688L63.3597 4.76364H66.0539L65.5416 6.77837L62.9277 6.77264L61.3384 14.8115C61.3384 14.8115 56.0396 14.78 56.0211 14.8115L57.6043 6.7927H55.6045L56.0119 4.76651H58.0672L58.0641 4.76364Z" fill="#013D5B"/>
<path d="M84.8663 14.8086L79.5059 14.8172L82.2031 0.868866L87.4247 1.00643L84.8663 14.8086Z" fill="#013D5B"/>
<path d="M41.0352 7.16242C40.347 7.16242 39.7205 7.35443 39.1681 7.7442C38.6188 8.13396 38.2701 8.70141 38.1281 9.45514C37.9615 10.3292 38.0602 10.954 38.4306 11.3409C38.8071 11.7249 39.3471 11.917 40.0569 11.917C40.5353 11.917 41.0321 11.8367 41.3963 11.6705C41.8468 11.4498 42.1585 11.2148 42.427 10.848C42.7171 10.4611 42.9084 10.0283 43.0072 9.52965C43.1584 8.74153 43.0319 8.14829 42.6369 7.75853C42.2542 7.3573 41.7265 7.15955 41.0383 7.15955L41.0352 7.16242ZM31.453 18.2678L34.0144 4.8697H38.6342L38.2763 6.58064C38.6775 6.07051 39.3194 5.65209 40.202 5.30818C41.0938 4.97 42.0968 4.7178 43.1862 4.7178C44.3928 4.7178 45.1366 4.77799 46.0377 5.21361C46.9357 5.65209 47.5591 6.28545 47.9017 7.11083C48.2473 7.92475 48.3214 8.83897 48.1331 9.83344C47.8214 11.4842 46.9542 12.7882 45.5316 13.7425C44.1212 14.6997 42.8529 14.9491 41.0383 14.9577C40.3964 14.9577 39.8594 14.8946 39.415 14.7943C38.9799 14.6883 38.6312 14.5593 38.3658 14.4046C38.1127 14.2469 37.8442 14.0291 37.4986 13.6766L36.6376 18.2678H31.4468H31.453Z" fill="#013D5B"/>
</svg>
