<svg width="111" height="16" viewBox="0 0 111 16" fill="none" xmlns="http://www.w3.org/2000/svg">
<path d="M0 15.0267V0H2.1728V13.3093H9.3856V15.0267H0Z" fill="#013D5B"/>
<path d="M19.8572 14.6188C18.8268 15.1054 17.677 15.3487 16.4076 15.3487C14.5559 15.3487 13.1447 14.8549 12.174 13.8675C11.2034 12.88 10.718 11.4346 10.718 9.5312C10.718 8.35769 10.9346 7.3416 11.3676 6.48293C11.8007 5.60996 12.4055 4.94449 13.182 4.48653C13.9586 4.02858 14.8471 3.7996 15.8476 3.7996C17.2514 3.7996 18.3564 4.20031 19.1628 5.00173C19.9692 5.80316 20.3724 6.91227 20.3724 8.32907C20.3724 8.8872 20.3202 9.43818 20.2156 9.982H12.8012C12.846 12.5151 14.1303 13.7816 16.654 13.7816C17.7442 13.7816 18.8119 13.5526 19.8572 13.0947V14.6188ZM15.8476 5.2808C14.9815 5.2808 14.2722 5.57418 13.7196 6.16093C13.182 6.74769 12.8759 7.54196 12.8012 8.54373H18.4236C18.4386 8.47218 18.446 8.40062 18.446 8.32907C18.446 8.25751 18.446 8.18596 18.446 8.1144C18.446 7.22711 18.2146 6.53302 17.7516 6.03213C17.3036 5.53125 16.669 5.2808 15.8476 5.2808Z" fill="#013D5B"/>
<path d="M30.1262 15.0696L29.9918 14.3183C28.7374 15.0052 27.5204 15.3487 26.3406 15.3487C25.1609 15.3487 24.2201 15.0481 23.5182 14.4471C22.8313 13.8317 22.4878 13.0088 22.4878 11.9784C22.4878 10.9051 22.8761 10.075 23.6526 9.48827C24.4292 8.8872 25.5193 8.58667 26.923 8.58667C27.7444 8.58667 28.6926 8.67969 29.7678 8.86573V7.728C29.7678 6.94089 29.5289 6.35413 29.051 5.96773C28.5881 5.58133 27.8713 5.38813 26.9006 5.38813C25.7657 5.38813 24.5262 5.63858 23.1822 6.13947V4.5724C23.8094 4.32911 24.4889 4.14307 25.2206 4.01427C25.9524 3.87116 26.6468 3.7996 27.3038 3.7996C28.7822 3.7996 29.9022 4.12876 30.6638 4.78707C31.4404 5.44538 31.8286 6.41138 31.8286 7.68507V14.8979L30.1262 15.0696ZM26.8782 13.7816C27.3113 13.7816 27.7966 13.71 28.3342 13.5669C28.8718 13.4238 29.3497 13.2378 29.7678 13.0088V10.2611C29.066 10.0893 28.2372 10.0035 27.2814 10.0035C26.3854 10.0035 25.7209 10.168 25.2878 10.4972C24.8697 10.812 24.6606 11.2915 24.6606 11.9355C24.6606 13.1662 25.3998 13.7816 26.8782 13.7816Z" fill="#013D5B"/>
<path d="M35.1025 15.0267V4.2504L36.8049 4.07867L36.9841 5.06613C37.9697 4.26471 39.0225 3.864 40.1425 3.864C40.486 3.864 40.8295 3.91409 41.1729 4.01427V5.6672C40.8145 5.58133 40.4487 5.5384 40.0753 5.5384C39.0001 5.5384 38.0444 5.8604 37.2081 6.5044V15.0267H35.1025Z" fill="#013D5B"/>
<path d="M50.5638 15.0267V7.68507C50.5638 6.15378 49.7723 5.38813 48.1894 5.38813C47.7713 5.38813 47.3009 5.45969 46.7782 5.6028C46.2705 5.7316 45.8075 5.91049 45.3894 6.13947V15.0267H43.2838V4.2504L44.9862 4.07867L45.1206 4.83C46.3451 4.14307 47.5622 3.7996 48.7718 3.7996C50.0113 3.7996 50.967 4.11445 51.639 4.74413C52.3259 5.35951 52.6694 6.23964 52.6694 7.38453V15.0267H50.5638Z" fill="#013D5B"/>
<path d="M68.6278 13.7172L64.2598 2.94093L63.4086 15.0267H61.3478L62.5798 0H65.0214L69.5238 11.1197L74.0262 0H76.4678L77.6998 15.0267H75.6166L74.743 2.94093L70.3974 13.7172H68.6278Z" fill="#013D5B"/>
<path d="M85.4112 13.7601C86.4565 13.7601 87.2107 13.431 87.6736 12.7727C88.1515 12.1144 88.3904 11.0482 88.3904 9.57413C88.3904 8.10009 88.1515 7.03391 87.6736 6.3756C87.2107 5.71729 86.4565 5.38813 85.4112 5.38813C84.3659 5.38813 83.6043 5.71729 83.1264 6.3756C82.6635 7.03391 82.432 8.10009 82.432 9.57413C82.432 11.0482 82.6635 12.1144 83.1264 12.7727C83.6043 13.431 84.3659 13.7601 85.4112 13.7601ZM85.4112 15.3487C83.7088 15.3487 82.4171 14.8621 81.536 13.8889C80.6699 12.9015 80.2368 11.4632 80.2368 9.57413C80.2368 7.68507 80.6699 6.25396 81.536 5.2808C82.4171 4.29333 83.7088 3.7996 85.4112 3.7996C87.1136 3.7996 88.3979 4.29333 89.264 5.2808C90.1451 6.25396 90.5856 7.68507 90.5856 9.57413C90.5856 11.4632 90.1451 12.9015 89.264 13.8889C88.3979 14.8621 87.1136 15.3487 85.4112 15.3487Z" fill="#013D5B"/>
<path d="M93.3119 15.0267V4.2504L95.0143 4.07867L95.1935 5.06613C96.1791 4.26471 97.2319 3.864 98.3519 3.864C98.6954 3.864 99.0389 3.91409 99.3823 4.01427V5.6672C99.0239 5.58133 98.6581 5.5384 98.2847 5.5384C97.2095 5.5384 96.2538 5.8604 95.4175 6.5044V15.0267H93.3119Z" fill="#013D5B"/>
<path d="M109.742 14.6188C108.711 15.1054 107.561 15.3487 106.292 15.3487C104.44 15.3487 103.029 14.8549 102.058 13.8675C101.088 12.88 100.602 11.4346 100.602 9.5312C100.602 8.35769 100.819 7.3416 101.252 6.48293C101.685 5.60996 102.29 4.94449 103.066 4.48653C103.843 4.02858 104.731 3.7996 105.732 3.7996C107.136 3.7996 108.241 4.20031 109.047 5.00173C109.854 5.80316 110.257 6.91227 110.257 8.32907C110.257 8.8872 110.205 9.43818 110.1 9.982H102.686C102.73 12.5151 104.015 13.7816 106.538 13.7816C107.629 13.7816 108.696 13.5526 109.742 13.0947V14.6188ZM105.732 5.2808C104.866 5.2808 104.157 5.57418 103.604 6.16093C103.066 6.74769 102.76 7.54196 102.686 8.54373H108.308C108.323 8.47218 108.33 8.40062 108.33 8.32907C108.33 8.25751 108.33 8.18596 108.33 8.1144C108.33 7.22711 108.099 6.53302 107.636 6.03213C107.188 5.53125 106.553 5.2808 105.732 5.2808Z" fill="#013D5B"/>
</svg>
