<svg width="43" height="27" viewBox="0 0 43 27" fill="none" xmlns="http://www.w3.org/2000/svg">
<g clip-path="url(#clip0_3871_827)">
<path fill-rule="evenodd" clip-rule="evenodd" d="M10.2 9.8H16.1C21.4 9.8 24.8 13.1 24.8 18.3C24.8 23.5 21.1 26.8 15.1 26.8H10.3V9.8H10.2ZM15.7 13.7C15.5 13.7 15.2 13.7 14.8 13.7V22.9C17.8 22.9 20.1 21.7 20.1 18.2C20.1 14.7 18.2 13.7 15.7 13.7Z" fill="#013D5B"/>
<path fill-rule="evenodd" clip-rule="evenodd" d="M43 14.7V10.2C41.8 9.7 40.5 9.4 39.3 9.4C34.4 9.4 30.5 13.2 30.5 18.2C30.5 23.2 34.4 26.8 39.2 26.8C44 26.8 42.1 26.4 43 25.7V21.2C41.6 22.1 40.7 22.4 39.4 22.4C36.9 22.4 35 20.6 35 17.9C35 15.2 36.9 13.3 39.4 13.3C41.9 13.3 41.7 13.8 43 14.6V14.7Z" fill="#013D5B"/>
<path fill-rule="evenodd" clip-rule="evenodd" d="M0 6.4V7.2H3.3V6.4C2.4 6.4 2.2 6.2 2.2 5.6V1.5L4.1 7.2H4.9L7 1.5V5.5C7 6.03333 6.63333 6.33333 5.9 6.4V7.2H9.7V6.4C8.6 6.4 8.6 6.3 8.6 5.7V1.7C8.6 1.1 8.6 0.8 9.7 0.8V0H6.5L4.8 4.6L3.3 0H0V0.8C0.9 0.8 1.1 0.8 1.1 1.6V5.4C1.1 6.1 1.1 6.3 0 6.3V6.4Z" fill="#013D5B"/>
<path fill-rule="evenodd" clip-rule="evenodd" d="M15.8 6.4V7.2H18.8V6.4C18.1 6.4 18.1 6.3 18.1 5.3V4.4C18.1 3.6 18.5 2.9 19.2 2.9C19.9 2.9 20 3.3 20 3.9V5.7C20 6.3 20 6.4 19.2 6.4V7.2H21.9V6.4C21.3 6.4 21.2 6.4 21.2 5.7V4.4C21.2 3.5 21.6 2.8 22.4 2.8C23.2 2.8 23.1 3.2 23.1 3.9V5.8C23.1 6.3 23.1 6.4 22.4 6.4V7.2H25.4V6.4C24.5 6.4 24.4 6.4 24.4 5.9V3.8C24.4 2.6 24.1 1.9 22.9 1.9C21.7 1.9 21.8 2.2 21.2 2.8C21.1 2.5 20.9 2.3 20.6 2.1C20.3 1.9 20 1.8 19.7 1.9C18.9 1.9 18.4 2.3 18 2.9V2.1H15.7V2.8C16.6 2.8 16.7 2.8 16.7 3.6V5.3C16.7 6.03334 16.3667 6.4 15.7 6.4H15.8Z" fill="#013D5B"/>
<path fill-rule="evenodd" clip-rule="evenodd" d="M0.0999756 9.8V26.8H4.69998V20.3H9.19998V16.4H4.79998V13.8H9.59998V9.9H0.0999756V9.8Z" fill="#013D5B"/>
<path fill-rule="evenodd" clip-rule="evenodd" d="M25.8 0H27.9V2.6C28.5 2.1 28.8 1.9 29.4 1.9C30.6 1.9 31.4 3 31.4 4.6C31.4 6.2 30.6 7.4 29.2 7.4C28.9 7.4 28.6 7.4 28.3 7.2C28 7.1 27.8 6.9 27.6 6.7L27.2 7.3H26.6V1.7C26.6 0.9 26.6 0.8 25.7 0.8V0.1L25.8 0ZM30.1 4.6C30.1 3.4 29.7 2.8 29.1 2.8C28.5 2.8 28 3.4 28 4.7C28 6 28.4 6.5 29.1 6.5C29.8 6.5 30.2 5.9 30.2 4.6H30.1Z" fill="#013D5B"/>
<path fill-rule="evenodd" clip-rule="evenodd" d="M38 6.4V7.2H41.3V6.4C40.4 6.4 40.3 6.4 40.3 5.7V4.6C40.3 3.6 40.6 2.6 41.5 2.6C41.6 2.6 41.7 2.6 41.8 2.6C41.7 2.6 41.5 2.7 41.4 2.9C41.4 3 41.3 3.2 41.2 3.3C41.2 3.3 41.2 3.5 41.2 3.6C41.2 3.6 41.2 3.8 41.4 3.8C41.4 3.8 41.5 3.9 41.6 3.9C41.6 3.9 41.8 3.9 41.9 3.9C42.4 3.9 42.7 3.5 42.7 3C42.7 2.8 42.7 2.7 42.7 2.5C42.7 2.4 42.6 2.2 42.5 2.1C42.4 2 42.3 1.9 42.1 1.8C41.9 1.7 41.8 1.8 41.7 1.8C41.2 1.8 40.8 2.1 40.3 2.6V1.9H38V2.6C38.8 2.6 39 2.6 39 3.3V5.4C39 6.1 39 6.2 38 6.2V6.4Z" fill="#013D5B"/>
<path fill-rule="evenodd" clip-rule="evenodd" d="M33.8 4.8C33.8 5.8 34.3 6.5 35.1 6.5C35.9 6.5 36.2 6.1 36.3 5.4H37.2C37 6.7 36.2 7.4 35 7.4C33.8 7.4 32.4 6.5 32.4 4.8C32.4 3.1 33.4 2 34.8 2C36.2 2 37.1 3.1 37.1 4.8H33.7H33.8ZM34.9 2.8C34.3 2.8 33.9 3.2 33.9 4H35.8C35.8 3.2 35.5 2.8 34.9 2.8Z" fill="#013D5B"/>
<path fill-rule="evenodd" clip-rule="evenodd" d="M11.7 4.8C11.7 5.8 12.2 6.5 13 6.5C13.8 6.5 14.1 6.1 14.2 5.4H15.1C14.9 6.7 14.1 7.4 12.9 7.4C11.7 7.4 10.3 6.5 10.3 4.8C10.3 3.1 11.3 2 12.8 2C14.3 2 15.1 3.1 15.1 4.8H11.7ZM12.7 2.8C12.1 2.8 11.7 3.2 11.7 4H13.6C13.6 3.2 13.3 2.8 12.7 2.8Z" fill="#013D5B"/>
<path fill-rule="evenodd" clip-rule="evenodd" d="M25.3 26.8H29.9V9.8H25.3V26.8Z" fill="#013D5B"/>
</g>
<defs>
<clipPath id="clip0_3871_827">
<rect width="43" height="27" fill="white"/>
</clipPath>
</defs>
</svg>
