<svg width="41" height="19" viewBox="0 0 41 19" fill="none" xmlns="http://www.w3.org/2000/svg">
<path d="M38.9848 8.3919C38.9539 7.58658 38.5188 7.04492 37.6238 7.04492C35.4667 7.04492 33.1707 10.9712 32.7757 12.5532C36.3154 12.5532 39.0712 10.5958 38.9879 8.3919H38.9848ZM39.4477 14.545L39.8643 14.8087C38.812 16.8005 36.6672 18.4025 34.149 18.4025C32.0906 18.4025 30.4025 17.13 30.313 14.7399C30.1463 10.4553 34.4699 6.47461 38.0096 6.47461C39.5279 6.47461 40.9352 7.09078 40.9969 8.60971C41.1265 12.0173 35.9759 13.0605 32.5812 13.1292C32.4701 13.4846 32.43 13.8428 32.4485 14.3874C32.5041 15.8003 33.4268 16.9896 35.3278 16.9896C36.9727 16.9896 38.6145 15.7601 39.4477 14.5479V14.545Z" fill="#013D5B"/>
<path d="M18.336 8.27725C18.7002 8.2314 19.2896 8.17121 19.5427 8.17121C19.9315 8.17121 20.2926 8.23999 20.3111 8.59536C20.3173 8.80744 19.9068 10.3235 19.8204 10.676L18.9995 14.0377C18.6693 15.4133 18.3083 16.852 17.9904 17.9898H20.0982L21.2832 12.6649C24.9001 9.16568 26.2919 8.02505 27.1467 8.02505C27.5294 8.02505 27.7948 8.21133 27.8133 8.63835C27.8349 9.25452 27.4244 10.6531 27.2794 11.0514L26.0697 14.9347C25.795 15.806 25.5913 16.5941 25.6099 17.1558C25.6469 18.0099 26.2024 18.3882 27.0263 18.3882C28.5663 18.3882 29.6865 16.8979 30.6648 15.4305L30.3778 14.9491C29.9828 15.5394 29.0693 16.8234 28.3472 16.8234C28.1188 16.8234 27.9028 16.6829 27.8966 16.3276C27.875 15.8719 28.0818 15.1955 28.2237 14.7456L29.5662 10.1974C29.9272 8.94501 30.1001 8.13682 30.0908 7.7098C30.0569 6.86149 29.523 6.46313 28.7052 6.46313C27.3195 6.46313 25.4741 7.40315 21.5764 11.573H21.5208L22.0115 9.53825C22.2769 8.42628 22.5392 7.26559 22.7923 6.46313C21.4437 6.91595 19.5087 7.42035 18.3144 7.63529L18.3329 8.27439L18.336 8.27725Z" fill="#013D5B"/>
<path d="M3.05387 11.7708C3.16497 14.8917 5.29126 17.4452 8.06562 17.4452C13.4384 17.4452 15.7252 11.3179 15.5678 7.22257C15.4536 4.09587 13.2718 1.54522 10.5036 1.54522C5.8807 1.54522 2.89648 7.64672 3.05387 11.7679V11.7708ZM0.214707 11.6045C0.0141141 6.27969 4.5074 0.834473 11.0344 0.834473C15.3981 0.834473 18.2558 3.53415 18.4162 7.67252C18.6261 13.2897 14.4291 18.4454 7.59654 18.4454C3.22977 18.4454 0.375182 15.7486 0.214707 11.6074V11.6045Z" fill="#013D5B"/>
</svg>
