<svg width="91" height="43" viewBox="0 0 91 43" fill="none" xmlns="http://www.w3.org/2000/svg">
<path d="M53.5481 31.1008C53.5481 31.1008 53.5358 31.1094 53.5296 31.1122C48.0365 34.7233 41.5311 38.5177 34.5319 42.4985L34.2542 42.6475C34.1616 42.7105 34.1369 42.828 34.2048 42.9169C34.2696 43.0057 34.3992 43.0258 34.4949 42.9627L34.7294 42.8481C40.667 39.9707 47.4841 36.5546 54.3474 33.0496C54.3845 33.0295 54.4215 33.0123 54.4585 32.9923C54.082 32.4191 53.7703 31.7886 53.5512 31.0979L53.5481 31.1008ZM89.6025 3.99506C80.943 -4.87491 25.2305 3.10376 1.53893 7.90988L0.986531 8.02165C0.872347 8.04171 0.798281 8.14202 0.816797 8.24806C0.838399 8.3541 0.943325 8.42574 1.0606 8.40568L1.60991 8.30538C21.2403 5.06117 62.0595 0.558841 70.8424 8.64928C73.5211 11.1168 72.8822 14.2951 69.7777 18.0466C71.4534 19.0468 72.6446 20.6173 73.1816 22.5862C85.3129 15.0918 93.4631 7.94714 89.6056 3.99792L89.6025 3.99506Z" fill="#CC2427"/>
</svg>
