<svg width="292" height="21" viewBox="0 0 292 21" fill="none" xmlns="http://www.w3.org/2000/svg">
<path d="M290.027 16.149V8.862C290.027 7.14 289.152 6.279 287.402 6.279C286.94 6.279 286.429 6.356 285.869 6.51C285.323 6.664 284.784 6.874 284.252 7.14V16.149H282.992V5.649L284.063 5.544L284.147 6.279C285.365 5.607 286.555 5.271 287.717 5.271C288.851 5.271 289.726 5.565 290.342 6.153C290.972 6.741 291.287 7.574 291.287 8.652V16.149H290.027Z" fill="#013D5B"/>
<path d="M279.721 15.771C278.755 16.233 277.719 16.464 276.613 16.464C275.003 16.464 273.764 15.988 272.896 15.036C272.028 14.084 271.594 12.719 271.594 10.941C271.594 9.177 272 7.791 272.812 6.783C273.624 5.775 274.737 5.271 276.151 5.271C277.397 5.271 278.377 5.663 279.091 6.447C279.819 7.217 280.183 8.274 280.183 9.618C280.183 10.122 280.141 10.605 280.057 11.067H272.833C272.847 13.993 274.142 15.456 276.718 15.456C277.754 15.456 278.755 15.232 279.721 14.784V15.771ZM276.13 6.258C275.178 6.258 274.401 6.608 273.799 7.308C273.197 8.008 272.875 8.946 272.833 10.122H278.965C278.993 9.898 279.007 9.702 279.007 9.534C279.007 8.498 278.755 7.693 278.251 7.119C277.747 6.545 277.04 6.258 276.13 6.258Z" fill="#013D5B"/>
<path d="M260.618 20.832V5.649L261.689 5.544L261.773 6.279C262.963 5.607 264.055 5.271 265.049 5.271C266.421 5.271 267.499 5.754 268.283 6.72C269.067 7.672 269.459 8.995 269.459 10.689C269.459 12.551 269.011 13.979 268.115 14.973C267.233 15.967 265.952 16.464 264.272 16.464C263.404 16.464 262.606 16.352 261.878 16.128V20.664L260.618 20.832ZM264.881 6.279C264.419 6.279 263.922 6.356 263.39 6.51C262.858 6.664 262.354 6.874 261.878 7.14V15.12C262.606 15.344 263.369 15.456 264.167 15.456C265.511 15.456 266.505 15.071 267.149 14.301C267.807 13.517 268.136 12.32 268.136 10.71C268.136 9.268 267.856 8.169 267.296 7.413C266.75 6.657 265.945 6.279 264.881 6.279Z" fill="#013D5B"/>
<path d="M253.163 16.464C251.637 16.464 250.482 15.995 249.698 15.057C248.928 14.105 248.543 12.705 248.543 10.857C248.543 9.023 248.928 7.637 249.698 6.699C250.482 5.747 251.637 5.271 253.163 5.271C254.689 5.271 255.837 5.747 256.607 6.699C257.391 7.637 257.783 9.023 257.783 10.857C257.783 12.705 257.391 14.105 256.607 15.057C255.837 15.995 254.689 16.464 253.163 16.464ZM253.163 15.456C254.311 15.456 255.144 15.092 255.662 14.364C256.194 13.622 256.46 12.453 256.46 10.857C256.46 9.275 256.194 8.12 255.662 7.392C255.144 6.65 254.311 6.279 253.163 6.279C252.015 6.279 251.175 6.65 250.643 7.392C250.125 8.12 249.866 9.275 249.866 10.857C249.866 12.453 250.125 13.622 250.643 14.364C251.175 15.092 252.015 15.456 253.163 15.456Z" fill="#013D5B"/>
<path d="M240.715 15.771C239.749 16.233 238.713 16.464 237.607 16.464C235.997 16.464 234.758 15.988 233.89 15.036C233.022 14.084 232.588 12.719 232.588 10.941C232.588 9.177 232.994 7.791 233.806 6.783C234.618 5.775 235.731 5.271 237.145 5.271C238.391 5.271 239.371 5.663 240.085 6.447C240.813 7.217 241.177 8.274 241.177 9.618C241.177 10.122 241.135 10.605 241.051 11.067H233.827C233.841 13.993 235.136 15.456 237.712 15.456C238.748 15.456 239.749 15.232 240.715 14.784V15.771ZM237.124 6.258C236.172 6.258 235.395 6.608 234.793 7.308C234.191 8.008 233.869 8.946 233.827 10.122H239.959C239.987 9.898 240.001 9.702 240.001 9.534C240.001 8.498 239.749 7.693 239.245 7.119C238.741 6.545 238.034 6.258 237.124 6.258Z" fill="#013D5B"/>
<path d="M226.267 16.149V5.649L227.338 5.544L227.443 6.489C228.381 5.719 229.382 5.334 230.446 5.334C230.824 5.334 231.125 5.376 231.349 5.46V6.489C230.985 6.405 230.663 6.363 230.383 6.363C229.389 6.363 228.437 6.72 227.527 7.434V16.149H226.267Z" fill="#013D5B"/>
<path d="M221.825 16.191L221.741 15.456C220.537 16.128 219.347 16.464 218.171 16.464C217.093 16.464 216.239 16.184 215.609 15.624C214.979 15.05 214.664 14.266 214.664 13.272C214.664 12.222 215.014 11.424 215.714 10.878C216.428 10.318 217.471 10.038 218.843 10.038C219.669 10.038 220.607 10.136 221.657 10.332V8.904C221.657 7.154 220.67 6.279 218.696 6.279C218.178 6.279 217.611 6.349 216.995 6.489C216.379 6.629 215.812 6.811 215.294 7.035V6.048C215.798 5.81 216.372 5.621 217.016 5.481C217.674 5.341 218.297 5.271 218.885 5.271C220.201 5.271 221.195 5.586 221.867 6.216C222.553 6.832 222.896 7.728 222.896 8.904V16.086L221.825 16.191ZM218.465 15.456C218.969 15.456 219.501 15.379 220.061 15.225C220.621 15.071 221.153 14.861 221.657 14.595V11.235C220.775 11.067 219.907 10.983 219.053 10.983C217.975 10.983 217.191 11.165 216.701 11.529C216.211 11.893 215.966 12.467 215.966 13.251C215.966 14.721 216.799 15.456 218.465 15.456Z" fill="#013D5B"/>
<path d="M200.039 14.763C201.089 15.225 202.174 15.456 203.294 15.456C205.184 15.456 206.129 14.721 206.129 13.251C206.129 12.775 205.989 12.39 205.709 12.096C205.443 11.802 204.995 11.557 204.365 11.361L202.769 10.857C201.873 10.577 201.222 10.227 200.816 9.807C200.41 9.373 200.207 8.827 200.207 8.169C200.207 7.287 200.55 6.587 201.236 6.069C201.936 5.537 202.874 5.271 204.05 5.271C205.044 5.271 205.989 5.46 206.885 5.838V6.825C205.947 6.461 205.023 6.279 204.113 6.279C203.287 6.279 202.636 6.447 202.16 6.783C201.698 7.105 201.467 7.553 201.467 8.127C201.467 8.533 201.593 8.862 201.845 9.114C202.111 9.352 202.58 9.583 203.252 9.807L204.911 10.353C205.765 10.633 206.388 11.004 206.78 11.466C207.186 11.928 207.389 12.516 207.389 13.23C207.389 14.266 207.039 15.064 206.339 15.624C205.639 16.184 204.652 16.464 203.378 16.464C202.202 16.464 201.145 16.247 200.207 15.813L200.039 14.763Z" fill="#013D5B"/>
<path d="M197.587 15.771C196.621 16.233 195.585 16.464 194.479 16.464C192.869 16.464 191.63 15.988 190.762 15.036C189.894 14.084 189.46 12.719 189.46 10.941C189.46 9.177 189.866 7.791 190.678 6.783C191.49 5.775 192.603 5.271 194.017 5.271C195.263 5.271 196.243 5.663 196.957 6.447C197.685 7.217 198.049 8.274 198.049 9.618C198.049 10.122 198.007 10.605 197.923 11.067H190.699C190.713 13.993 192.008 15.456 194.584 15.456C195.62 15.456 196.621 15.232 197.587 14.784V15.771ZM193.996 6.258C193.044 6.258 192.267 6.608 191.665 7.308C191.063 8.008 190.741 8.946 190.699 10.122H196.831C196.859 9.898 196.873 9.702 196.873 9.534C196.873 8.498 196.621 7.693 196.117 7.119C195.613 6.545 194.906 6.258 193.996 6.258ZM192.82 3.843L195.151 0.966002H196.747L193.954 3.843H192.82Z" fill="#013D5B"/>
<path d="M183.925 16.149V6.552H182.329V5.649L183.925 5.586V3.213C183.925 2.177 184.177 1.386 184.681 0.840001C185.199 0.28 185.948 0 186.928 0C187.46 0 187.999 0.0980002 188.545 0.294V1.218C188.041 1.064 187.558 0.987 187.096 0.987C186.438 0.987 185.955 1.162 185.647 1.512C185.339 1.848 185.185 2.38 185.185 3.108V5.586H188.02V6.552H185.185V16.149H183.925Z" fill="#013D5B"/>
<path d="M179.189 16.191L179.105 15.456C177.901 16.128 176.711 16.464 175.535 16.464C174.457 16.464 173.603 16.184 172.973 15.624C172.343 15.05 172.028 14.266 172.028 13.272C172.028 12.222 172.378 11.424 173.078 10.878C173.792 10.318 174.835 10.038 176.207 10.038C177.033 10.038 177.971 10.136 179.021 10.332V8.904C179.021 7.154 178.034 6.279 176.06 6.279C175.542 6.279 174.975 6.349 174.359 6.489C173.743 6.629 173.176 6.811 172.658 7.035V6.048C173.162 5.81 173.736 5.621 174.38 5.481C175.038 5.341 175.661 5.271 176.249 5.271C177.565 5.271 178.559 5.586 179.231 6.216C179.917 6.832 180.26 7.728 180.26 8.904V16.086L179.189 16.191ZM175.829 15.456C176.333 15.456 176.865 15.379 177.425 15.225C177.985 15.071 178.517 14.861 179.021 14.595V11.235C178.139 11.067 177.271 10.983 176.417 10.983C175.339 10.983 174.555 11.165 174.065 11.529C173.575 11.893 173.33 12.467 173.33 13.251C173.33 14.721 174.163 15.456 175.829 15.456Z" fill="#013D5B"/>
<path d="M169.842 15.561C168.638 16.163 167.378 16.464 166.062 16.464C164.2 16.464 162.744 15.792 161.694 14.448C160.644 13.09 160.119 11.207 160.119 8.799C160.119 6.391 160.644 4.515 161.694 3.171C162.744 1.813 164.2 1.134 166.062 1.134C167.336 1.134 168.575 1.435 169.779 2.037V3.108C169.135 2.8 168.533 2.576 167.973 2.436C167.413 2.296 166.832 2.226 166.23 2.226C164.676 2.226 163.5 2.786 162.702 3.906C161.918 5.012 161.526 6.643 161.526 8.799C161.526 10.955 161.918 12.593 162.702 13.713C163.5 14.819 164.676 15.372 166.23 15.372C167.42 15.372 168.624 15.078 169.842 14.49V15.561Z" fill="#013D5B"/>
<path d="M152.059 15.771C151.093 16.233 150.057 16.464 148.951 16.464C147.341 16.464 146.102 15.988 145.234 15.036C144.366 14.084 143.932 12.719 143.932 10.941C143.932 9.177 144.338 7.791 145.15 6.783C145.962 5.775 147.076 5.271 148.49 5.271C149.736 5.271 150.715 5.663 151.429 6.447C152.157 7.217 152.521 8.274 152.521 9.618C152.521 10.122 152.479 10.605 152.395 11.067H145.171C145.185 13.993 146.481 15.456 149.057 15.456C150.093 15.456 151.093 15.232 152.059 14.784V15.771ZM148.468 6.258C147.516 6.258 146.739 6.608 146.137 7.308C145.535 8.008 145.213 8.946 145.171 10.122H151.303C151.331 9.898 151.345 9.702 151.345 9.534C151.345 8.498 151.093 7.693 150.589 7.119C150.085 6.545 149.378 6.258 148.468 6.258Z" fill="#013D5B"/>
<path d="M139.992 16.149V8.862C139.992 7.14 139.117 6.279 137.367 6.279C136.905 6.279 136.394 6.356 135.834 6.51C135.288 6.664 134.749 6.874 134.217 7.14V16.149H132.957V5.649L134.028 5.544L134.112 6.279C135.33 5.607 136.52 5.271 137.682 5.271C138.816 5.271 139.691 5.565 140.307 6.153C140.937 6.741 141.252 7.574 141.252 8.652V16.149H139.992Z" fill="#013D5B"/>
<path d="M123.878 15.393C126.958 15.393 128.498 13.195 128.498 8.799C128.498 4.403 126.958 2.205 123.878 2.205C120.798 2.205 119.258 4.403 119.258 8.799C119.258 13.195 120.798 15.393 123.878 15.393ZM123.878 16.464C121.946 16.464 120.462 15.799 119.426 14.469C118.39 13.139 117.872 11.249 117.872 8.799C117.872 6.349 118.39 4.459 119.426 3.129C120.462 1.799 121.946 1.134 123.878 1.134C125.81 1.134 127.294 1.799 128.33 3.129C129.366 4.459 129.884 6.349 129.884 8.799C129.884 11.249 129.366 13.139 128.33 14.469C127.294 15.799 125.81 16.464 123.878 16.464Z" fill="#013D5B"/>
<path d="M108.306 16.149V0.378001L109.566 0.210001V16.149H108.306Z" fill="#013D5B"/>
<path d="M103.864 16.191L103.78 15.456C102.576 16.128 101.386 16.464 100.21 16.464C99.132 16.464 98.278 16.184 97.648 15.624C97.018 15.05 96.703 14.266 96.703 13.272C96.703 12.222 97.053 11.424 97.753 10.878C98.467 10.318 99.51 10.038 100.882 10.038C101.708 10.038 102.646 10.136 103.696 10.332V8.904C103.696 7.154 102.709 6.279 100.735 6.279C100.217 6.279 99.65 6.349 99.034 6.489C98.418 6.629 97.851 6.811 97.333 7.035V6.048C97.837 5.81 98.411 5.621 99.055 5.481C99.713 5.341 100.336 5.271 100.924 5.271C102.24 5.271 103.234 5.586 103.906 6.216C104.592 6.832 104.935 7.728 104.935 8.904V16.086L103.864 16.191ZM100.504 15.456C101.008 15.456 101.54 15.379 102.1 15.225C102.66 15.071 103.192 14.861 103.696 14.595V11.235C102.814 11.067 101.946 10.983 101.092 10.983C100.014 10.983 99.23 11.165 98.74 11.529C98.25 11.893 98.005 12.467 98.005 13.251C98.005 14.721 98.838 15.456 100.504 15.456Z" fill="#013D5B"/>
<path d="M91.8954 6.552V13.272C91.8954 14 92.0494 14.539 92.3574 14.889C92.6654 15.225 93.1414 15.393 93.7854 15.393C94.2054 15.393 94.6814 15.316 95.2134 15.162V16.086C94.6254 16.282 94.0864 16.38 93.5964 16.38C92.6304 16.38 91.8954 16.121 91.3914 15.603C90.8874 15.071 90.6354 14.287 90.6354 13.251V6.552H89.0394V5.649L90.6774 5.586L90.8034 2.94L91.8954 2.814V5.586H95.0664V6.552H91.8954Z" fill="#013D5B"/>
<path d="M85.563 16.149V5.691L86.8231 5.523V16.149H85.563ZM86.193 3.024C85.913 3.024 85.682 2.94 85.5 2.772C85.332 2.604 85.248 2.373 85.248 2.079C85.248 1.785 85.332 1.554 85.5 1.386C85.682 1.218 85.913 1.134 86.193 1.134C86.473 1.134 86.6971 1.218 86.8651 1.386C87.0471 1.554 87.138 1.785 87.138 2.079C87.138 2.373 87.0471 2.604 86.8651 2.772C86.6971 2.94 86.473 3.024 86.193 3.024Z" fill="#013D5B"/>
<path d="M73.8941 20.832V5.649L74.9651 5.544L75.0491 6.279C76.2391 5.607 77.3311 5.271 78.3251 5.271C79.6971 5.271 80.7751 5.754 81.5591 6.72C82.3431 7.672 82.7351 8.995 82.7351 10.689C82.7351 12.551 82.2871 13.979 81.3911 14.973C80.5091 15.967 79.2281 16.464 77.5481 16.464C76.6801 16.464 75.8821 16.352 75.1541 16.128V20.664L73.8941 20.832ZM78.1571 6.279C77.6951 6.279 77.1981 6.356 76.6661 6.51C76.1341 6.664 75.6301 6.874 75.1541 7.14V15.12C75.8821 15.344 76.6451 15.456 77.4431 15.456C78.7871 15.456 79.7811 15.071 80.4251 14.301C81.0831 13.517 81.4121 12.32 81.4121 10.71C81.4121 9.268 81.1321 8.169 80.5721 7.413C80.0261 6.657 79.2211 6.279 78.1571 6.279Z" fill="#013D5B"/>
<path d="M69.4519 16.191L69.3679 15.456C68.1639 16.128 66.9739 16.464 65.7979 16.464C64.7199 16.464 63.8659 16.184 63.2359 15.624C62.6059 15.05 62.2909 14.266 62.2909 13.272C62.2909 12.222 62.6409 11.424 63.3409 10.878C64.0549 10.318 65.0979 10.038 66.4699 10.038C67.2959 10.038 68.2339 10.136 69.2839 10.332V8.904C69.2839 7.154 68.2969 6.279 66.3229 6.279C65.8049 6.279 65.2379 6.349 64.6219 6.489C64.0059 6.629 63.4389 6.811 62.9209 7.035V6.048C63.4249 5.81 63.9989 5.621 64.6429 5.481C65.3009 5.341 65.9239 5.271 66.5119 5.271C67.8279 5.271 68.8219 5.586 69.4939 6.216C70.1799 6.832 70.5229 7.728 70.5229 8.904V16.086L69.4519 16.191ZM66.0919 15.456C66.5959 15.456 67.1279 15.379 67.6879 15.225C68.2479 15.071 68.7799 14.861 69.2839 14.595V11.235C68.4019 11.067 67.5339 10.983 66.6799 10.983C65.6019 10.983 64.8179 11.165 64.3279 11.529C63.8379 11.893 63.5929 12.467 63.5929 13.251C63.5929 14.721 64.4259 15.456 66.0919 15.456Z" fill="#013D5B"/>
<path d="M60.1043 15.561C58.9003 16.163 57.6403 16.464 56.3243 16.464C54.4623 16.464 53.0063 15.792 51.9563 14.448C50.9063 13.09 50.3813 11.207 50.3813 8.799C50.3813 6.391 50.9063 4.515 51.9563 3.171C53.0063 1.813 54.4623 1.134 56.3243 1.134C57.5983 1.134 58.8373 1.435 60.0413 2.037V3.108C59.3973 2.8 58.7953 2.576 58.2353 2.436C57.6753 2.296 57.0943 2.226 56.4923 2.226C54.9383 2.226 53.7623 2.786 52.9643 3.906C52.1803 5.012 51.7883 6.643 51.7883 8.799C51.7883 10.955 52.1803 12.593 52.9643 13.713C53.7623 14.819 54.9383 15.372 56.4923 15.372C57.6823 15.372 58.8863 15.078 60.1043 14.49V15.561Z" fill="#013D5B"/>
<path d="M40.0926 6.552V13.272C40.0926 14 40.2466 14.539 40.5546 14.889C40.8626 15.225 41.3386 15.393 41.9826 15.393C42.4026 15.393 42.8786 15.316 43.4106 15.162V16.086C42.8226 16.282 42.2836 16.38 41.7936 16.38C40.8276 16.38 40.0926 16.121 39.5886 15.603C39.0846 15.071 38.8326 14.287 38.8326 13.251V6.552H37.2366V5.649L38.8746 5.586L39.0006 2.94L40.0926 2.814V5.586H43.2636V6.552H40.0926Z" fill="#013D5B"/>
<path d="M28.4706 14.763C29.5206 15.225 30.6056 15.456 31.7256 15.456C33.6156 15.456 34.5606 14.721 34.5606 13.251C34.5606 12.775 34.4206 12.39 34.1406 12.096C33.8746 11.802 33.4266 11.557 32.7966 11.361L31.2006 10.857C30.3046 10.577 29.6536 10.227 29.2476 9.807C28.8416 9.373 28.6386 8.827 28.6386 8.169C28.6386 7.287 28.9816 6.587 29.6676 6.069C30.3676 5.537 31.3056 5.271 32.4816 5.271C33.4756 5.271 34.4206 5.46 35.3166 5.838V6.825C34.3786 6.461 33.4546 6.279 32.5446 6.279C31.7186 6.279 31.0676 6.447 30.5916 6.783C30.1296 7.105 29.8986 7.553 29.8986 8.127C29.8986 8.533 30.0246 8.862 30.2766 9.114C30.5426 9.352 31.0116 9.583 31.6836 9.807L33.3426 10.353C34.1966 10.633 34.8196 11.004 35.2116 11.466C35.6176 11.928 35.8206 12.516 35.8206 13.23C35.8206 14.266 35.4706 15.064 34.7706 15.624C34.0706 16.184 33.0836 16.464 31.8096 16.464C30.6336 16.464 29.5766 16.247 28.6386 15.813L28.4706 14.763Z" fill="#013D5B"/>
<path d="M21.8348 16.464C20.3088 16.464 19.1538 15.995 18.3698 15.057C17.5998 14.105 17.2148 12.705 17.2148 10.857C17.2148 9.023 17.5998 7.637 18.3698 6.699C19.1538 5.747 20.3088 5.271 21.8348 5.271C23.3608 5.271 24.5088 5.747 25.2788 6.699C26.0628 7.637 26.4548 9.023 26.4548 10.857C26.4548 12.705 26.0628 14.105 25.2788 15.057C24.5088 15.995 23.3608 16.464 21.8348 16.464ZM21.8348 15.456C22.9828 15.456 23.8158 15.092 24.3338 14.364C24.8658 13.622 25.1318 12.453 25.1318 10.857C25.1318 9.275 24.8658 8.12 24.3338 7.392C23.8158 6.65 22.9828 6.279 21.8348 6.279C20.6868 6.279 19.8468 6.65 19.3148 7.392C18.7968 8.12 18.5378 9.275 18.5378 10.857C18.5378 12.453 18.7968 13.622 19.3148 14.364C19.8468 15.092 20.6868 15.456 21.8348 15.456Z" fill="#013D5B"/>
<path d="M13.293 16.149L12.495 3.213L7.896 14.868H6.678L2.037 3.192L1.26 16.149H0L1.029 1.449H2.562L7.266 13.377L12.012 1.449H13.545L14.574 16.149H13.293Z" fill="#013D5B"/>
</svg>
