<svg width="165" height="21" viewBox="0 0 165 21" fill="none" xmlns="http://www.w3.org/2000/svg">
<path d="M157.13 15.939V0.168003L158.39 0V10.059L163.346 5.376H164.837L159.65 10.29L165.005 15.939H163.409L158.39 10.605V15.939H157.13Z" fill="#013D5B"/>
<path d="M153.858 15.561C152.892 16.023 151.856 16.254 150.75 16.254C149.14 16.254 147.901 15.778 147.033 14.826C146.165 13.874 145.731 12.509 145.731 10.731C145.731 8.967 146.137 7.581 146.949 6.573C147.761 5.565 148.874 5.061 150.288 5.061C151.534 5.061 152.514 5.453 153.228 6.237C153.956 7.007 154.32 8.064 154.32 9.408C154.32 9.912 154.278 10.395 154.194 10.857H146.97C146.984 13.783 148.279 15.246 150.855 15.246C151.891 15.246 152.892 15.022 153.858 14.574V15.561ZM150.267 6.048C149.315 6.048 148.538 6.398 147.936 7.098C147.334 7.798 147.012 8.736 146.97 9.912H153.102C153.13 9.688 153.144 9.492 153.144 9.324C153.144 8.288 152.892 7.483 152.388 6.909C151.884 6.335 151.177 6.048 150.267 6.048Z" fill="#013D5B"/>
<path d="M143.153 15.561C142.187 16.023 141.151 16.254 140.045 16.254C138.435 16.254 137.196 15.778 136.328 14.826C135.46 13.874 135.026 12.509 135.026 10.731C135.026 8.967 135.432 7.581 136.244 6.573C137.056 5.565 138.169 5.061 139.583 5.061C140.829 5.061 141.809 5.453 142.523 6.237C143.251 7.007 143.615 8.064 143.615 9.408C143.615 9.912 143.573 10.395 143.489 10.857H136.265C136.279 13.783 137.574 15.246 140.15 15.246C141.186 15.246 142.187 15.022 143.153 14.574V15.561ZM139.562 6.048C138.61 6.048 137.833 6.398 137.231 7.098C136.629 7.798 136.307 8.736 136.265 9.912H142.397C142.425 9.688 142.439 9.492 142.439 9.324C142.439 8.288 142.187 7.483 141.683 6.909C141.179 6.335 140.472 6.048 139.562 6.048Z" fill="#013D5B"/>
<path d="M129.277 15.939L126.442 6.783L123.691 15.939H122.494L119.134 5.376H120.415L123.103 14.385L125.749 5.376H127.156L129.844 14.448L132.511 5.376H133.729L130.474 15.939H129.277Z" fill="#013D5B"/>
<path d="M110.974 15.981L110.89 15.246C109.686 15.918 108.496 16.254 107.32 16.254C106.242 16.254 105.388 15.974 104.758 15.414C104.128 14.84 103.813 14.056 103.813 13.062C103.813 12.012 104.163 11.214 104.863 10.668C105.577 10.108 106.62 9.828 107.992 9.828C108.818 9.828 109.756 9.926 110.806 10.122V8.694C110.806 6.944 109.819 6.069 107.845 6.069C107.327 6.069 106.76 6.139 106.144 6.279C105.528 6.419 104.961 6.601 104.443 6.825V5.838C104.947 5.6 105.521 5.411 106.165 5.271C106.823 5.131 107.446 5.061 108.034 5.061C109.35 5.061 110.344 5.376 111.016 6.006C111.702 6.622 112.045 7.518 112.045 8.694V15.876L110.974 15.981ZM107.614 15.246C108.118 15.246 108.65 15.169 109.21 15.015C109.77 14.861 110.302 14.651 110.806 14.385V11.025C109.924 10.857 109.056 10.773 108.202 10.773C107.124 10.773 106.34 10.955 105.85 11.319C105.36 11.683 105.115 12.257 105.115 13.041C105.115 14.511 105.948 15.246 107.614 15.246Z" fill="#013D5B"/>
<path d="M89.1885 14.553C90.2385 15.015 91.3235 15.246 92.4435 15.246C94.3335 15.246 95.2785 14.511 95.2785 13.041C95.2785 12.565 95.1385 12.18 94.8585 11.886C94.5925 11.592 94.1445 11.347 93.5145 11.151L91.9185 10.647C91.0225 10.367 90.3715 10.017 89.9655 9.597C89.5595 9.163 89.3565 8.617 89.3565 7.959C89.3565 7.077 89.6995 6.377 90.3855 5.859C91.0855 5.327 92.0235 5.061 93.1995 5.061C94.1935 5.061 95.1385 5.25 96.0345 5.628V6.615C95.0965 6.251 94.1725 6.069 93.2625 6.069C92.4365 6.069 91.7855 6.237 91.3095 6.573C90.8475 6.895 90.6165 7.343 90.6165 7.917C90.6165 8.323 90.7425 8.652 90.9945 8.904C91.2605 9.142 91.7295 9.373 92.4015 9.597L94.0605 10.143C94.9145 10.423 95.5375 10.794 95.9295 11.256C96.3355 11.718 96.5385 12.306 96.5385 13.02C96.5385 14.056 96.1885 14.854 95.4885 15.414C94.7885 15.974 93.8015 16.254 92.5275 16.254C91.3515 16.254 90.2945 16.037 89.3565 15.603L89.1885 14.553Z" fill="#013D5B"/>
<path d="M78.9403 19.572C79.9343 19.39 80.7113 19.04 81.2713 18.522C81.8313 18.004 82.3493 17.178 82.8253 16.044L78.7933 5.376H80.1163L83.4133 14.637L86.8153 5.376H88.0753L84.0433 15.834C83.6653 16.842 83.2663 17.661 82.8463 18.291C82.4403 18.935 81.9573 19.439 81.3973 19.803C80.8373 20.181 80.1093 20.468 79.2133 20.664L78.9403 19.572Z" fill="#013D5B"/>
<path d="M75.9471 15.981L75.8631 15.246C74.6591 15.918 73.4691 16.254 72.2931 16.254C71.2151 16.254 70.3611 15.974 69.7311 15.414C69.1011 14.84 68.7861 14.056 68.7861 13.062C68.7861 12.012 69.1361 11.214 69.8361 10.668C70.5501 10.108 71.5931 9.828 72.9651 9.828C73.7911 9.828 74.7291 9.926 75.7791 10.122V8.694C75.7791 6.944 74.7921 6.069 72.8181 6.069C72.3001 6.069 71.7331 6.139 71.1171 6.279C70.5011 6.419 69.9341 6.601 69.4161 6.825V5.838C69.9201 5.6 70.4941 5.411 71.1381 5.271C71.7961 5.131 72.4191 5.061 73.0071 5.061C74.3231 5.061 75.3171 5.376 75.9891 6.006C76.6751 6.622 77.0181 7.518 77.0181 8.694V15.876L75.9471 15.981ZM72.5871 15.246C73.0911 15.246 73.6231 15.169 74.1831 15.015C74.7431 14.861 75.2751 14.651 75.7791 14.385V11.025C74.8971 10.857 74.0291 10.773 73.1751 10.773C72.0971 10.773 71.3131 10.955 70.8231 11.319C70.3331 11.683 70.0881 12.257 70.0881 13.041C70.0881 14.511 70.9211 15.246 72.5871 15.246Z" fill="#013D5B"/>
<path d="M65.9582 0V15.876L64.8872 15.981L64.8032 15.246C63.6132 15.918 62.5212 16.254 61.5272 16.254C60.1552 16.254 59.0772 15.778 58.2932 14.826C57.5092 13.86 57.1172 12.53 57.1172 10.836C57.1172 8.974 57.5582 7.546 58.4402 6.552C59.3362 5.558 60.6242 5.061 62.3042 5.061C63.1722 5.061 63.9702 5.173 64.6982 5.397V0.168003L65.9582 0ZM61.6952 15.246C62.1572 15.246 62.6542 15.169 63.1862 15.015C63.7182 14.861 64.2222 14.651 64.6982 14.385V6.405C63.9702 6.181 63.2072 6.069 62.4092 6.069C61.0652 6.069 60.0642 6.461 59.4062 7.245C58.7622 8.015 58.4402 9.205 58.4402 10.815C58.4402 12.257 58.7132 13.356 59.2592 14.112C59.8192 14.868 60.6312 15.246 61.6952 15.246Z" fill="#013D5B"/>
<path d="M47.9263 15.939V8.652C47.9263 6.93 47.0513 6.069 45.3013 6.069C44.8393 6.069 44.3283 6.146 43.7683 6.3C43.2223 6.454 42.6833 6.664 42.1513 6.93V15.939H40.8913V5.439L41.9623 5.334L42.0463 6.069C43.2643 5.397 44.4543 5.061 45.6163 5.061C46.7503 5.061 47.6253 5.355 48.2413 5.943C48.8713 6.531 49.1863 7.364 49.1863 8.442V15.939H47.9263Z" fill="#013D5B"/>
<path d="M37.6202 15.561C36.6542 16.023 35.6182 16.254 34.5122 16.254C32.9022 16.254 31.6632 15.778 30.7952 14.826C29.9272 13.874 29.4932 12.509 29.4932 10.731C29.4932 8.967 29.8992 7.581 30.7112 6.573C31.5232 5.565 32.6362 5.061 34.0502 5.061C35.2962 5.061 36.2762 5.453 36.9902 6.237C37.7182 7.007 38.0822 8.064 38.0822 9.408C38.0822 9.912 38.0402 10.395 37.9562 10.857H30.7322C30.7462 13.783 32.0412 15.246 34.6172 15.246C35.6532 15.246 36.6542 15.022 37.6202 14.574V15.561ZM34.0292 6.048C33.0772 6.048 32.3002 6.398 31.6982 7.098C31.0962 7.798 30.7742 8.736 30.7322 9.912H36.8642C36.8922 9.688 36.9062 9.492 36.9062 9.324C36.9062 8.288 36.6542 7.483 36.1502 6.909C35.6462 6.335 34.9392 6.048 34.0292 6.048Z" fill="#013D5B"/>
<path d="M23.1671 15.939L19.1771 5.376H20.5001L23.7971 14.595L27.1991 5.376H28.4591L24.3851 15.939H23.1671Z" fill="#013D5B"/>
<path d="M17.502 15.561C16.536 16.023 15.5 16.254 14.394 16.254C12.784 16.254 11.545 15.778 10.677 14.826C9.80902 13.874 9.37502 12.509 9.37502 10.731C9.37502 8.967 9.78102 7.581 10.593 6.573C11.405 5.565 12.518 5.061 13.932 5.061C15.178 5.061 16.158 5.453 16.872 6.237C17.6 7.007 17.964 8.064 17.964 9.408C17.964 9.912 17.922 10.395 17.838 10.857H10.614C10.628 13.783 11.923 15.246 14.499 15.246C15.535 15.246 16.536 15.022 17.502 14.574V15.561ZM13.911 6.048C12.959 6.048 12.182 6.398 11.58 7.098C10.978 7.798 10.656 8.736 10.614 9.912H16.746C16.774 9.688 16.788 9.492 16.788 9.324C16.788 8.288 16.536 7.483 16.032 6.909C15.528 6.335 14.821 6.048 13.911 6.048Z" fill="#013D5B"/>
<path d="M0 14.553C1.05 15.015 2.135 15.246 3.255 15.246C5.145 15.246 6.09 14.511 6.09 13.041C6.09 12.565 5.95 12.18 5.67 11.886C5.404 11.592 4.956 11.347 4.326 11.151L2.73 10.647C1.834 10.367 1.183 10.017 0.777 9.597C0.371 9.163 0.168 8.617 0.168 7.959C0.168 7.077 0.511 6.377 1.197 5.859C1.897 5.327 2.835 5.061 4.011 5.061C5.005 5.061 5.95 5.25 6.846 5.628V6.615C5.908 6.251 4.984 6.069 4.074 6.069C3.248 6.069 2.597 6.237 2.121 6.573C1.659 6.895 1.428 7.343 1.428 7.917C1.428 8.323 1.554 8.652 1.806 8.904C2.072 9.142 2.541 9.373 3.213 9.597L4.872 10.143C5.726 10.423 6.349 10.794 6.741 11.256C7.147 11.718 7.35 12.306 7.35 13.02C7.35 14.056 7 14.854 6.3 15.414C5.6 15.974 4.613 16.254 3.339 16.254C2.163 16.254 1.106 16.037 0.168 15.603L0 14.553Z" fill="#013D5B"/>
</svg>
