<svg width="118" height="15" viewBox="0 0 118 15" fill="none" xmlns="http://www.w3.org/2000/svg">
<path d="M112.235 11.385V0.120003L113.135 0V7.185L116.675 3.84H117.74L114.035 7.35L117.86 11.385H116.72L113.135 7.575V11.385H112.235Z" fill="#013D5B"/>
<path d="M109.899 11.115C109.209 11.445 108.469 11.61 107.679 11.61C106.529 11.61 105.644 11.27 105.024 10.59C104.404 9.90999 104.094 8.93499 104.094 7.66499C104.094 6.40499 104.384 5.41499 104.964 4.69499C105.544 3.97499 106.339 3.61499 107.349 3.61499C108.239 3.61499 108.939 3.89499 109.449 4.45499C109.969 5.00499 110.229 5.75999 110.229 6.71999C110.229 7.07999 110.199 7.42499 110.139 7.75499H104.979C104.989 9.84499 105.914 10.89 107.754 10.89C108.494 10.89 109.209 10.73 109.899 10.41V11.115ZM107.334 4.31999C106.654 4.31999 106.099 4.56999 105.669 5.06999C105.239 5.56999 105.009 6.23999 104.979 7.07999H109.359C109.379 6.91999 109.389 6.77999 109.389 6.65999C109.389 5.91999 109.209 5.34499 108.849 4.93499C108.489 4.52499 107.984 4.31999 107.334 4.31999Z" fill="#013D5B"/>
<path d="M102.252 11.115C101.562 11.445 100.822 11.61 100.032 11.61C98.8824 11.61 97.9974 11.27 97.3774 10.59C96.7574 9.90999 96.4474 8.93499 96.4474 7.66499C96.4474 6.40499 96.7375 5.41499 97.3175 4.69499C97.8975 3.97499 98.6924 3.61499 99.7024 3.61499C100.592 3.61499 101.292 3.89499 101.802 4.45499C102.322 5.00499 102.582 5.75999 102.582 6.71999C102.582 7.07999 102.552 7.42499 102.492 7.75499H97.3325C97.3425 9.84499 98.2675 10.89 100.107 10.89C100.847 10.89 101.562 10.73 102.252 10.41V11.115ZM99.6874 4.31999C99.0074 4.31999 98.4524 4.56999 98.0224 5.06999C97.5924 5.56999 97.3625 6.23999 97.3325 7.07999H101.712C101.732 6.91999 101.742 6.77999 101.742 6.65999C101.742 5.91999 101.562 5.34499 101.202 4.93499C100.842 4.52499 100.337 4.31999 99.6874 4.31999Z" fill="#013D5B"/>
<path d="M92.3405 11.385L90.3155 4.84503L88.3505 11.385H87.4955L85.0955 3.84003H86.0105L87.9305 10.275L89.8205 3.84003H90.8255L92.7455 10.32L94.6505 3.84003H95.5205L93.1955 11.385H92.3405Z" fill="#013D5B"/>
<path d="M79.2675 11.415L79.2075 10.89C78.3475 11.37 77.4975 11.61 76.6575 11.61C75.8875 11.61 75.2775 11.41 74.8275 11.01C74.3775 10.6 74.1525 10.04 74.1525 9.32999C74.1525 8.57999 74.4025 8.00999 74.9025 7.61999C75.4125 7.21999 76.1575 7.01999 77.1375 7.01999C77.7275 7.01999 78.3975 7.08999 79.1475 7.22999V6.20999C79.1475 4.95999 78.4425 4.33499 77.0325 4.33499C76.6625 4.33499 76.2575 4.38499 75.8175 4.48499C75.3775 4.58499 74.9725 4.71499 74.6025 4.87499V4.16999C74.9625 3.99999 75.3725 3.86499 75.8325 3.76499C76.3025 3.66499 76.7475 3.61499 77.1675 3.61499C78.1075 3.61499 78.8175 3.83999 79.2975 4.28999C79.7875 4.72999 80.0325 5.36999 80.0325 6.20999V11.34L79.2675 11.415ZM76.8675 10.89C77.2275 10.89 77.6075 10.835 78.0075 10.725C78.4075 10.615 78.7875 10.465 79.1475 10.275V7.87499C78.5175 7.75499 77.8975 7.69499 77.2875 7.69499C76.5175 7.69499 75.9575 7.82499 75.6075 8.08499C75.2575 8.34499 75.0825 8.75499 75.0825 9.31499C75.0825 10.365 75.6775 10.89 76.8675 10.89Z" fill="#013D5B"/>
<path d="M63.7061 10.395C64.4561 10.725 65.2311 10.89 66.0311 10.89C67.3811 10.89 68.0561 10.365 68.0561 9.31499C68.0561 8.97499 67.956 8.69999 67.7561 8.48999C67.566 8.27999 67.2461 8.10499 66.7961 7.96499L65.6561 7.60499C65.0161 7.40499 64.5511 7.15499 64.2611 6.85499C63.9711 6.54499 63.826 6.15499 63.826 5.68499C63.826 5.05499 64.0711 4.55499 64.5611 4.18499C65.0611 3.80499 65.7311 3.61499 66.5711 3.61499C67.2811 3.61499 67.9561 3.74999 68.5961 4.01999V4.72499C67.9261 4.46499 67.2661 4.33499 66.6161 4.33499C66.0261 4.33499 65.5611 4.45499 65.2211 4.69499C64.8911 4.92499 64.7261 5.24499 64.7261 5.65499C64.7261 5.94499 64.8161 6.17999 64.9961 6.35999C65.1861 6.52999 65.5211 6.69499 66.0011 6.85499L67.1861 7.24499C67.7961 7.44499 68.241 7.70999 68.521 8.03999C68.811 8.36999 68.9561 8.78999 68.9561 9.29999C68.9561 10.04 68.7061 10.61 68.2061 11.01C67.7061 11.41 67.001 11.61 66.091 11.61C65.251 11.61 64.496 11.455 63.826 11.145L63.7061 10.395Z" fill="#013D5B"/>
<path d="M56.3859 13.98C57.0959 13.85 57.6509 13.6 58.0509 13.23C58.4509 12.86 58.8209 12.27 59.1609 11.46L56.2809 3.84003H57.2259L59.5809 10.455L62.0109 3.84003H62.9109L60.0309 11.31C59.7609 12.03 59.4759 12.615 59.1759 13.065C58.8859 13.525 58.5409 13.885 58.1409 14.145C57.7409 14.415 57.2209 14.62 56.5809 14.76L56.3859 13.98Z" fill="#013D5B"/>
<path d="M54.248 11.415L54.188 10.89C53.328 11.37 52.478 11.61 51.638 11.61C50.868 11.61 50.258 11.41 49.808 11.01C49.358 10.6 49.133 10.04 49.133 9.32999C49.133 8.57999 49.383 8.00999 49.883 7.61999C50.393 7.21999 51.138 7.01999 52.118 7.01999C52.708 7.01999 53.378 7.08999 54.128 7.22999V6.20999C54.128 4.95999 53.423 4.33499 52.013 4.33499C51.643 4.33499 51.238 4.38499 50.798 4.48499C50.358 4.58499 49.953 4.71499 49.583 4.87499V4.16999C49.943 3.99999 50.353 3.86499 50.813 3.76499C51.283 3.66499 51.728 3.61499 52.148 3.61499C53.088 3.61499 53.798 3.83999 54.278 4.28999C54.768 4.72999 55.013 5.36999 55.013 6.20999V11.34L54.248 11.415ZM51.848 10.89C52.208 10.89 52.588 10.835 52.988 10.725C53.388 10.615 53.768 10.465 54.128 10.275V7.87499C53.498 7.75499 52.878 7.69499 52.268 7.69499C51.498 7.69499 50.938 7.82499 50.588 8.08499C50.238 8.34499 50.063 8.75499 50.063 9.31499C50.063 10.365 50.658 10.89 51.848 10.89Z" fill="#013D5B"/>
<path d="M47.113 0V11.34L46.348 11.415L46.288 10.89C45.438 11.37 44.658 11.61 43.948 11.61C42.968 11.61 42.198 11.27 41.638 10.59C41.078 9.9 40.798 8.95 40.798 7.74C40.798 6.41 41.113 5.39 41.743 4.68C42.383 3.97 43.303 3.615 44.503 3.615C45.123 3.615 45.693 3.695 46.213 3.855V0.120003L47.113 0ZM44.068 10.89C44.398 10.89 44.753 10.835 45.133 10.725C45.513 10.615 45.873 10.465 46.213 10.275V4.575C45.693 4.415 45.148 4.335 44.578 4.335C43.618 4.335 42.903 4.615 42.433 5.175C41.973 5.725 41.743 6.575 41.743 7.725C41.743 8.755 41.938 9.54 42.328 10.08C42.728 10.62 43.308 10.89 44.068 10.89Z" fill="#013D5B"/>
<path d="M34.2331 11.385V6.17999C34.2331 4.94999 33.6081 4.33499 32.3581 4.33499C32.0281 4.33499 31.6631 4.38999 31.2631 4.49999C30.8731 4.60999 30.4881 4.75999 30.1081 4.94999V11.385H29.2081V3.88499L29.9731 3.80999L30.0331 4.33499C30.9031 3.85499 31.7531 3.61499 32.5831 3.61499C33.3931 3.61499 34.0181 3.82499 34.4581 4.24499C34.9081 4.66499 35.1331 5.25999 35.1331 6.02999V11.385H34.2331Z" fill="#013D5B"/>
<path d="M26.8716 11.115C26.1816 11.445 25.4416 11.61 24.6516 11.61C23.5016 11.61 22.6166 11.27 21.9966 10.59C21.3766 9.90999 21.0666 8.93499 21.0666 7.66499C21.0666 6.40499 21.3566 5.41499 21.9366 4.69499C22.5166 3.97499 23.3116 3.61499 24.3216 3.61499C25.2116 3.61499 25.9116 3.89499 26.4216 4.45499C26.9416 5.00499 27.2016 5.75999 27.2016 6.71999C27.2016 7.07999 27.1716 7.42499 27.1116 7.75499H21.9516C21.9616 9.84499 22.8866 10.89 24.7266 10.89C25.4666 10.89 26.1816 10.73 26.8716 10.41V11.115ZM24.3066 4.31999C23.6266 4.31999 23.0716 4.56999 22.6416 5.06999C22.2116 5.56999 21.9816 6.23999 21.9516 7.07999H26.3316C26.3516 6.91999 26.3616 6.77999 26.3616 6.65999C26.3616 5.91999 26.1816 5.34499 25.8216 4.93499C25.4616 4.52499 24.9566 4.31999 24.3066 4.31999Z" fill="#013D5B"/>
<path d="M16.5479 11.385L13.6979 3.84003H14.6429L16.9979 10.425L19.4279 3.84003H20.3279L17.4179 11.385H16.5479Z" fill="#013D5B"/>
<path d="M12.5015 11.115C11.8115 11.445 11.0715 11.61 10.2815 11.61C9.13147 11.61 8.24647 11.27 7.62647 10.59C7.00647 9.90999 6.69647 8.93499 6.69647 7.66499C6.69647 6.40499 6.98647 5.41499 7.56647 4.69499C8.14647 3.97499 8.94147 3.61499 9.95147 3.61499C10.8415 3.61499 11.5415 3.89499 12.0515 4.45499C12.5715 5.00499 12.8315 5.75999 12.8315 6.71999C12.8315 7.07999 12.8015 7.42499 12.7415 7.75499H7.58147C7.59147 9.84499 8.51647 10.89 10.3565 10.89C11.0965 10.89 11.8115 10.73 12.5015 10.41V11.115ZM9.93647 4.31999C9.25647 4.31999 8.70147 4.56999 8.27147 5.06999C7.84147 5.56999 7.61147 6.23999 7.58147 7.07999H11.9615C11.9815 6.91999 11.9915 6.77999 11.9915 6.65999C11.9915 5.91999 11.8115 5.34499 11.4515 4.93499C11.0915 4.52499 10.5865 4.31999 9.93647 4.31999Z" fill="#013D5B"/>
<path d="M0 10.395C0.75 10.725 1.525 10.89 2.325 10.89C3.675 10.89 4.35 10.365 4.35 9.31499C4.35 8.97499 4.25 8.69999 4.05 8.48999C3.86 8.27999 3.54 8.10499 3.09 7.96499L1.95 7.60499C1.31 7.40499 0.845 7.15499 0.555 6.85499C0.265 6.54499 0.12 6.15499 0.12 5.68499C0.12 5.05499 0.365 4.55499 0.855 4.18499C1.355 3.80499 2.025 3.61499 2.865 3.61499C3.575 3.61499 4.25 3.74999 4.89 4.01999V4.72499C4.22 4.46499 3.56 4.33499 2.91 4.33499C2.32 4.33499 1.855 4.45499 1.515 4.69499C1.185 4.92499 1.02 5.24499 1.02 5.65499C1.02 5.94499 1.11 6.17999 1.29 6.35999C1.48 6.52999 1.815 6.69499 2.295 6.85499L3.48 7.24499C4.09 7.44499 4.535 7.70999 4.815 8.03999C5.105 8.36999 5.25 8.78999 5.25 9.29999C5.25 10.04 5 10.61 4.5 11.01C4 11.41 3.295 11.61 2.385 11.61C1.545 11.61 0.79 11.455 0.12 11.145L0 10.395Z" fill="#013D5B"/>
</svg>
