<svg width="109" height="15" viewBox="0 0 109 15" fill="none" xmlns="http://www.w3.org/2000/svg">
<path d="M108.614 11.115C107.924 11.445 107.184 11.61 106.394 11.61C105.244 11.61 104.359 11.27 103.739 10.59C103.119 9.91002 102.809 8.93502 102.809 7.66502C102.809 6.40502 103.099 5.41502 103.679 4.69502C104.259 3.97502 105.054 3.61502 106.064 3.61502C106.954 3.61502 107.654 3.89502 108.164 4.45502C108.684 5.00502 108.944 5.76002 108.944 6.72002C108.944 7.08002 108.914 7.42502 108.854 7.75502H103.694C103.704 9.84502 104.629 10.89 106.469 10.89C107.209 10.89 107.924 10.73 108.614 10.41V11.115ZM106.049 4.32002C105.369 4.32002 104.814 4.57002 104.384 5.07002C103.954 5.57002 103.724 6.24002 103.694 7.08002H108.074C108.094 6.92002 108.104 6.78002 108.104 6.66002C108.104 5.92002 107.924 5.34502 107.564 4.93502C107.204 4.52502 106.699 4.32002 106.049 4.32002Z" fill="#013D5B"/>
<path d="M99.994 11.385V6.18002C99.994 4.95002 99.369 4.33502 98.119 4.33502C97.789 4.33502 97.424 4.39002 97.024 4.50002C96.634 4.61002 96.249 4.76002 95.869 4.95002V11.385H94.969V3.88502L95.734 3.81002L95.794 4.33502C96.664 3.85502 97.514 3.61502 98.344 3.61502C99.154 3.61502 99.779 3.82502 100.219 4.24502C100.669 4.66502 100.894 5.26002 100.894 6.03002V11.385H99.994Z" fill="#013D5B"/>
<path d="M88.4846 10.845C90.6846 10.845 91.7846 9.275 91.7846 6.135C91.7846 2.995 90.6846 1.425 88.4846 1.425C86.2846 1.425 85.1846 2.995 85.1846 6.135C85.1846 9.275 86.2846 10.845 88.4846 10.845ZM88.4846 11.61C87.1046 11.61 86.0446 11.135 85.3046 10.185C84.5646 9.235 84.1946 7.885 84.1946 6.135C84.1946 4.385 84.5646 3.035 85.3046 2.085C86.0446 1.135 87.1046 0.660004 88.4846 0.660004C89.8646 0.660004 90.9246 1.135 91.6646 2.085C92.4046 3.035 92.7746 4.385 92.7746 6.135C92.7746 7.885 92.4046 9.235 91.6646 10.185C90.9246 11.135 89.8646 11.61 88.4846 11.61Z" fill="#013D5B"/>
<path d="M77.3616 11.385V0.12L78.2616 0V11.385H77.3616Z" fill="#013D5B"/>
<path d="M74.1886 11.415L74.1286 10.89C73.2686 11.37 72.4186 11.61 71.5786 11.61C70.8086 11.61 70.1986 11.41 69.7486 11.01C69.2986 10.6 69.0736 10.04 69.0736 9.33002C69.0736 8.58002 69.3236 8.01002 69.8236 7.62002C70.3336 7.22002 71.0786 7.02002 72.0586 7.02002C72.6486 7.02002 73.3186 7.09002 74.0686 7.23002V6.21002C74.0686 4.96002 73.3636 4.33502 71.9536 4.33502C71.5836 4.33502 71.1786 4.38502 70.7386 4.48502C70.2986 4.58502 69.8936 4.71502 69.5236 4.87502V4.17002C69.8836 4.00002 70.2936 3.86502 70.7536 3.76502C71.2236 3.66502 71.6686 3.61502 72.0886 3.61502C73.0286 3.61502 73.7386 3.84002 74.2186 4.29002C74.7086 4.73002 74.9536 5.37002 74.9536 6.21002V11.34L74.1886 11.415ZM71.7886 10.89C72.1486 10.89 72.5286 10.835 72.9286 10.725C73.3286 10.615 73.7086 10.465 74.0686 10.275V7.87502C73.4386 7.75502 72.8186 7.69502 72.2086 7.69502C71.4386 7.69502 70.8786 7.82502 70.5286 8.08502C70.1786 8.34502 70.0036 8.75502 70.0036 9.31502C70.0036 10.365 70.5986 10.89 71.7886 10.89Z" fill="#013D5B"/>
<path d="M65.6395 4.53002V9.33002C65.6395 9.85002 65.7495 10.235 65.9695 10.485C66.1895 10.725 66.5295 10.845 66.9895 10.845C67.2895 10.845 67.6295 10.79 68.0095 10.68V11.34C67.5895 11.48 67.2045 11.55 66.8545 11.55C66.1645 11.55 65.6395 11.365 65.2795 10.995C64.9195 10.615 64.7395 10.055 64.7395 9.31502V4.53002H63.5995V3.88502L64.7695 3.84002L64.8595 1.95002L65.6395 1.86002V3.84002H67.9045V4.53002H65.6395Z" fill="#013D5B"/>
<path d="M61.1164 11.385V3.915L62.0164 3.795V11.385H61.1164ZM61.5664 2.01C61.3664 2.01 61.2014 1.95 61.0714 1.83C60.9514 1.71 60.8914 1.545 60.8914 1.335C60.8914 1.125 60.9514 0.960004 61.0714 0.840004C61.2014 0.720004 61.3664 0.660004 61.5664 0.660004C61.7664 0.660004 61.9264 0.720004 62.0464 0.840004C62.1764 0.960004 62.2414 1.125 62.2414 1.335C62.2414 1.545 62.1764 1.71 62.0464 1.83C61.9264 1.95 61.7664 2.01 61.5664 2.01Z" fill="#013D5B"/>
<path d="M52.7815 14.73V3.88502L53.5465 3.81002L53.6065 4.33502C54.4565 3.85502 55.2365 3.61502 55.9465 3.61502C56.9265 3.61502 57.6965 3.96002 58.2565 4.65002C58.8165 5.33002 59.0965 6.27502 59.0965 7.48502C59.0965 8.81502 58.7765 9.83502 58.1365 10.545C57.5065 11.255 56.5915 11.61 55.3915 11.61C54.7715 11.61 54.2015 11.53 53.6815 11.37V14.61L52.7815 14.73ZM55.8265 4.33502C55.4965 4.33502 55.1415 4.39002 54.7615 4.50002C54.3815 4.61002 54.0215 4.76002 53.6815 4.95002V10.65C54.2015 10.81 54.7465 10.89 55.3165 10.89C56.2765 10.89 56.9865 10.615 57.4465 10.065C57.9165 9.50502 58.1515 8.65002 58.1515 7.50002C58.1515 6.47002 57.9515 5.68502 57.5515 5.14502C57.1615 4.60502 56.5865 4.33502 55.8265 4.33502Z" fill="#013D5B"/>
<path d="M49.6085 11.415L49.5485 10.89C48.6885 11.37 47.8385 11.61 46.9985 11.61C46.2285 11.61 45.6185 11.41 45.1685 11.01C44.7185 10.6 44.4935 10.04 44.4935 9.33002C44.4935 8.58002 44.7435 8.01002 45.2435 7.62002C45.7535 7.22002 46.4985 7.02002 47.4785 7.02002C48.0685 7.02002 48.7385 7.09002 49.4885 7.23002V6.21002C49.4885 4.96002 48.7835 4.33502 47.3735 4.33502C47.0035 4.33502 46.5985 4.38502 46.1585 4.48502C45.7185 4.58502 45.3135 4.71502 44.9435 4.87502V4.17002C45.3035 4.00002 45.7135 3.86502 46.1735 3.76502C46.6435 3.66502 47.0885 3.61502 47.5085 3.61502C48.4485 3.61502 49.1585 3.84002 49.6385 4.29002C50.1285 4.73002 50.3735 5.37002 50.3735 6.21002V11.34L49.6085 11.415ZM47.2085 10.89C47.5685 10.89 47.9485 10.835 48.3485 10.725C48.7485 10.615 49.1285 10.465 49.4885 10.275V7.87502C48.8585 7.75502 48.2385 7.69502 47.6285 7.69502C46.8585 7.69502 46.2985 7.82502 45.9485 8.08502C45.5985 8.34502 45.4235 8.75502 45.4235 9.31502C45.4235 10.365 46.0185 10.89 47.2085 10.89Z" fill="#013D5B"/>
<path d="M42.9316 10.965C42.0716 11.395 41.1716 11.61 40.2316 11.61C38.9016 11.61 37.8616 11.13 37.1116 10.17C36.3616 9.2 35.9866 7.855 35.9866 6.135C35.9866 4.415 36.3616 3.075 37.1116 2.115C37.8616 1.145 38.9016 0.660004 40.2316 0.660004C41.1416 0.660004 42.0266 0.875003 42.8866 1.305V2.07C42.4266 1.85 41.9966 1.69 41.5966 1.59C41.1966 1.49 40.7816 1.44 40.3516 1.44C39.2416 1.44 38.4016 1.84 37.8316 2.64C37.2716 3.43 36.9916 4.595 36.9916 6.135C36.9916 7.675 37.2716 8.845 37.8316 9.645C38.4016 10.435 39.2416 10.83 40.3516 10.83C41.2016 10.83 42.0616 10.62 42.9316 10.2V10.965Z" fill="#013D5B"/>
<path d="M28.6376 4.53002V9.33002C28.6376 9.85002 28.7476 10.235 28.9676 10.485C29.1876 10.725 29.5276 10.845 29.9876 10.845C30.2876 10.845 30.6276 10.79 31.0076 10.68V11.34C30.5876 11.48 30.2026 11.55 29.8526 11.55C29.1626 11.55 28.6376 11.365 28.2776 10.995C27.9176 10.615 27.7376 10.055 27.7376 9.31502V4.53002H26.5976V3.88502L27.7676 3.84002L27.8576 1.95002L28.6376 1.86002V3.84002H30.9026V4.53002H28.6376Z" fill="#013D5B"/>
<path d="M20.3361 10.395C21.0861 10.725 21.8611 10.89 22.6611 10.89C24.0111 10.89 24.6861 10.365 24.6861 9.31502C24.6861 8.97502 24.5861 8.70002 24.3861 8.49002C24.1961 8.28002 23.8761 8.10502 23.4261 7.96502L22.2861 7.60502C21.6461 7.40502 21.1811 7.15502 20.8911 6.85502C20.6011 6.54502 20.4561 6.15502 20.4561 5.68502C20.4561 5.05502 20.7011 4.55502 21.1911 4.18502C21.6911 3.80502 22.3611 3.61502 23.2011 3.61502C23.9111 3.61502 24.5861 3.75002 25.2261 4.02002V4.72502C24.5561 4.46502 23.8961 4.33502 23.2461 4.33502C22.6561 4.33502 22.1911 4.45502 21.8511 4.69502C21.5211 4.92502 21.3561 5.24502 21.3561 5.65502C21.3561 5.94502 21.4461 6.18002 21.6261 6.36002C21.8161 6.53002 22.1511 6.69502 22.6311 6.85502L23.8161 7.24502C24.4261 7.44502 24.8711 7.71002 25.1511 8.04002C25.4411 8.37002 25.5861 8.79002 25.5861 9.30002C25.5861 10.04 25.3361 10.61 24.8361 11.01C24.3361 11.41 23.6311 11.61 22.7211 11.61C21.8811 11.61 21.1261 11.455 20.4561 11.145L20.3361 10.395Z" fill="#013D5B"/>
<path d="M15.5963 11.61C14.5063 11.61 13.6813 11.275 13.1213 10.605C12.5713 9.92502 12.2963 8.92502 12.2963 7.60502C12.2963 6.29502 12.5713 5.30502 13.1213 4.63502C13.6813 3.95502 14.5063 3.61502 15.5963 3.61502C16.6863 3.61502 17.5063 3.95502 18.0563 4.63502C18.6163 5.30502 18.8963 6.29502 18.8963 7.60502C18.8963 8.92502 18.6163 9.92502 18.0563 10.605C17.5063 11.275 16.6863 11.61 15.5963 11.61ZM15.5963 10.89C16.4163 10.89 17.0113 10.63 17.3813 10.11C17.7613 9.58002 17.9513 8.74502 17.9513 7.60502C17.9513 6.47502 17.7613 5.65002 17.3813 5.13002C17.0113 4.60002 16.4163 4.33502 15.5963 4.33502C14.7763 4.33502 14.1763 4.60002 13.7963 5.13002C13.4263 5.65002 13.2413 6.47502 13.2413 7.60502C13.2413 8.74502 13.4263 9.58002 13.7963 10.11C14.1763 10.63 14.7763 10.89 15.5963 10.89Z" fill="#013D5B"/>
<path d="M9.495 11.385L8.925 2.14501L5.64 10.47H4.77L1.455 2.13001L0.9 11.385H0L0.735 0.88501H1.83L5.19 9.40501L8.58 0.88501H9.675L10.41 11.385H9.495Z" fill="#013D5B"/>
</svg>
