<svg width="94" height="15" viewBox="0 0 94 15" fill="none" xmlns="http://www.w3.org/2000/svg">
<path d="M92.7915 11.535V6.33002C92.7915 5.10001 92.1665 4.48501 90.9165 4.48501C90.5865 4.48501 90.2215 4.54001 89.8215 4.65001C89.4315 4.76001 89.0465 4.91002 88.6665 5.10002V11.535H87.7665V4.03502L88.5315 3.96001L88.5915 4.48501C89.4615 4.00501 90.3115 3.76501 91.1415 3.76501C91.9515 3.76501 92.5765 3.97502 93.0165 4.39502C93.4665 4.81502 93.6915 5.41002 93.6915 6.18002V11.535H92.7915Z" fill="#013D5B"/>
<path d="M85.4301 11.265C84.7401 11.595 84.0001 11.76 83.2101 11.76C82.0601 11.76 81.1751 11.42 80.5551 10.74C79.9351 10.06 79.6251 9.08502 79.6251 7.81502C79.6251 6.55502 79.9151 5.56501 80.4951 4.84501C81.0751 4.12501 81.8701 3.76501 82.8801 3.76501C83.7701 3.76501 84.4701 4.04501 84.9801 4.60501C85.5001 5.15501 85.7601 5.91001 85.7601 6.87001C85.7601 7.23001 85.7301 7.57501 85.6701 7.90501H80.5101C80.5201 9.99501 81.4451 11.04 83.2851 11.04C84.0251 11.04 84.7401 10.88 85.4301 10.56V11.265ZM82.8651 4.47001C82.1851 4.47001 81.6301 4.72001 81.2001 5.22001C80.7701 5.72001 80.5401 6.39001 80.5101 7.23001H84.8901C84.9101 7.07001 84.9201 6.93002 84.9201 6.81001C84.9201 6.07001 84.7401 5.49501 84.3801 5.08501C84.0201 4.67501 83.5151 4.47001 82.8651 4.47001Z" fill="#013D5B"/>
<path d="M71.7851 14.88V4.03502L72.5501 3.96001L72.6101 4.48501C73.4601 4.00501 74.2401 3.76501 74.9501 3.76501C75.9301 3.76501 76.7001 4.11001 77.2601 4.80001C77.8201 5.48001 78.1001 6.42502 78.1001 7.63502C78.1001 8.96502 77.7801 9.98501 77.1401 10.695C76.5101 11.405 75.5951 11.76 74.3951 11.76C73.7751 11.76 73.2051 11.68 72.6851 11.52V14.76L71.7851 14.88ZM74.8301 4.48501C74.5001 4.48501 74.1451 4.54001 73.7651 4.65001C73.3851 4.76001 73.0251 4.91002 72.6851 5.10002V10.8C73.2051 10.96 73.7501 11.04 74.3201 11.04C75.2801 11.04 75.9901 10.765 76.4501 10.215C76.9201 9.65502 77.1551 8.80001 77.1551 7.65001C77.1551 6.62001 76.9551 5.83502 76.5551 5.29502C76.1651 4.75502 75.5901 4.48501 74.8301 4.48501Z" fill="#013D5B"/>
<path d="M66.4602 11.76C65.3702 11.76 64.5452 11.425 63.9852 10.755C63.4352 10.075 63.1602 9.07501 63.1602 7.75501C63.1602 6.44501 63.4352 5.45502 63.9852 4.78502C64.5452 4.10502 65.3702 3.76501 66.4602 3.76501C67.5502 3.76501 68.3702 4.10502 68.9202 4.78502C69.4802 5.45502 69.7602 6.44501 69.7602 7.75501C69.7602 9.07501 69.4802 10.075 68.9202 10.755C68.3702 11.425 67.5502 11.76 66.4602 11.76ZM66.4602 11.04C67.2802 11.04 67.8752 10.78 68.2452 10.26C68.6252 9.73001 68.8152 8.89501 68.8152 7.75501C68.8152 6.62501 68.6252 5.80001 68.2452 5.28001C67.8752 4.75001 67.2802 4.48501 66.4602 4.48501C65.6402 4.48501 65.0402 4.75001 64.6602 5.28001C64.2902 5.80001 64.1052 6.62501 64.1052 7.75501C64.1052 8.89501 64.2902 9.73001 64.6602 10.26C65.0402 10.78 65.6402 11.04 66.4602 11.04Z" fill="#013D5B"/>
<path d="M57.5687 11.265C56.8787 11.595 56.1387 11.76 55.3487 11.76C54.1987 11.76 53.3137 11.42 52.6937 10.74C52.0737 10.06 51.7637 9.08502 51.7637 7.81502C51.7637 6.55502 52.0537 5.56501 52.6337 4.84501C53.2137 4.12501 54.0087 3.76501 55.0187 3.76501C55.9087 3.76501 56.6087 4.04501 57.1187 4.60501C57.6387 5.15501 57.8987 5.91001 57.8987 6.87001C57.8987 7.23001 57.8687 7.57501 57.8087 7.90501H52.6487C52.6587 9.99501 53.5837 11.04 55.4237 11.04C56.1637 11.04 56.8787 10.88 57.5687 10.56V11.265ZM55.0037 4.47001C54.3237 4.47001 53.7687 4.72001 53.3387 5.22001C52.9087 5.72001 52.6787 6.39001 52.6487 7.23001H57.0287C57.0487 7.07001 57.0587 6.93002 57.0587 6.81001C57.0587 6.07001 56.8787 5.49501 56.5187 5.08501C56.1587 4.67501 55.6537 4.47001 55.0037 4.47001Z" fill="#013D5B"/>
<path d="M47.249 11.535V4.035L48.014 3.96L48.089 4.635C48.759 4.085 49.474 3.81 50.234 3.81C50.504 3.81 50.719 3.84 50.879 3.9V4.635C50.619 4.575 50.389 4.545 50.189 4.545C49.479 4.545 48.799 4.8 48.149 5.31V11.535H47.249Z" fill="#013D5B"/>
<path d="M44.076 11.565L44.016 11.04C43.156 11.52 42.306 11.76 41.466 11.76C40.696 11.76 40.086 11.56 39.636 11.16C39.186 10.75 38.961 10.19 38.961 9.48001C38.961 8.73001 39.211 8.16002 39.711 7.77002C40.221 7.37002 40.966 7.17002 41.946 7.17002C42.536 7.17002 43.206 7.24001 43.956 7.38001V6.36001C43.956 5.11001 43.251 4.48501 41.841 4.48501C41.471 4.48501 41.066 4.53502 40.626 4.63502C40.186 4.73502 39.781 4.86501 39.411 5.02501V4.32001C39.771 4.15002 40.181 4.01501 40.641 3.91501C41.111 3.81501 41.556 3.76501 41.976 3.76501C42.916 3.76501 43.626 3.99001 44.106 4.44001C44.596 4.88001 44.841 5.52001 44.841 6.36001V11.49L44.076 11.565ZM41.676 11.04C42.036 11.04 42.416 10.985 42.816 10.875C43.216 10.765 43.596 10.615 43.956 10.425V8.02501C43.326 7.90501 42.706 7.84501 42.096 7.84501C41.326 7.84501 40.766 7.97501 40.416 8.23501C40.066 8.49501 39.891 8.90502 39.891 9.46502C39.891 10.515 40.486 11.04 41.676 11.04Z" fill="#013D5B"/>
<path d="M28.5145 10.545C29.2645 10.875 30.0395 11.04 30.8395 11.04C32.1895 11.04 32.8645 10.515 32.8645 9.46502C32.8645 9.12502 32.7645 8.85001 32.5645 8.64001C32.3745 8.43001 32.0545 8.25501 31.6045 8.11502L30.4645 7.75501C29.8245 7.55501 29.3595 7.30501 29.0695 7.00501C28.7795 6.69501 28.6345 6.30501 28.6345 5.83501C28.6345 5.20501 28.8795 4.70501 29.3695 4.33501C29.8695 3.95501 30.5395 3.76501 31.3795 3.76501C32.0895 3.76501 32.7645 3.90002 33.4045 4.17002V4.87502C32.7345 4.61502 32.0745 4.48501 31.4245 4.48501C30.8345 4.48501 30.3695 4.60501 30.0295 4.84501C29.6995 5.07501 29.5345 5.39502 29.5345 5.80502C29.5345 6.09502 29.6245 6.33002 29.8045 6.51002C29.9945 6.68002 30.3295 6.84501 30.8095 7.00501L31.9945 7.39502C32.6045 7.59502 33.0495 7.86002 33.3295 8.19002C33.6195 8.52002 33.7645 8.94002 33.7645 9.45002C33.7645 10.19 33.5145 10.76 33.0145 11.16C32.5145 11.56 31.8095 11.76 30.8995 11.76C30.0595 11.76 29.3045 11.605 28.6345 11.295L28.5145 10.545Z" fill="#013D5B"/>
<path d="M26.7631 11.265C26.0731 11.595 25.3331 11.76 24.5431 11.76C23.3931 11.76 22.5081 11.42 21.8881 10.74C21.2681 10.06 20.9581 9.085 20.9581 7.815C20.9581 6.555 21.2481 5.565 21.8281 4.845C22.4081 4.125 23.2031 3.765 24.2131 3.765C25.1031 3.765 25.8031 4.045 26.3131 4.605C26.8331 5.155 27.0931 5.91 27.0931 6.87C27.0931 7.23 27.0631 7.575 27.0031 7.905H21.8431C21.8531 9.995 22.7781 11.04 24.6181 11.04C25.3581 11.04 26.0731 10.88 26.7631 10.56V11.265ZM24.1981 4.47C23.5181 4.47 22.9631 4.72 22.5331 5.22C22.1031 5.72 21.8731 6.39 21.8431 7.23H26.2231C26.2431 7.07 26.2531 6.93 26.2531 6.81C26.2531 6.07 26.0731 5.495 25.7131 5.085C25.3531 4.675 24.8481 4.47 24.1981 4.47ZM23.3581 2.745L25.0231 0.690002H26.1631L24.1681 2.745H23.3581Z" fill="#013D5B"/>
<path d="M17.0048 11.535V4.68H15.8648V4.035L17.0048 3.99V2.295C17.0048 1.555 17.1848 0.989998 17.5448 0.599998C17.9148 0.199998 18.4498 0 19.1498 0C19.5298 0 19.9148 0.0699991 20.3048 0.209999V0.869999C19.9448 0.759999 19.5998 0.704998 19.2698 0.704998C18.7998 0.704998 18.4548 0.83 18.2348 1.08C18.0148 1.32 17.9048 1.7 17.9048 2.22V3.99H19.9298V4.68H17.9048V11.535H17.0048Z" fill="#013D5B"/>
<path d="M13.6219 11.565L13.5619 11.04C12.7019 11.52 11.8519 11.76 11.0119 11.76C10.2419 11.76 9.6319 11.56 9.1819 11.16C8.7319 10.75 8.5069 10.19 8.5069 9.48001C8.5069 8.73001 8.7569 8.16002 9.2569 7.77002C9.7669 7.37002 10.5119 7.17002 11.4919 7.17002C12.0819 7.17002 12.7519 7.24001 13.5019 7.38001V6.36001C13.5019 5.11001 12.7969 4.48501 11.3869 4.48501C11.0169 4.48501 10.6119 4.53502 10.1719 4.63502C9.7319 4.73502 9.3269 4.86501 8.9569 5.02501V4.32001C9.3169 4.15002 9.7269 4.01501 10.1869 3.91501C10.6569 3.81501 11.1019 3.76501 11.5219 3.76501C12.4619 3.76501 13.1719 3.99001 13.6519 4.44001C14.1419 4.88001 14.3869 5.52001 14.3869 6.36001V11.49L13.6219 11.565ZM11.2219 11.04C11.5819 11.04 11.9619 10.985 12.3619 10.875C12.7619 10.765 13.1419 10.615 13.5019 10.425V8.02501C12.8719 7.90501 12.2519 7.84501 11.6419 7.84501C10.8719 7.84501 10.3119 7.97501 9.9619 8.23501C9.6119 8.49501 9.4369 8.90502 9.4369 9.46502C9.4369 10.515 10.0319 11.04 11.2219 11.04Z" fill="#013D5B"/>
<path d="M6.945 11.115C6.085 11.545 5.185 11.76 4.245 11.76C2.915 11.76 1.875 11.28 1.125 10.32C0.375 9.35 0 8.005 0 6.285C0 4.565 0.375 3.225 1.125 2.265C1.875 1.295 2.915 0.809998 4.245 0.809998C5.155 0.809998 6.04 1.025 6.9 1.455V2.22C6.44 2 6.01 1.84 5.61 1.74C5.21 1.64 4.795 1.59 4.365 1.59C3.255 1.59 2.415 1.99 1.845 2.79C1.285 3.58 1.005 4.745 1.005 6.285C1.005 7.825 1.285 8.995 1.845 9.795C2.415 10.585 3.255 10.98 4.365 10.98C5.215 10.98 6.075 10.77 6.945 10.35V11.115Z" fill="#013D5B"/>
</svg>
