<svg xmlns="http://www.w3.org/2000/svg" width="58.241" height="6.419" viewBox="0 0 58.241 6.419">
  <g id="Group_1" data-name="Group 1" transform="translate(0 0)">
    <path id="Path_1" data-name="Path 1" d="M1.289,322.531v-4.338a3.724,3.724,0,0,1,.147-.893H0a4.161,4.161,0,0,1,.147.893v4.467a3.724,3.724,0,0,1-.147.893H3.721l.359-1.142a4.128,4.128,0,0,1-1.206.12Z" transform="translate(0 -317.217)"/>
    <path id="Path_2" data-name="Path 2" d="M51.689,322.531v-4.338a3.723,3.723,0,0,1,.147-.893H50.4a4.161,4.161,0,0,1,.147.893v4.467a3.724,3.724,0,0,1-.147.893h3.721l.359-1.142a4.128,4.128,0,0,1-1.206.12Z" transform="translate(-45.758 -317.217)"/>
    <path id="Path_3" data-name="Path 3" d="M99.487,316.5a3.2,3.2,0,1,0,3.187,3.2A3.11,3.11,0,0,0,99.487,316.5Zm0,5.378a2.179,2.179,0,1,1,2.026-2.174A1.975,1.975,0,0,1,99.487,321.878Z" transform="translate(-87.431 -316.491)"/>
    <path id="Path_4" data-name="Path 4" d="M170.507,318.238a6.324,6.324,0,0,1-1.335,2.183,6.8,6.8,0,0,1-1.28-2.183,3.246,3.246,0,0,1-.175-.838H166.4a8.755,8.755,0,0,0,2.21,3.932v2.312h1.151v-2.312a8.755,8.755,0,0,0,2.21-3.932h-1.28A3.723,3.723,0,0,1,170.507,318.238Z" transform="translate(-151.075 -317.308)"/>
    <path id="Path_5" data-name="Path 5" d="M237.509,317.3H235.4a4.164,4.164,0,0,1,.147.893v4.467a3.726,3.726,0,0,1-.147.893h2.109a3.13,3.13,0,1,0,0-6.253Zm-.083,5.231h-.737v-4.209h.737a2.106,2.106,0,1,1,0,4.209Z" transform="translate(-213.721 -317.217)"/>
    <path id="Path_6" data-name="Path 6" d="M304.276,319.3l-1.262-.516c-.488-.2-.7-.424-.7-.792,0-.4.322-.654.976-.654a3.136,3.136,0,0,1,1.741.654v-1.206a4.173,4.173,0,0,0-1.685-.387c-1.3,0-2.146.681-2.146,1.768,0,.8.414,1.308,1.335,1.685l1,.405c.626.258.82.516.82.847,0,.5-.451.774-1.151.774a3.476,3.476,0,0,1-1.943-.746l.019,1.253a4.654,4.654,0,0,0,1.87.433c1.483,0,2.321-.792,2.321-1.86A1.7,1.7,0,0,0,304.276,319.3Z" transform="translate(-273.461 -316.4)"/>
    <path id="Path_7" data-name="Path 7" d="M381.309,320.3a1.625,1.625,0,0,0,.875-1.427c0-.958-.728-1.575-1.916-1.575H377.8a4.17,4.17,0,0,1,.147.893v4.467a3.725,3.725,0,0,1-.147.893h2.487c1.381,0,2.1-.718,2.1-1.787A1.527,1.527,0,0,0,381.309,320.3Zm-2.219-2.008h1.059c.543,0,.875.276.875.8,0,.507-.295.838-.912.838h-1.022Zm1.206,4.264h-1.206v-1.695h1.16c.589,0,.985.3.985.847S380.913,322.559,380.3,322.559Z" transform="translate(-343.006 -317.217)"/>
    <path id="Path_8" data-name="Path 8" d="M436.139,317.3H434.6l-1.8,5.24a7.522,7.522,0,0,1-.405.995h1.409a3.315,3.315,0,0,1,.157-.893l.193-.6h2.367l.193.6a2.991,2.991,0,0,1,.157.893h1.446a8.063,8.063,0,0,1-.405-.995Zm-1.658,3.785.875-2.708.866,2.708Z" transform="translate(-392.578 -317.217)"/>
    <path id="Path_9" data-name="Path 9" d="M509.7,317.3h-1.372a4.161,4.161,0,0,1,.147.893v3.555l-2.551-4.448H504.4a4.164,4.164,0,0,1,.147.893v4.467a3.724,3.724,0,0,1-.147.893h1.372a4.158,4.158,0,0,1-.147-.893v-3.693l2.634,4.577h1.326c-.018-.479-.018-.718-.018-1.05v-4.3A4.824,4.824,0,0,1,509.7,317.3Z" transform="translate(-457.947 -317.217)"/>
    <path id="Path_10" data-name="Path 10" d="M580.63,322.66l-1.842-2.459,1.685-1.989c.267-.313.424-.516.783-.9H579.82a6.3,6.3,0,0,1-.654.93l-1.676,1.943v-1.989a4.244,4.244,0,0,1,.147-.893H576.2a4.171,4.171,0,0,1,.147.893v4.467a3.726,3.726,0,0,1-.147.893h1.437a4.151,4.151,0,0,1-.147-.893V320.3l1.74,2.312a8.827,8.827,0,0,1,.645.93h1.5A11.224,11.224,0,0,1,580.63,322.66Z" transform="translate(-523.135 -317.217)"/>
  </g>
</svg>
