<svg width="300" height="250" viewBox="0 0 300 250" fill="none" xmlns="http://www.w3.org/2000/svg">
<g filter="url(#filter0_d_50488_3592)">
<path d="M110.904 33.8973V17.4782H113.671V19.5824C114.582 17.9883 116.5 17 118.67 17C122.223 17 124.801 18.9129 124.801 23.8546V33.8973H121.971V24.269C121.971 21.2084 120.493 19.7099 118.041 19.7099C115.274 19.7099 113.733 21.6228 113.733 24.3647V33.8973H110.904Z" fill="#F0EFFF"/>
<path d="M110.904 33.8973V17.4782H113.671V19.5824C114.582 17.9883 116.5 17 118.67 17C122.223 17 124.801 18.9129 124.801 23.8546V33.8973H121.971V24.269C121.971 21.2084 120.493 19.7099 118.041 19.7099C115.274 19.7099 113.733 21.6228 113.733 24.3647V33.8973H110.904Z" fill="url(#paint0_linear_50488_3592)"/>
<path d="M100.972 34.3755C96.3504 34.3755 92.7975 31.3468 92.7975 25.6081C92.7975 20.2519 96.2246 17 100.721 17C105.846 17 108.644 20.6345 108.644 24.7473C108.644 25.4168 108.612 26.1182 108.518 26.6283H95.753C95.9416 29.8164 98.0167 31.7931 101.004 31.7931C103.362 31.7931 104.588 31.0279 105.405 29.115H108.361C107.48 32.4307 104.745 34.3755 100.972 34.3755ZM95.753 24.2371H105.657C105.531 21.1765 103.487 19.5187 100.721 19.5187C97.7967 19.5187 96.0045 21.304 95.753 24.2371Z" fill="#F0EFFF"/>
<path d="M100.972 34.3755C96.3504 34.3755 92.7975 31.3468 92.7975 25.6081C92.7975 20.2519 96.2246 17 100.721 17C105.846 17 108.644 20.6345 108.644 24.7473C108.644 25.4168 108.612 26.1182 108.518 26.6283H95.753C95.9416 29.8164 98.0167 31.7931 101.004 31.7931C103.362 31.7931 104.588 31.0279 105.405 29.115H108.361C107.48 32.4307 104.745 34.3755 100.972 34.3755ZM95.753 24.2371H105.657C105.531 21.1765 103.487 19.5187 100.721 19.5187C97.7967 19.5187 96.0045 21.304 95.753 24.2371Z" fill="url(#paint1_linear_50488_3592)"/>
<path d="M78.9916 17.4782V33.8974H81.8213V28.5732L84.5252 25.9589L90.1532 33.8974H93.4545L86.4431 23.9822L93.0772 17.4784H89.43L81.8213 25.0024V17.4782H78.9916Z" fill="#F0EFFF"/>
<path d="M78.9916 17.4782V33.8974H81.8213V28.5732L84.5252 25.9589L90.1532 33.8974H93.4545L86.4431 23.9822L93.0772 17.4784H89.43L81.8213 25.0024V17.4782H78.9916Z" fill="url(#paint2_linear_50488_3592)"/>
<path d="M67.4035 34.3755C64.2279 34.3755 61.7755 32.5901 61.7755 29.5295C61.7755 26.3732 63.9449 25.0023 66.4917 24.5241L70.5161 23.7589C71.8052 23.5039 72.5912 23.0894 72.5912 21.8141C72.5912 20.4432 71.4279 19.5187 69.1327 19.5187C67.0576 19.5187 65.3598 20.3795 65.2026 22.388H62.2157C62.2786 19.0085 65.2969 17 69.1642 17C73.6288 17 75.4209 19.2955 75.4209 21.9098V30.4541C75.4209 31.1874 75.7668 31.5699 76.3956 31.5699C76.9301 31.5699 77.2445 31.4424 77.5275 31.2511V33.5785C77.0873 33.9611 76.3327 34.2161 75.4209 34.2161C74.069 34.2161 72.9685 33.4828 72.6856 32.08C71.9624 33.1003 70.4532 34.3755 67.4035 34.3755ZM64.6995 29.4339C64.6995 31.0279 66.1144 31.8569 67.938 31.8569C70.6104 31.8569 72.5912 30.3265 72.5912 28.0311V25.3849C72.2768 25.7675 71.2393 26.0544 70.1703 26.2457L67.4978 26.7558C65.5799 27.1384 64.6995 27.9673 64.6995 29.4339Z" fill="#F0EFFF"/>
<path d="M67.4035 34.3755C64.2279 34.3755 61.7755 32.5901 61.7755 29.5295C61.7755 26.3732 63.9449 25.0023 66.4917 24.5241L70.5161 23.7589C71.8052 23.5039 72.5912 23.0894 72.5912 21.8141C72.5912 20.4432 71.4279 19.5187 69.1327 19.5187C67.0576 19.5187 65.3598 20.3795 65.2026 22.388H62.2157C62.2786 19.0085 65.2969 17 69.1642 17C73.6288 17 75.4209 19.2955 75.4209 21.9098V30.4541C75.4209 31.1874 75.7668 31.5699 76.3956 31.5699C76.9301 31.5699 77.2445 31.4424 77.5275 31.2511V33.5785C77.0873 33.9611 76.3327 34.2161 75.4209 34.2161C74.069 34.2161 72.9685 33.4828 72.6856 32.08C71.9624 33.1003 70.4532 34.3755 67.4035 34.3755ZM64.6995 29.4339C64.6995 31.0279 66.1144 31.8569 67.938 31.8569C70.6104 31.8569 72.5912 30.3265 72.5912 28.0311V25.3849C72.2768 25.7675 71.2393 26.0544 70.1703 26.2457L67.4978 26.7558C65.5799 27.1384 64.6995 27.9673 64.6995 29.4339Z" fill="url(#paint3_linear_50488_3592)"/>
<path d="M53.0896 33.8971V17.4781H55.8564V20.2199C56.6424 18.2751 58.0573 17.1274 60.2896 17.1274C60.7612 17.1274 61.2328 17.223 61.4844 17.2868V20.2199C61.2328 20.1561 60.6983 20.0605 60.1638 20.0605C57.397 20.0605 55.9193 22.2603 55.9193 25.7673V33.8971H53.0896Z" fill="#F0EFFF"/>
<path d="M53.0896 33.8971V17.4781H55.8564V20.2199C56.6424 18.2751 58.0573 17.1274 60.2896 17.1274C60.7612 17.1274 61.2328 17.223 61.4844 17.2868V20.2199C61.2328 20.1561 60.6983 20.0605 60.1638 20.0605C57.397 20.0605 55.9193 22.2603 55.9193 25.7673V33.8971H53.0896Z" fill="url(#paint4_linear_50488_3592)"/>
<path d="M37.3828 17.4782V33.8972H40.2125V28.5729L42.9164 25.9586L48.5444 33.8972H51.8457L44.8344 23.982L51.4684 17.4781H47.8213L40.2125 25.0022V17.4782H37.3828Z" fill="#F0EFFF"/>
<path d="M37.3828 17.4782V33.8972H40.2125V28.5729L42.9164 25.9586L48.5444 33.8972H51.8457L44.8344 23.982L51.4684 17.4781H47.8213L40.2125 25.0022V17.4782H37.3828Z" fill="url(#paint5_linear_50488_3592)"/>
<path d="M22.916 17C16.887 17 12 21.9511 12 28.0586V32.7976C12 33.6693 12.6974 34.3755 13.5583 34.3755C14.4193 34.3755 15.1218 33.6693 15.1218 32.7976V28.0586C15.1218 27.1842 15.8166 26.478 16.6801 26.478C17.541 26.478 18.2385 27.1842 18.2385 28.0586V32.7976C18.2385 33.6693 18.9359 34.3755 19.7968 34.3755C20.6603 34.3755 21.3577 33.6693 21.3577 32.7976V28.0586C21.3577 27.1842 22.0551 26.478 22.916 26.478C23.7795 26.478 24.4795 27.1842 24.4795 28.0586V32.7976C24.4795 33.6693 25.1769 34.3755 26.0378 34.3755C26.8987 34.3755 27.5961 33.6693 27.5961 32.7976V28.0586C27.5961 27.1842 28.2936 26.478 29.1596 26.478C30.0205 26.478 30.7179 27.1842 30.7179 28.0586V32.7976C30.7179 33.6693 31.4153 34.3755 32.2788 34.3755C33.1397 34.3755 33.8371 33.6693 33.8371 32.7976V28.0586C33.8371 21.9511 28.9475 17 22.916 17Z" fill="#F0EFFF"/>
<path d="M22.916 17C16.887 17 12 21.9511 12 28.0586V32.7976C12 33.6693 12.6974 34.3755 13.5583 34.3755C14.4193 34.3755 15.1218 33.6693 15.1218 32.7976V28.0586C15.1218 27.1842 15.8166 26.478 16.6801 26.478C17.541 26.478 18.2385 27.1842 18.2385 28.0586V32.7976C18.2385 33.6693 18.9359 34.3755 19.7968 34.3755C20.6603 34.3755 21.3577 33.6693 21.3577 32.7976V28.0586C21.3577 27.1842 22.0551 26.478 22.916 26.478C23.7795 26.478 24.4795 27.1842 24.4795 28.0586V32.7976C24.4795 33.6693 25.1769 34.3755 26.0378 34.3755C26.8987 34.3755 27.5961 33.6693 27.5961 32.7976V28.0586C27.5961 27.1842 28.2936 26.478 29.1596 26.478C30.0205 26.478 30.7179 27.1842 30.7179 28.0586V32.7976C30.7179 33.6693 31.4153 34.3755 32.2788 34.3755C33.1397 34.3755 33.8371 33.6693 33.8371 32.7976V28.0586C33.8371 21.9511 28.9475 17 22.916 17Z" fill="url(#paint6_linear_50488_3592)"/>
<path d="M139.319 23.7276C139.319 25.012 138.399 25.4937 137.377 25.4937H135.436V21.9762H137.377C138.399 21.9762 139.319 22.4432 139.319 23.7276Z" fill="#F0EFFF"/>
<path d="M139.319 23.7276C139.319 25.012 138.399 25.4937 137.377 25.4937H135.436V21.9762H137.377C138.399 21.9762 139.319 22.4432 139.319 23.7276Z" fill="url(#paint7_linear_50488_3592)"/>
<path d="M148.426 23.6255C148.426 24.6909 147.726 25.3331 146.573 25.3331H144.544V21.9762H146.573C147.726 21.9762 148.426 22.5454 148.426 23.6255Z" fill="#F0EFFF"/>
<path d="M148.426 23.6255C148.426 24.6909 147.726 25.3331 146.573 25.3331H144.544V21.9762H146.573C147.726 21.9762 148.426 22.5454 148.426 23.6255Z" fill="url(#paint8_linear_50488_3592)"/>
<path d="M160.685 25.6542C160.685 28.3106 159.123 29.5804 157.284 29.5804C155.431 29.5804 153.884 28.3252 153.884 25.6688V25.6542C153.884 22.9833 155.431 21.7135 157.284 21.7135C159.123 21.7135 160.685 22.9833 160.685 25.6396V25.6542Z" fill="#F0EFFF"/>
<path d="M160.685 25.6542C160.685 28.3106 159.123 29.5804 157.284 29.5804C155.431 29.5804 153.884 28.3252 153.884 25.6688V25.6542C153.884 22.9833 155.431 21.7135 157.284 21.7135C159.123 21.7135 160.685 22.9833 160.685 25.6396V25.6542Z" fill="url(#paint9_linear_50488_3592)"/>
<path fill-rule="evenodd" clip-rule="evenodd" d="M132.084 17C130.496 17 129.209 18.2875 129.209 19.8756V31.4999C129.209 33.088 130.496 34.3755 132.084 34.3755H163.256C164.844 34.3755 166.132 33.088 166.132 31.4999V19.8756C166.132 18.2875 164.844 17 163.256 17H132.084ZM133.685 20.502V30.7918H135.436V26.9532H137.523C139.377 26.9532 141.128 25.8877 141.128 23.713C141.128 21.5529 139.377 20.502 137.523 20.502H133.685ZM142.793 20.502V30.7918H144.544V26.6905H146.31C147.376 26.6905 147.872 27.0408 148.12 28.0625L148.514 29.6826C148.645 30.2226 148.762 30.6167 148.821 30.7918H150.703C150.572 30.4999 150.441 30.0182 150.338 29.6388L149.842 27.683C149.638 26.8802 149.229 26.238 148.047 26.0483V25.9023C149.55 25.5375 150.236 24.4866 150.236 23.3189C150.236 21.5091 148.893 20.502 146.748 20.502H142.793ZM152.074 25.6542C152.074 28.7484 154.263 31.0107 157.284 31.0107C160.291 31.0107 162.495 28.763 162.495 25.6688V25.6542C162.495 22.5454 160.291 20.2831 157.284 20.2831C154.263 20.2831 152.074 22.5308 152.074 25.6396V25.6542Z" fill="#F0EFFF"/>
<path fill-rule="evenodd" clip-rule="evenodd" d="M132.084 17C130.496 17 129.209 18.2875 129.209 19.8756V31.4999C129.209 33.088 130.496 34.3755 132.084 34.3755H163.256C164.844 34.3755 166.132 33.088 166.132 31.4999V19.8756C166.132 18.2875 164.844 17 163.256 17H132.084ZM133.685 20.502V30.7918H135.436V26.9532H137.523C139.377 26.9532 141.128 25.8877 141.128 23.713C141.128 21.5529 139.377 20.502 137.523 20.502H133.685ZM142.793 20.502V30.7918H144.544V26.6905H146.31C147.376 26.6905 147.872 27.0408 148.12 28.0625L148.514 29.6826C148.645 30.2226 148.762 30.6167 148.821 30.7918H150.703C150.572 30.4999 150.441 30.0182 150.338 29.6388L149.842 27.683C149.638 26.8802 149.229 26.238 148.047 26.0483V25.9023C149.55 25.5375 150.236 24.4866 150.236 23.3189C150.236 21.5091 148.893 20.502 146.748 20.502H142.793ZM152.074 25.6542C152.074 28.7484 154.263 31.0107 157.284 31.0107C160.291 31.0107 162.495 28.763 162.495 25.6688V25.6542C162.495 22.5454 160.291 20.2831 157.284 20.2831C154.263 20.2831 152.074 22.5308 152.074 25.6396V25.6542Z" fill="url(#paint10_linear_50488_3592)"/>
</g>
<defs>
<filter id="filter0_d_50488_3592" x="4.79309" y="9.79309" width="168.545" height="31.7894" filterUnits="userSpaceOnUse" color-interpolation-filters="sRGB">
<feFlood flood-opacity="0" result="BackgroundImageFix"/>
<feColorMatrix in="SourceAlpha" type="matrix" values="0 0 0 0 0 0 0 0 0 0 0 0 0 0 0 0 0 0 127 0" result="hardAlpha"/>
<feOffset/>
<feGaussianBlur stdDeviation="3.60345"/>
<feComposite in2="hardAlpha" operator="out"/>
<feColorMatrix type="matrix" values="0 0 0 0 0.458824 0 0 0 0 0.219608 0 0 0 0 0.960784 0 0 0 0.3 0"/>
<feBlend mode="normal" in2="BackgroundImageFix" result="effect1_dropShadow_50488_3592"/>
<feBlend mode="normal" in="SourceGraphic" in2="effect1_dropShadow_50488_3592" result="shape"/>
</filter>
<linearGradient id="paint0_linear_50488_3592" x1="12" y1="34.3755" x2="13.8103" y2="6.94686" gradientUnits="userSpaceOnUse">
<stop offset="0.22" stop-color="#F0EFFF"/>
<stop offset="1" stop-color="#7132F5"/>
</linearGradient>
<linearGradient id="paint1_linear_50488_3592" x1="12" y1="34.3755" x2="13.8103" y2="6.94686" gradientUnits="userSpaceOnUse">
<stop offset="0.22" stop-color="#F0EFFF"/>
<stop offset="1" stop-color="#7132F5"/>
</linearGradient>
<linearGradient id="paint2_linear_50488_3592" x1="12" y1="34.3755" x2="13.8103" y2="6.94686" gradientUnits="userSpaceOnUse">
<stop offset="0.22" stop-color="#F0EFFF"/>
<stop offset="1" stop-color="#7132F5"/>
</linearGradient>
<linearGradient id="paint3_linear_50488_3592" x1="12" y1="34.3755" x2="13.8103" y2="6.94686" gradientUnits="userSpaceOnUse">
<stop offset="0.22" stop-color="#F0EFFF"/>
<stop offset="1" stop-color="#7132F5"/>
</linearGradient>
<linearGradient id="paint4_linear_50488_3592" x1="12" y1="34.3755" x2="13.8103" y2="6.94686" gradientUnits="userSpaceOnUse">
<stop offset="0.22" stop-color="#F0EFFF"/>
<stop offset="1" stop-color="#7132F5"/>
</linearGradient>
<linearGradient id="paint5_linear_50488_3592" x1="12" y1="34.3755" x2="13.8103" y2="6.94686" gradientUnits="userSpaceOnUse">
<stop offset="0.22" stop-color="#F0EFFF"/>
<stop offset="1" stop-color="#7132F5"/>
</linearGradient>
<linearGradient id="paint6_linear_50488_3592" x1="12" y1="34.3755" x2="13.8103" y2="6.94686" gradientUnits="userSpaceOnUse">
<stop offset="0.22" stop-color="#F0EFFF"/>
<stop offset="1" stop-color="#7132F5"/>
</linearGradient>
<linearGradient id="paint7_linear_50488_3592" x1="12" y1="34.3755" x2="13.8103" y2="6.94686" gradientUnits="userSpaceOnUse">
<stop offset="0.22" stop-color="#F0EFFF"/>
<stop offset="1" stop-color="#7132F5"/>
</linearGradient>
<linearGradient id="paint8_linear_50488_3592" x1="12" y1="34.3755" x2="13.8103" y2="6.94686" gradientUnits="userSpaceOnUse">
<stop offset="0.22" stop-color="#F0EFFF"/>
<stop offset="1" stop-color="#7132F5"/>
</linearGradient>
<linearGradient id="paint9_linear_50488_3592" x1="12" y1="34.3755" x2="13.8103" y2="6.94686" gradientUnits="userSpaceOnUse">
<stop offset="0.22" stop-color="#F0EFFF"/>
<stop offset="1" stop-color="#7132F5"/>
</linearGradient>
<linearGradient id="paint10_linear_50488_3592" x1="12" y1="34.3755" x2="13.8103" y2="6.94686" gradientUnits="userSpaceOnUse">
<stop offset="0.22" stop-color="#F0EFFF"/>
<stop offset="1" stop-color="#7132F5"/>
</linearGradient>
</defs>
</svg>
