<?xml version="1.0" encoding="UTF-8"?><svg id="Layer_2" xmlns="http://www.w3.org/2000/svg" width="410.54" height="86.98" viewBox="0 0 410.54 86.98"><defs><style>.cls-1{fill:#fff;}</style></defs><g id="Layer_1-2"><path class="cls-1" d="M140.89,35.6v34.66h-15.18v-29.87c0-7.19-3.4-10.89-9.19-10.89s-9.49,3.7-9.49,10.89v29.87h-15.18V16.72h11.95l3.23,7.59c3.5-4.49,7.99-8.59,15.68-8.59,11.49,0,18.18,7.59,18.18,19.88ZM29.66,0L0,70.26h20.59L50.25,0h-20.59ZM59.51,15.87l-10.66,26.18h21.79l-11.14-26.18ZM53.69,54.16l6.81,16.1h22.11l-6.81-16.1h-22.11ZM193.48,22.12c4,4,5.79,9.89,5.79,17.08v31.06h-12.23l-2.45-5.79c-3.7,4.1-8.79,6.79-16.18,6.79-10.09,0-18.38-5.79-18.38-16.38v-.2c0-11.69,8.89-17.08,21.57-17.08,5.39,0,9.29.9,13.09,2.2v-.9c0-6.29-3.9-9.79-11.49-9.79-5.41,0-9.34.97-13.82,2.56l-4.75-11.25c5.89-2.6,11.68-4.29,20.77-4.29,8.29,0,14.28,2.2,18.08,5.99ZM184.89,48.69c-2.6-1.2-5.99-2-9.69-2-6.49,0-10.49,2.6-10.49,7.39v.2c0,4.09,3.4,6.49,8.29,6.49,7.09,0,11.89-3.9,11.89-9.39v-2.7ZM267.15,43.39v.2c0,17.88-11.69,27.67-24.37,27.67-8.09,0-13.08-3.7-16.68-7.99v23.72h-15.18V16.72h11.91l3.28,7.69c3.7-4.99,8.79-8.69,16.68-8.69,12.49,0,24.37,9.79,24.37,27.67ZM251.96,43.39c0-8.89-5.99-14.78-13.08-14.78s-12.98,5.89-12.98,14.78v.2c0,8.89,5.89,14.78,12.98,14.78s13.08-5.79,13.08-14.78v-.2ZM392.36,15.72c-7.69,0-12.19,4.1-15.68,8.59l-3.23-7.59h-11.95v53.54h15.18v-29.87c0-7.19,3.7-10.89,9.49-10.89s9.19,3.7,9.19,10.89v29.87h15.18v-34.66c0-12.29-6.69-19.88-18.18-19.88ZM344.07,22.12c4,4,5.79,9.89,5.79,17.08v31.06h-12.23l-2.45-5.79c-3.7,4.1-8.79,6.79-16.18,6.79-10.09,0-18.38-5.79-18.38-16.38v-.2c0-11.69,8.89-17.08,21.57-17.08,5.39,0,9.29.9,13.09,2.2v-.9c0-6.29-3.9-9.79-11.49-9.79-5.41,0-9.34.97-13.82,2.56l-4.75-11.25c5.89-2.6,11.68-4.29,20.77-4.29,8.29,0,14.28,2.2,18.08,5.99ZM335.48,48.69c-2.6-1.2-5.99-2-9.69-2-6.49,0-10.49,2.6-10.49,7.39v.2c0,4.09,3.4,6.49,8.29,6.49,7.09,0,11.89-3.9,11.89-9.39v-2.7ZM276.29,70.26h15.18V0h-15.18v70.26Z"/></g></svg>