<?xml version="1.0" encoding="UTF-8"?><svg id="Layer_2" xmlns="http://www.w3.org/2000/svg" width="17.63" height="17.65" viewBox="0 0 17.63 17.65"><defs><style>.cls-1{fill:#9494f1;}.cls-1,.cls-2{fill-rule:evenodd;}.cls-2{fill:#585ae9;}</style></defs><g id="Layer_2-2"><path class="cls-1" d="M14.01.37c-.17-.49-.89-.49-1.06,0l-.46,1.33c-.22.64-.74,1.15-1.4,1.37l-1.37.45c-.51.17-.51.86,0,1.03l1.37.45c.66.22,1.18.72,1.4,1.37l.46,1.33c.17.49.89.49,1.06,0l.46-1.33c.22-.64.74-1.15,1.4-1.37l1.37-.45c.51-.17.51-.86,0-1.03l-1.37-.45c-.66-.22-1.18-.72-1.4-1.37l-.46-1.33Z"/><path class="cls-2" d="M6.46,6.49c-.17-.49-.89-.49-1.06,0l-.91,2.63c-.22.64-.74,1.15-1.4,1.37l-2.7.89c-.51.17-.51.86,0,1.03l2.7.89c.66.22,1.18.72,1.4,1.37l.91,2.63c.17.49.89.49,1.06,0l.91-2.63c.22-.64.74-1.15,1.4-1.37l2.7-.89c.51-.17.51-.86,0-1.03l-2.7-.89c-.66-.22-1.18-.72-1.4-1.37l-.91-2.63Z"/></g></svg>