<?xml version="1.0" encoding="UTF-8"?><svg id="Layer_2" xmlns="http://www.w3.org/2000/svg" width="5.89" height="5.73" viewBox="0 0 5.89 5.73"><defs><style>.cls-1{fill:#9494f1;fill-rule:evenodd;}</style></defs><g id="Layer_2-2"><path class="cls-1" d="M3.32.26c-.12-.35-.63-.35-.75,0l-.33.95c-.16.46-.53.81-1,.97l-.97.32c-.36.12-.36.61,0,.73l.97.32c.47.15.84.51,1,.97l.33.95c.12.35.63.35.75,0l.33-.95c.16-.46.53-.81,1-.97l.97-.32c.36-.12.36-.61,0-.73l-.97-.32c-.47-.15-.84-.51-1-.97l-.33-.95Z"/></g></svg>