<?xml version="1.0" encoding="UTF-8"?><svg id="LOGO_LOCKUP" xmlns="http://www.w3.org/2000/svg" width="536.16" height="222.61" viewBox="0 0 536.16 222.61"><path d="M70.25,92.44c2.16,2.16,2.16,5.65,0,7.81l-1.82,1.81c-2.16,2.15-5.65,2.15-7.81,0l-12.48-12.48c-2.15-2.17-2.15-5.66,0-7.82l1.82-1.81c2.16-2.16,5.65-2.16,7.81,0l12.48,12.49ZM69.01,68.71c-2.16-2.16-5.65-2.16-7.81,0l-1.81,1.81c-2.16,2.16-2.16,5.65,0,7.81l12.48,12.49c2.16,2.16,5.65,2.16,7.81,0l1.82-1.82c2.15-2.17,2.15-5.66,0-7.82l-12.48-12.48ZM102.28,79.72c-2.16-2.15-5.66-2.15-7.81,0l-1.81,1.82c-2.16,2.16-2.16,5.65,0,7.82l12.48,12.48c2.15,2.15,5.65,2.15,7.81,0l1.81-1.81c2.16-2.16,2.16-5.65,0-7.81l-12.48-12.49ZM113.52,68.47c-2.16-2.15-5.65-2.15-7.81,0l-1.81,1.82c-2.16,2.16-2.16,5.65,0,7.81l12.48,12.49c2.16,2.16,5.65,2.16,7.81,0l1.81-1.82c2.16-2.16,2.16-5.66,0-7.81l-12.48-12.49ZM92.77,56.11c2.16-2.15,2.16-5.65,0-7.81l-1.81-1.81c-2.16-2.16-5.65-2.16-7.81,0l-12.48,12.48c-2.16,2.16-2.16,5.65,0,7.81l1.81,1.81c2.16,2.16,5.65,2.16,7.81,0l12.48-12.48ZM104.01,67.35c2.16-2.16,2.16-5.65,0-7.81l-1.82-1.81c-2.15-2.16-5.65-2.16-7.81,0l-12.48,12.48c-2.16,2.16-2.16,5.65,0,7.81l1.81,1.82c2.16,2.16,5.65,2.16,7.81,0l12.48-12.48ZM92.79,99.99c2.16-2.16,2.16-5.65,0-7.81l-1.82-1.81c-2.16-2.16-5.65-2.16-7.81,0l-12.48,12.48c-2.16,2.16-2.16,5.65,0,7.81l1.81,1.81c2.16,2.16,5.65,2.16,7.81,0l12.48-12.48ZM104.03,111.23c2.16-2.16,2.16-5.66,0-7.81l-1.81-1.81c-2.15-2.15-5.65-2.15-7.81,0l-12.48,12.48c-2.16,2.16-2.16,5.65,0,7.81l1.81,1.81c2.16,2.16,5.65,2.16,7.81,0l12.48-12.48ZM194.86,100.21c.33.49,2.02,3.09,2.02,3.09-.94,3.96-3.37,9.05-3.37,9.05l-.37.14c-9.24,3.65-23.48,6.7-38.83.5-9.19-3.72-15.71-10.91-18.36-20.26-2.74-9.71-.82-20.34,5.15-28.45,6.59-8.95,17.26-13.87,31.73-14.63,5.45-.29,16.69,1.19,22.77,4.64l.5.28s.23,15.17.08,15.83l-.17.74s-4.5.16-4.5.16l-.24-1.37c-.76-4.4-2.77-16.21-19.23-15.36-7.05.37-12.73,3.9-16.97,9.48-5.16,6.79-6.74,16.2-4.44,26.49,2.23,10.03,9.85,16.47,15.69,18.72,2.46.95,10.24,2.71,16.15.02,5.15-2.34,10.03-6.1,12.4-9.09M250.78,116.36v-52.41c0-1.68,0-4.48-1.79-6.39-.25-.25-2.64-2.17-2.64-2.17v-2.32l14.1-2.83s1.26.81,1.26.81c0,0-.05,55.47-.03,56.21.18,5.39,3.87,5.76,3.87,5.76v3.33h-14.77ZM313.26,112.82c-2.53-.6-3.81-2.7-3.81-6.24l.02-33.23-1.26-.81-14.14,2.83v2.32s2.43,1.91,2.67,2.16c1.8,1.9,1.8,4.71,1.8,6.38v19.81c-4.63,3.51-8.9,4.75-11.79,3.38-2.34-1.12-3.67-3.88-3.74-7.79,0,.01,0-28.27,0-28.27l-1.26-.81-14.14,2.83v2.32s2.42,1.91,2.67,2.16c1.82,1.92,1.81,4.76,1.8,6.44v16.9c.12,3.24.28,4.36.63,5.79.88,3.63,3,6.17,6.14,7.33,4.99,1.86,12.1.05,19.68-4.97v4.59h15.49v-2.93l-.76-.18ZM383.48,112.82c-2.44-.58-3.72-2.68-3.8-6.24l-.03-20.35c0-4.67-2.43-13.51-11.65-13.51-6.85,0-11.5,4.06-13.73,6.29-1.48-3.14-4.37-6.29-9.99-6.29-4.32,0-8.42,1.64-12.21,4.89v-4.26s-1.26-.81-1.26-.81l-14.14,2.83v2.32s2.43,1.91,2.68,2.16c1.79,1.9,1.79,4.7,1.79,6.38v29.71s15.4,0,15.4,0v-2.93l-.76-.18c-2.41-.57-3.62-2.62-3.71-6.26,0,.02-.01-20.49-.02-23.75,2.71-2.28,5.43-2.76,8.3-2.51,2.34.2,4.74,1.82,4.8,10.26,0-.01-.01,25.38-.01,25.38h15.37v-2.93l-.76-.18c-2.45-.58-3.69-2.63-3.78-6.26,0,.02,0-20.33,0-20.33,0-.54-.11-2.24-.3-3.33,2.77-2.37,5.45-2.85,8.4-2.6,2.33.2,4.74,1.82,4.8,10.26,0-.01,0,25.38,0,25.38h15.36v-2.93l-.75-.18ZM245.71,94.44c0-6.52-2.1-12.09-6.11-16.1-4.15-4.15-10.08-6.34-17.14-6.34-13.27,0-23.28,9.65-23.27,22.44,0,13.61,9.14,22.42,23.27,22.43,6.78,0,12.63-2.24,16.9-6.52,4.1-4.1,6.35-9.75,6.35-15.91M222.46,112.08c-8.62,0-11.04-6.78-11.04-17.7,0-8.04,2.41-17.71,11.04-17.71s11.05,9.67,11.04,17.71c-.01,10.93-2.42,17.7-11.04,17.7M435.58,59c0-3.15,2.57-5.71,5.73-5.71s5.72,2.56,5.72,5.71-2.57,5.71-5.72,5.71-5.73-2.56-5.73-5.71M436.33,115.94v-29.99c.02-1.75.03-4.41-1.72-6.27-.26-.25-2.68-2.17-2.68-2.17v-2.32l14.12-2.83,1.27.81s-.03,33.4-.03,33.38c.09,3.65,1.29,5.7,3.67,6.26l.76.18v2.93h-15.39ZM428.28,82.91c-2.98-5.35-6.92-8.64-11.7-9.81-6.63-1.61-13.27,1.28-17.39,3.74l.04-25.78s-1.27-.81-1.27-.81l-14.11,2.83v2.32s2.43,1.91,2.68,2.16c1.74,1.84,1.73,4.49,1.72,6.24l-.03,48.5v.6l.54.28c8.04,4.16,18.67,4.77,26.44,1.54,8.69-3.62,12.38-9.75,13.95-14.26,2.36-6.81,1.26-13.73-.87-17.56M416.52,106.12c-2.45,4.15-7.44,6.55-11.38,5.46-3.93-1.1-6.07-5.26-6-11.74,0,0,0-14.76.01-17.99.14-.07.28-.14.43-.22,2.37-1.21,6.8-3.47,12.7-.47,3.18,1.62,5.56,4.64,6.69,8.53,1.52,5.21.63,11.2-2.45,16.42M489.98,111.29l-.81-.15c-.64-.12-1.79-1.66-1.79-4.3v-19.73c0-5.71-1.84-10.18-5.16-12.6-3.05-2.21-7.24-2.55-12.11-.97-5.75,1.87-14.51,9.52-15.9,11.22l-.31.38.12.48c.12.5.78,1.51,1.22,1.89l.28.24h9.59s-.02-2.29-.02-2.69c0-3.93,2.59-5.81,4.75-6.21,2.19-.41,3.69-.2,4.73.66,1.48,1.23,2.23,3.98,2.23,8.19v2.51s-20.25,8.98-20.25,8.98l-.4.18-.13.41c-1.87,5.66-1.46,10.01,1.19,12.94,4.2,4.62,14.41,5.26,29.29,1.9,1.13-.29,3.49-.54,3.49-.54-.01,0-.01-2.8-.01-2.8M476.83,95.07v15.21c-3.33,2.34-6.69,2.58-9.06.61-2.59-2.14-3.15-6.19-1.42-9.93l10.48-5.88Z"/><polygon points="59.49 178.04 73.09 178.04 73.09 175.19 62.59 175.19 62.59 168.29 71.84 168.29 71.84 165.44 62.59 165.44 62.59 160.29 73.09 160.29 73.09 157.44 59.49 157.44 59.49 178.04"/><polygon points="90.19 173.4 83.86 157.44 79.94 157.44 79.94 178.04 82.79 178.04 82.79 162.47 88.96 178.04 93.04 178.04 93.04 157.44 90.19 157.44 90.19 173.4"/><path d="M106.13,170.42h4.75c-.03,1.8-.34,3.1-.91,3.86-.59.78-1.61,1.17-3.04,1.17-1.61,0-2.76-.35-3.44-1.04-.67-.69-1.01-1.9-1.01-3.59v-6.05c0-1.72.32-2.95.96-3.66.63-.7,1.72-1.06,3.24-1.06,1.21,0,2.1.3,2.66.88.57.6.92,1.65,1.04,3.12l.03.3,3.09-.31-.02-.29c-.12-2.18-.75-3.84-1.88-4.93-1.13-1.08-2.77-1.63-4.9-1.63-2.32,0-4.15.67-5.42,1.98-1.27,1.31-1.91,3.19-1.91,5.6v6.05c0,2.37.66,4.23,1.96,5.53,1.3,1.29,3.18,1.95,5.59,1.95,2.24,0,4-.68,5.22-2.02,1.21-1.33,1.83-3.25,1.83-5.7v-3h-7.85v2.85Z"/><polygon points="118.46 160.29 123.46 160.29 123.46 175.19 118.46 175.19 118.46 178.04 131.56 178.04 131.56 175.19 126.56 175.19 126.56 160.29 131.56 160.29 131.56 157.44 118.46 157.44 118.46 160.29"/><polygon points="147.17 173.4 140.85 157.44 136.92 157.44 136.92 178.04 139.77 178.04 139.77 162.47 145.94 178.04 150.02 178.04 150.02 157.44 147.17 157.44 147.17 173.4"/><polygon points="156.92 178.04 170.52 178.04 170.52 175.19 160.02 175.19 160.02 168.29 169.27 168.29 169.27 165.44 160.02 165.44 160.02 160.29 170.52 160.29 170.52 157.44 156.92 157.44 156.92 178.04"/><polygon points="177.42 178.04 191.02 178.04 191.02 175.19 180.52 175.19 180.52 168.29 189.77 168.29 189.77 165.44 180.52 165.44 180.52 160.29 191.02 160.29 191.02 157.44 177.42 157.44 177.42 178.04"/><path d="M210.81,168.52c.86-.95,1.29-2.28,1.29-3.95v-1.55c0-1.85-.56-3.26-1.66-4.19-1.08-.92-2.72-1.38-4.87-1.38h-7.82v20.6h3.1v-7.75h3.09l5.08,7.75h3.57l-5.17-7.89c1.48-.23,2.62-.77,3.4-1.64ZM200.85,160.29h4.7c1.27,0,2.18.21,2.7.62.5.4.75,1.1.75,2.1v1.55c0,1.07-.25,1.83-.76,2.26-.52.44-1.42.67-2.69.67h-4.7v-7.2Z"/><polygon points="218.14 178.04 231.74 178.04 231.74 175.19 221.24 175.19 221.24 168.29 230.49 168.29 230.49 165.44 221.24 165.44 221.24 160.29 231.74 160.29 231.74 157.44 218.14 157.44 218.14 178.04"/><path d="M244.13,157.44h-5.82v20.6h5.8c2.4,0,4.32-.68,5.71-2.04,1.39-1.35,2.09-3.18,2.09-5.44v-5.55c0-2.27-.7-4.12-2.08-5.5-1.38-1.38-3.29-2.08-5.7-2.08ZM244.1,175.19h-2.7v-14.9h2.7c1.58,0,2.77.44,3.54,1.32.77.89,1.16,2.04,1.16,3.4v5.55c0,1.38-.39,2.51-1.16,3.36-.76.84-1.95,1.26-3.54,1.26Z"/><polygon points="270.25 178.04 273.35 178.04 273.35 170.29 282.1 170.29 282.1 167.44 273.35 167.44 273.35 160.29 283.85 160.29 283.85 157.44 270.25 157.44 270.25 178.04"/><path d="M294.96,157.19c-2.28,0-4.05.66-5.26,1.96-1.21,1.29-1.82,3.18-1.82,5.62v6.05c0,2.4.61,4.27,1.81,5.54,1.2,1.28,2.97,1.93,5.24,1.93s4.04-.65,5.24-1.93c1.2-1.28,1.81-3.14,1.81-5.54v-6.05c0-2.43-.61-4.32-1.8-5.62-1.2-1.3-2.96-1.96-5.22-1.96ZM290.98,164.77c0-1.73.3-2.97.9-3.68.59-.69,1.61-1.04,3.05-1.04s2.46.35,3.05,1.04c.6.71.9,1.95.9,3.68v6.05c0,1.7-.3,2.91-.9,3.6-.59.68-1.61,1.02-3.05,1.02s-2.46-.34-3.05-1.02c-.6-.69-.9-1.9-.9-3.6v-6.05Z"/><path d="M320.79,168.52c.86-.95,1.29-2.28,1.29-3.95v-1.55c0-1.85-.56-3.26-1.66-4.19-1.08-.92-2.72-1.38-4.87-1.38h-7.83v20.6h3.1v-7.75h3.09l5.08,7.75h3.57l-5.17-7.89c1.48-.23,2.62-.77,3.4-1.64ZM310.82,160.29h4.7c1.27,0,2.18.21,2.7.62.5.4.75,1.1.75,2.1v1.55c0,1.07-.25,1.83-.76,2.26-.52.44-1.42.67-2.69.67h-4.7v-7.2Z"/><polygon points="351.38 172.29 349.1 162.44 346 162.44 343.72 172.29 342.08 157.44 338.99 157.44 341.77 178.04 344.77 178.04 347.49 167.07 350.2 178.04 353.2 178.04 355.98 157.44 353.02 157.44 351.38 172.29"/><polygon points="371.96 165.44 365.06 165.44 365.06 157.44 361.96 157.44 361.96 178.04 365.06 178.04 365.06 168.29 371.96 168.29 371.96 178.04 375.06 178.04 375.06 157.44 371.96 157.44 371.96 165.44"/><path d="M389.94,157.44h-3.06l-6.64,20.6h3.19l1.73-5.75h6.43l1.72,5.75h3.29l-6.58-20.39-.07-.21ZM390.72,169.44h-4.72l2.37-7.83,2.35,7.83Z"/><polygon points="396.39 160.29 402.64 160.29 402.64 178.04 405.74 178.04 405.74 160.29 411.99 160.29 411.99 157.44 396.39 157.44 396.39 160.29"/><polygon points="416.63 178.04 430.23 178.04 430.23 175.19 419.73 175.19 419.73 168.29 428.98 168.29 428.98 165.44 419.73 165.44 419.73 160.29 430.23 160.29 430.23 157.44 416.63 157.44 416.63 178.04"/><polygon points="443.01 173.54 438.13 157.44 434.8 157.44 441.38 177.84 441.44 178.04 444.5 178.04 451.15 157.44 447.89 157.44 443.01 173.54"/><polygon points="455.4 178.04 468.99 178.04 468.99 175.19 458.49 175.19 458.49 168.29 467.74 168.29 467.74 165.44 458.49 165.44 458.49 160.29 468.99 160.29 468.99 157.44 455.4 157.44 455.4 178.04"/><path d="M485.03,170.16c1.48-.23,2.62-.77,3.4-1.64.86-.95,1.29-2.28,1.29-3.95v-1.55c0-1.85-.56-3.26-1.66-4.19-1.08-.92-2.72-1.38-4.87-1.38h-7.83v20.6h3.1v-7.75h3.09l5.08,7.75h3.57l-5.17-7.89ZM478.47,160.29h4.7c1.27,0,2.18.21,2.7.62.5.4.75,1.1.75,2.1v1.55c0,1.07-.25,1.83-.76,2.26-.52.44-1.42.67-2.69.67h-4.7v-7.2Z"/></svg>