<?xml version="1.0" encoding="UTF-8"?><svg id="Layer_2" xmlns="http://www.w3.org/2000/svg" width="302.4" height="127.36" viewBox="0 0 302.4 127.36"><defs><style>.cls-1{fill:#fff;}</style></defs><g id="Graphics"><path class="cls-1" d="M119.14,63.6V21.39h13.38c8.71,0,15.25,5.19,15.25,14.11s-6.43,14.31-15.25,14.31h-5.18v13.79h-8.19ZM127.34,41.92h4.77c4.15,0,7.16-2.28,7.16-6.43s-3.01-6.33-7.16-6.33h-4.77v12.76ZM257.7,109.96c-6.12,0-13.59-3.32-13.59-13.69v-14.83h7.67v14.31c0,4.77,2.18,6.84,5.91,6.84,3.42,0,5.91-2.39,5.91-6.84v-14.31h7.67v14.83c0,10.37-7.57,13.69-13.59,13.69M191.64,109.96c-7.36,0-13.79-6.74-13.79-14.62s6.43-14.31,13.79-14.31c4.15,0,6.95,1.45,8.61,4.04l.83-3.63h6.74v27.79h-6.74l-.83-3.53c-1.66,2.49-4.77,4.25-8.61,4.25M193.19,87.97c-4.15,0-7.26,3.11-7.26,7.36s3.11,7.26,7.26,7.26,7.16-3.21,7.16-7.26c0-4.25-3.11-7.36-7.16-7.36M243.49,35.8h7.67v27.79h-7.67v-27.79ZM247.43,32.07c-2.7,0-4.77-2.08-4.77-4.67s2.08-4.77,4.77-4.77,4.77,2.07,4.77,4.77-2.08,4.67-4.77,4.67M231.98,47.21c0-3.01-1.66-4.87-4.25-4.87-3.01,0-4.56,1.87-4.56,4.98v16.28h-7.67v-16.39c0-3.01-1.66-4.87-4.25-4.87-3.01,0-4.56,1.87-4.56,4.98v16.28h-7.68v-27.79h6.74l.83,3.63s1.66-4.36,6.84-4.36c3.22,0,5.91,1.35,7.78,4.15l.21.31.21-.31c2.7-3.84,6.02-4.15,8.09-4.15,5.91,0,9.96,4.46,9.96,10.79v17.73h-7.68v-16.39ZM285.6,63.6v-27.79h6.64l.83,4.04c1.24-2.59,3.73-4.36,7.05-4.36.73,0,1.45.1,2.18.31v7.36c-.93-.21-1.76-.31-2.7-.31-3.73,0-6.33,2.28-6.33,6.74v14h-7.68ZM150.36,63.6v-27.79h6.64l.83,4.04c1.24-2.59,3.73-4.36,7.05-4.36.73,0,1.45.1,2.18.31v7.36c-.93-.21-1.76-.31-2.7-.31-3.73,0-6.33,2.28-6.33,6.74v14h-7.68ZM119.14,109.23v-41.17h8.19v33.4h17.84v7.78h-26.03ZM161.77,109.96c-8.61,0-14.93-5.91-14.93-14.52,0-7.78,5.7-14.73,14.73-14.73,6.74,0,13.69,5.08,13.69,14.52,0,.73,0,1.66-.21,2.7h-20.33c.73,3.11,3.53,5.19,6.95,5.19,3.11,0,5.5-1.14,7.47-3.22l4.67,4.77c-3.01,3.42-7.36,5.29-12.03,5.29M161.35,87.45c-3.22,0-5.91,1.87-6.53,4.87h12.86c-.62-2.9-3.21-4.87-6.33-4.87M288.92,109.96c-8.61,0-14.93-5.91-14.93-14.52,0-7.78,5.7-14.73,14.73-14.73,6.74,0,13.69,5.08,13.69,14.52,0,.73,0,1.66-.21,2.7h-20.33c.73,3.11,3.53,5.19,6.95,5.19,3.11,0,5.5-1.14,7.47-3.22l4.67,4.77c-3.01,3.42-7.36,5.29-12.03,5.29M288.5,87.45c-3.22,0-5.91,1.87-6.53,4.87h12.86c-.62-2.9-3.21-4.87-6.33-4.87M269.11,64.32c-8.61,0-14.93-5.91-14.93-14.52,0-7.78,5.7-14.73,14.73-14.73,6.74,0,13.69,5.08,13.69,14.52,0,.73,0,1.66-.21,2.7h-20.33c.73,3.11,3.53,5.19,6.95,5.19,3.11,0,5.5-1.14,7.47-3.22l4.67,4.77c-3.01,3.42-7.36,5.29-12.03,5.29M268.69,41.82c-3.21,0-5.91,1.87-6.53,4.87h12.86c-.62-2.9-3.21-4.87-6.33-4.87M182.51,64.32c-8.61,0-14.93-5.91-14.93-14.52,0-7.78,5.7-14.73,14.73-14.73,6.74,0,13.69,5.08,13.69,14.52,0,.73,0,1.66-.21,2.7h-20.33c.73,3.11,3.53,5.19,6.95,5.19,3.11,0,5.5-1.14,7.47-3.22l4.67,4.77c-3.01,3.42-7.36,5.29-12.03,5.29M182.09,41.82c-3.21,0-5.91,1.87-6.53,4.87h12.86c-.62-2.9-3.21-4.87-6.33-4.87M225.97,87.97c-4.05,0-7.26,3.11-7.26,7.36s3.22,7.26,7.26,7.26,7.26-3.21,7.26-7.26c0-4.25-3.22-7.36-7.26-7.36M232.81,84.96l.83-3.53h6.74v26.55c0,5.19-1.45,8.82-4.87,11.51-2.59,1.97-6.12,3.42-10.37,3.42-5.81,0-9.96-1.97-13.27-5.19l4.25-5.91c2.07,1.97,4.87,3.73,8.5,3.73,5.7,0,8.19-2.8,8.19-6.95v-1.97c-2.28,2.39-4.98,3.32-7.99,3.32-7.88,0-14.11-6.43-14.11-14.62s6.43-14.31,14.31-14.31c3.22,0,6.12,1.56,7.78,3.94M21.64,10.45c5.53,2.53,9.08,5.74,9.73,6.22-.3-1.43-1.38-8.31-2.01-12.59,3.22,2.24,10.71,7.43,13.17,9.12C43.53,10.12,47.01.01,47.01.01c0,0,6.28,10.17,7.35,11.82,1.31-1.37,8.82-9.72,10.76-11.84.33,4.81.77,11.68.88,12.71.39-.51,3.26-4.54,8.08-8.26-2.09,4.11-3.08,9.79-3.53,14.36-4.74-1.33-9.74-2.04-14.9-2.04-9.9,0-19.19,2.61-27.23,7.17-1.46-4.4-3.75-9.88-6.78-13.5ZM79.33,67.69v-7.07s-3.17-1.02-6.55-3.64c-6.78,1.03-14.99,7.85-14.99,7.85,0,0,2.78,5.26,5.81,10.94,5.34.73,13.19-5.99,15.73-8.08ZM86.15,80.52s-.54-2.93-2.86-5.66l-5.29.13s-7.13,6.13-11.49,6.27c0,0,2.4,4.46,3.6,6.79,2.4-.52,6.61-2.41,8.31-4.38,0,0,1.12,3.62.91,7.89,2.38-1.39,5.67-5.13,6.82-11.03ZM88.32,57.26c-2.67,2.25-4.93,3.49-4.93,3.49l.02,7.11c1.91,2.13,3.8,3.89,5.21,7.1,2.67-4.81,2.17-11.89-.3-17.7ZM88.91,50.93l.42-3.23c.14-1.78-.32-4.73-2.81-7.79-3.09-3.46-10.86-9.05-14.56-10.39,0,0-.31,3.57-1.58,5.29-7.38-5.33-11.01-6.66-11.01-6.66-8.11,1.16-13.32,4.28-16.15,6.74l2.47,2.1c-4.89,1.5-8.06,5.7-8.06,5.7.03.07,4.36.69,4.36.69,0,0-.44,5.09,5.93,8.28,5.45,2.73,13.3-.66,20.68,2.31-4.86-5.61-8.21-8.11-8.21-8.11,0,0-1.93-.4-3.29-.39-1.7.01-4.22.35-7-.73-1.32-.51-2.87-1.43-4.08-2.19,0,0,3.41-3.5,8.39-4.28,0,0,4.49,1.26,8.05,3.9,2.37-2.3,4.84-2.23,4.84-2.23,0,0-2.44,2.29-1.71,5.05,3.56,3.17,7.41,7.71,7.41,7.71,3.93-2.16,12.47-1.66,14.22.37-2.22-2.88-5.43-5.29-7.91-7.35-.3-1.08-3.01-4.85-3.46-5.19,0,0,2.57.8,4.87,2.85.66-.94,1.89-1.9,3.58-2.32,1.73,1.45,2.04,3.68,1.99,4.05-.78.93-1.54,1.31-1.54,1.31l4.16,4.5.42-3.23M93.05,53.56c6.34,11.72,7.88,25.76,3.48,39.74-.27-.3-3.62-4.05-5.01-5.58-.88,13.68-4.9,24.3-16.66,33.27,0,0-1.12-4.29-1.77-6.98-19.37,14.2-36.02,7.7-40.7,5.37,3.62-16.62.82-26.17-1.61-33.45-5.15,8.47-10.44,15.05-15.71,19.49-3.6-8.41-3.88-24.05-.97-33.29-.97.26-6.66,2.06-9.81,3.02,1.27-8.48,6.87-19.84,12.79-25.49-1.03-.18-4.07-.61-6.47-1.01,1.48-3.01,5.77-8.6,12.35-13.85-.19,3.7,1.18,8.11,5.36,10.22-2.65-4.64-2.97-10.38-.21-13.36,2.77-2.99,7.43-1.96,10.4.36-.55-1.61-1.75-3.48-3.51-4.72,8.2-3.82,18.15-6.03,29.43-4.29,1.74,1.52,3.6,3.65,4.63,4.97.05-.95-.09-2.77-.39-4.15,4.61,1.09,9.43,2.86,14.42,5.44-8.89-8.87-26.9-11.53-41.93-7.23-3.52,1.01-6.87,2.35-10.01,3.92-3.32.04-5.45,2.07-6.67,3.86-9.62,6.38-16.67,14.78-20.07,21.81.75.16,3.03.44,5.14.81C5.27,58.59-.35,70.2.02,80.62c.98-.29,6.23-1.9,8.8-2.74-1.38,9.19-.98,24.64,4.99,33.47,7.51-5.32,11.86-10.91,15.48-15.95.93,4.54,1.84,12.61-1.36,25.98,2.6,2,21.43,11.89,42.72-1.03l1.78,7.02,2.3-1.5c12.96-8.42,17.94-19.79,19.67-29.05.6.66,2.95,3.24,3.8,4.1,3.25-8.87,9.75-30.21-5.15-47.35Z"/></g></svg>