<svg xmlns="http://www.w3.org/2000/svg" xmlns:xlink="http://www.w3.org/1999/xlink" width="300" height="250" viewBox="0 0 300 250"><defs><clipPath id="a"><rect width="113" height="54.936" fill="none"/></clipPath><clipPath id="c"><rect width="300" height="250"/></clipPath></defs><g id="b" clip-path="url(#c)"><rect width="300" height="70" transform="translate(0 180)" fill="#0b2d27"/><text transform="translate(150 147)" fill="#fff" font-size="9" font-family="GlyphaLT-Light, Glypha LT" font-weight="300" opacity="0"><tspan x="-23.962" y="0">Terms apply</tspan></text><rect width="300" height="250" fill="none"/><g transform="translate(94 187.064)"><g clip-path="url(#a)"><path d="M2.442,116.667,3.63,113.4h.018l1.188,3.263Zm-1.9,2.661H2.521v-.372h-.9l.683-1.916h2.66l.683,1.916h-.9v.372H6.734v-.372h-.55l-2.226-5.977H3.32l-2.226,5.977H.544Zm8.113-5.977H9.739a2.825,2.825,0,0,1,0,5.6H8.657Zm-1.366,5.977h2.5c1.915,0,2.944-1.295,2.944-3.174s-1.029-3.175-2.944-3.175h-2.5v.372h.887v5.6H7.291Zm5.521-5.977h.559l2.128,5.977h.585l2.128-5.977h.559v-.372h-2.04v.372h.949L15.8,118.8h-.018l-1.88-5.445h.949v-.372h-2.04Zm6.447,5.977h4.692V117.36h-.426v1.6h-2.9v-2.7h1.552v1.1H22.6v-2.51h-.426v1.038H20.625v-2.536h2.856v1.5h.426v-1.871H19.259v.372h.887v5.6h-.887Zm6.346-.372h-.887v.372h2.253v-.372h-.887v-5.6h.036l3.2,5.977h.718v-5.977H30.8v-.372H28.674v.372h.887V118.8h-.018l-3.113-5.817H24.719v.372h.887Zm8.006,0H32.565v.372h2.572v-.372H34.09V113.4h1.765v1.543h.426v-1.969h-4.86v1.969h.426V113.4h1.764Zm3.271-5.6h.674v3.7c0,1.428.6,2.385,2.173,2.385,1.455,0,2.173-.957,2.173-2.385v-3.7h.674v-.372H40.464v.372h.958v3.707c0,1.392-.709,2-1.694,2s-1.694-.612-1.694-2v-3.707h.958v-.372H36.882Zm6.247,5.977h2.252v-.372h-.887v-2.563h1.074c.869,0,1.09.32,1.481,1.872l.266,1.064h1.055v-.372h-.638l-.39-1.392c-.222-.78-.408-1.206-.941-1.313v-.018a1.445,1.445,0,0,0,1.206-1.5c0-1.118-.514-1.756-1.8-1.756H43.129v.372h.887v5.6h-.887Zm1.365-5.977h1.091c1.091,0,1.49.523,1.49,1.4a1.238,1.238,0,0,1-1.41,1.268H44.494Zm4.455,5.977h4.692V117.36h-.426v1.6h-2.9v-2.7h1.552v1.1h.426v-2.51h-.426v1.038H50.315v-2.536h2.856v1.5H53.6v-1.871H48.949v.372h.887v5.6h-.887Zm9.021-5.578h-.018a1.578,1.578,0,0,0-1.508-.878,1.616,1.616,0,0,0-1.73,1.73c0,2.066,3.282,1.277,3.282,3.024a1.3,1.3,0,0,1-1.375,1.437c-1.011,0-1.428-.834-1.481-1.916h-.426v2.181h.426v-.887h.018a1.525,1.525,0,0,0,1.632.993,1.681,1.681,0,0,0,1.738-1.8c0-2.262-3.281-1.321-3.281-3.113a1.2,1.2,0,0,1,1.251-1.277c.949,0,1.437.683,1.472,1.88H58.4v-2.146H57.97Zm6.793,0h-.018a1.576,1.576,0,0,0-1.508-.878,1.616,1.616,0,0,0-1.729,1.73c0,2.066,3.281,1.277,3.281,3.024a1.3,1.3,0,0,1-1.374,1.437c-1.011,0-1.428-.834-1.481-1.916h-.426v2.181h.426v-.887h.018a1.526,1.526,0,0,0,1.632.993,1.681,1.681,0,0,0,1.739-1.8c0-2.262-3.282-1.321-3.282-3.113a1.2,1.2,0,0,1,1.251-1.277c.949,0,1.436.683,1.472,1.88h.426v-2.146h-.426Zm3.4,5.206H67.118v.372H69.69v-.372H68.643V113.4h1.765v1.543h.426v-1.969h-4.86v1.969H66.4V113.4h1.765Zm4.479-2.289,1.188-3.263h.018l1.188,3.263Zm-1.9,2.661h1.978v-.372h-.9l.683-1.916h2.66l.683,1.916h-.9v.372h1.977v-.372h-.549l-2.226-5.977h-.638L71.3,118.956h-.549Zm6.747,0h2.252v-.372h-.886v-2.563h1.073c.869,0,1.091.32,1.481,1.872l.266,1.064h1.055v-.372H82.1l-.39-1.392c-.222-.78-.408-1.206-.94-1.313v-.018a1.445,1.445,0,0,0,1.206-1.5c0-1.118-.515-1.756-1.8-1.756H77.493v.372h.887v5.6h-.887Zm1.366-5.977h1.09c1.092,0,1.491.523,1.491,1.4a1.238,1.238,0,0,1-1.41,1.268h-1.17Zm6.3,5.6H84.116v.372h2.571v-.372H85.641V113.4h1.765v1.543h.426v-1.969h-4.86v1.969H83.4V113.4h1.765Zm9.1.372h2.252v-.372h-.886v-5.6h.886v-.372H94.261v.372h.887v2.536h-3.3v-2.536h.887v-.372H90.483v.372h.887v5.6h-.887v.372h2.253v-.372h-.887v-2.643h3.3v2.643h-.887Zm2.845,0H101.8V117.36h-.426v1.6h-2.9v-2.7h1.552v1.1h.426v-2.51h-.426v1.038H98.472v-2.536h2.856v1.5h.426v-1.871H97.106v.372h.887v5.6h-.887Zm5.46,0h2.253v-.372h-.887v-2.563H105c.87,0,1.091.32,1.482,1.872l.265,1.064h1.056v-.372h-.639l-.39-1.392c-.222-.78-.408-1.206-.94-1.313v-.018a1.445,1.445,0,0,0,1.206-1.5c0-1.118-.514-1.756-1.8-1.756h-2.678v.372h.887v5.6h-.887Zm1.366-5.977h1.091c1.091,0,1.49.523,1.49,1.4a1.238,1.238,0,0,1-1.41,1.268h-1.17Zm4.455,5.977h4.692V117.36h-.426v1.6h-2.9v-2.7H111.3v1.1h.426v-2.51H111.3v1.038h-1.552v-2.536h2.856v1.5h.425v-1.871h-4.647v.372h.887v5.6h-.887Z" transform="translate(-0.311 -64.499)" fill="#fff"/><path d="M184.955,12.831h.5v2.613h-.5a2.091,2.091,0,0,0-2.165-2.238c-1.488,0-2.644,1.114-2.644,3.342,0,2.248,1.156,3.362,2.571,3.362a2.124,2.124,0,0,0,2.217-2.311v-.52h-1.229v-.437h2.655v.437H185.5v3.206h-.562v-1.2H184.9a2.284,2.284,0,0,1-2.134,1.322c-2.2,0-3.248-1.781-3.248-3.852s1.051-3.852,3.321-3.852a2.1,2.1,0,0,1,2.092,1.249h.021Z" transform="translate(-102.585 -7.261)" fill="#fff"/><path d="M196.326,22.595h.832V18.1h-.832V17.66h1.395v.958h.021a1.444,1.444,0,0,1,1.4-1.1,1.022,1.022,0,0,1,.291.031v.5a.84.84,0,0,0-.25-.032c-.989,0-1.468.823-1.468,1.957v2.624h1.02v.437h-2.415Z" transform="translate(-112.187 -10.009)" fill="#fff"/><path d="M208.763,20.013c-.031-1.281-.614-2.061-1.686-2.061-.948,0-1.562.843-1.666,2.061Zm-3.352.437c.021,1.395.645,2.29,1.739,2.29a1.437,1.437,0,0,0,1.572-1.312h.5a1.935,1.935,0,0,1-2.071,1.749c-1.572,0-2.3-1.186-2.3-2.831s.729-2.831,2.3-2.831,2.175,1.426,2.175,2.935Z" transform="translate(-117.058 -10.009)" fill="#fff"/><path d="M220.354,20.294c-.354-.01-.677-.031-.989-.031-1.291,0-1.812.448-1.812,1.343a1.1,1.1,0,0,0,1.2,1.134c1.134,0,1.6-1.072,1.6-2.133Zm-3.175-1.083a1.689,1.689,0,0,1,1.863-1.7c1.458,0,1.874.791,1.874,1.8v3.279h.718v.438h-1.218V21.94h-.021a1.667,1.667,0,0,1-1.77,1.238,1.506,1.506,0,0,1-1.634-1.6c0-1.114.666-1.749,2.228-1.749h1.135v-.4c0-1.051-.51-1.478-1.291-1.478a1.236,1.236,0,0,0-1.323,1.259Z" transform="translate(-123.996 -10.009)" fill="#fff"/><path d="M229.362,14.905l.562-.208V16.05h1.447v.437h-1.447v3.758c0,.655.261.884.531.884.426,0,.645-.364.645-1.03v-.114h.437v.2c0,.823-.416,1.385-1.134,1.385s-1.041-.416-1.041-1.2V16.488H228.4V16.05h.958Z" transform="translate(-130.518 -8.398)" fill="#fff"/><rect width="0.566" height="41.07" transform="translate(68.409 0.212)" fill="#fff"/><path d="M180.507,44.734l-1.572-7.016h-.6v-.437h2.332v.437H179.5l1.395,6.392h.021l1.707-6.829h.833l1.707,6.829h.021l1.4-6.392h-1.1v-.437h2.269v.437h-.6l-1.572,7.016h-.781l-1.738-6.891h-.021l-1.738,6.891Z" transform="translate(-101.904 -21.304)" fill="#fff"/><path d="M204.249,44.3c-.031-1.281-.614-2.061-1.686-2.061-.948,0-1.561.843-1.665,2.061Zm-3.351.437c.021,1.395.645,2.29,1.738,2.29a1.437,1.437,0,0,0,1.572-1.311h.5a1.936,1.936,0,0,1-2.072,1.749c-1.572,0-2.3-1.187-2.3-2.831s.729-2.831,2.3-2.831,2.176,1.426,2.176,2.935Z" transform="translate(-114.478 -23.885)" fill="#fff"/><path d="M212.575,45.431h.437c.042,1.072.635,1.593,1.436,1.593s1.312-.427,1.312-1.166c0-.646-.291-.864-1.155-1l-.676-.1c-.833-.147-1.3-.531-1.3-1.28a1.636,1.636,0,0,1,1.728-1.677,1.423,1.423,0,0,1,1.425.781h.021v-.635h.437v1.843H215.8v-.292a1.231,1.231,0,0,0-1.363-1.259,1.138,1.138,0,0,0-1.249,1.166c0,.562.416.78.947.864l.781.125c.989.156,1.4.6,1.4,1.415,0,1.1-.718,1.656-1.852,1.656a1.4,1.4,0,0,1-1.447-.864h-.01v.718h-.437Z" transform="translate(-121.473 -23.885)" fill="#fff"/><path d="M223.488,39.189l.562-.208v1.353H225.5v.438H224.05V44.53c0,.655.261.885.531.885.427,0,.645-.365.645-1.031v-.114h.437v.2c0,.823-.417,1.385-1.134,1.385s-1.041-.416-1.041-1.2V40.772h-.957v-.438h.957Z" transform="translate(-127.162 -22.275)" fill="#fff"/><path d="M235.259,44.3c-.031-1.281-.614-2.061-1.686-2.061-.948,0-1.562.843-1.666,2.061Zm-3.352.437c.021,1.395.645,2.29,1.738,2.29a1.437,1.437,0,0,0,1.572-1.311h.5a1.935,1.935,0,0,1-2.071,1.749c-1.572,0-2.3-1.187-2.3-2.831s.729-2.831,2.3-2.831,2.176,1.426,2.176,2.935Z" transform="translate(-132.198 -23.885)" fill="#fff"/><path d="M243.05,46.878h.833v-4.5h-.833v-.437h1.395V42.9h.021a1.445,1.445,0,0,1,1.4-1.1,1.037,1.037,0,0,1,.291.031v.5a.866.866,0,0,0-.25-.031c-.989,0-1.468.822-1.468,1.957v2.623h1.02v.437H243.05Z" transform="translate(-138.887 -23.885)" fill="#fff"/><path d="M251.137,46.878h.833v-4.5h-.833v-.437h1.395v.843h.021a1.574,1.574,0,0,1,1.572-.989c1.134,0,1.613.635,1.613,1.988v3.091h.771v.437h-2.228v-.437h.895V43.787c0-1.062-.406-1.551-1.228-1.551s-1.416.771-1.416,2.019v2.623h.833v.437h-2.228Z" transform="translate(-143.508 -23.885)" fill="#fff"/><path d="M180.42,65.135h1.374a1.453,1.453,0,0,0,1.655-1.489c0-1.03-.468-1.645-1.748-1.645H180.42Zm-1.6,3.445h1.041V62h-1.041v-.437h3.144c1.509,0,2.113.749,2.113,2.061a1.7,1.7,0,0,1-1.416,1.759v.021c.624.125.843.624,1.1,1.54l.458,1.635h.75v.437h-1.239l-.313-1.249c-.457-1.822-.718-2.2-1.738-2.2h-1.26v3.008h1.041v.437h-2.644Z" transform="translate(-102.183 -35.18)" fill="#fff"/><path d="M197.891,68.861c-.354-.01-.676-.031-.989-.031-1.29,0-1.811.448-1.811,1.343a1.1,1.1,0,0,0,1.2,1.135c1.135,0,1.6-1.072,1.6-2.134Zm-3.175-1.082a1.689,1.689,0,0,1,1.863-1.7c1.457,0,1.873.791,1.873,1.8v3.279h.718V71.6h-1.218V70.507h-.021a1.668,1.668,0,0,1-1.77,1.238,1.506,1.506,0,0,1-1.634-1.6c0-1.114.666-1.749,2.228-1.749h1.134V68c0-1.051-.51-1.478-1.29-1.478a1.236,1.236,0,0,0-1.322,1.259Z" transform="translate(-111.16 -37.762)" fill="#fff"/><path d="M206.92,62.05h.687V62.8h-.687Zm-.832,6.808h.895v-4.5h-.895v-.437h1.457v4.934h.833v.437h-2.29Z" transform="translate(-117.766 -35.457)" fill="#fff"/><path d="M212.377,68.58h.9V62h-.9v-.437h1.458V68.58h.832v.437h-2.29Z" transform="translate(-121.36 -35.18)" fill="#fff"/><path d="M218.732,66.859h-.479v-.437h1.874v.437h-.833l1.259,4.31h.021l1.281-4.747h.749l1.28,4.747h.021l1.26-4.31h-.75v-.437h1.791v.437h-.479l-1.447,4.934h-.75l-1.29-4.809h-.021l-1.291,4.809h-.749Z" transform="translate(-124.717 -37.956)" fill="#fff"/><path d="M241.48,68.861c-.354-.01-.677-.031-.989-.031-1.291,0-1.812.448-1.812,1.343a1.1,1.1,0,0,0,1.2,1.135c1.134,0,1.6-1.072,1.6-2.134ZM238.3,67.779a1.689,1.689,0,0,1,1.863-1.7c1.458,0,1.874.791,1.874,1.8v3.279h.718V71.6h-1.218V70.507h-.021a1.667,1.667,0,0,1-1.77,1.238,1.506,1.506,0,0,1-1.634-1.6c0-1.114.666-1.749,2.228-1.749h1.135V68c0-1.051-.51-1.478-1.291-1.478a1.236,1.236,0,0,0-1.322,1.259Z" transform="translate(-136.068 -37.762)" fill="#fff"/><path d="M249.627,66.422h1.833v.437h-.781l1.478,4.122h.021l1.479-4.122h-.781v-.437h1.707v.437h-.364l-2.082,5.694c-.333.916-.718,1.114-1.229,1.114a1.7,1.7,0,0,1-.51-.063v-.437a1.239,1.239,0,0,0,.427.063c.417,0,.594-.156,1.062-1.437l-1.77-4.934h-.489Z" transform="translate(-142.645 -37.956)" fill="#fff"/><path d="M55.661,22.326,48.22,0,40.778,22.325,35.2,5.581H31.476l9.3,27.906L48.22,11.163l7.442,22.325,9.3-27.906H61.243Z" transform="translate(-17.987 0)" fill="#fff"/><path d="M12.01,35.439H7.91v3.53h2.883V40.5a4.381,4.381,0,1,1,0-6.6l1.526-3.272a7.911,7.911,0,1,0,2.005,11.2v-6.4Z" transform="translate(0 -16.74)" fill="#fff"/><path d="M113.507,33.917h4.5a1.772,1.772,0,0,1,.041,3.543h-4.542Zm9.8,1.771a5.3,5.3,0,0,0-5.3-5.3h-8.032v14.89h3.53V40.99h3.938l2,4.287h3.866l-2.4-5.151a5.3,5.3,0,0,0,2.4-4.437" transform="translate(-62.845 -17.364)" fill="#fff"/></g></g></g></svg>